<?xml version="1.0" encoding="UTF-8"?>
<svg width="100%" height="100%" viewBox="0 0 535 442" version="1.1" xmlns="http://www.w3.org/2000/svg" xmlns:xlink="http://www.w3.org/1999/xlink">
    <!-- Generator: Sketch 49.1 (51147) - http://www.bohemiancoding.com/sketch -->
    <title>about</title>
    <desc>Created with Sketch.</desc>
    <defs>
        <linearGradient x1="50%" y1="0%" x2="50%" y2="100%" id="linearGradient-1">
            <stop stop-color="#FFD500" offset="0%"></stop>
            <stop stop-color="#FFAB00" offset="100%"></stop>
        </linearGradient>
        <linearGradient x1="50%" y1="0%" x2="50%" y2="100%" id="linearGradient-2">
            <stop stop-color="#000083" offset="0%"></stop>
            <stop stop-color="#00004C" offset="100%"></stop>
        </linearGradient>
        <linearGradient x1="50%" y1="0%" x2="50%" y2="100%" id="linearGradient-3">
            <stop stop-color="#FFEC00" offset="0%"></stop>
            <stop stop-color="#FFD500" offset="100%"></stop>
        </linearGradient>
    </defs>
    <g id="Page-1" stroke="none" stroke-width="1" fill="none" fill-rule="evenodd">
        <path d="M281.73329,436 C458.73329,397 534.73329,338.398075 534.73329,218 C534.73329,97.6019245 421.461332,0 281.73329,0 C142.005248,0 -79.2667102,139 28.7332898,218 C136.73329,297 104.73329,475 281.73329,436 Z" id="Oval" fill="#00004C"></path>
        <g id="369729-PB8VLM-59" transform="translate(106.000000, 45.000000)">
            <path d="M31,264.381616 C31,254.783341 96.405,247 177.086,247 C257.766,247 323.172,254.783341 323.172,264.381616 C323.172,273.981659 257.766,281.765 177.086,281.765 C177.086,281.765 31,273.981659 31,264.381616 Z" id="Fill-18" fill="#FFFFFF"></path>
            <path d="M210.778,265.547 C210.778,265.547 225.748,268.104 241.832,268.104 C256.739,268.104 271.123,265.547 271.123,265.547 L269.954,262.951 C264.814,251.542 245.366,255.979 240.951,244.205 C237.271,255.979 217.087,251.542 211.948,262.951 L210.778,265.547" id="Fill-19" fill="#E1DAD9"></path>
            <polygon id="Fill-20" fill="#E1DAD9" points="237.271 252.799 245.366 252.799 245.366 177 237.271 177"></polygon>
            <polyline id="Fill-21" fill="#E9C092" points="239.574 246.585 236.043 238.86 228.303 241.71 230.451 249.657 239.574 246.585"></polyline>
            <path d="M239.561,246.467 L241.418,252.778 L233.235,255.364 C233.235,255.364 214.763,263.119 211.32,259.523 C209.744,257.875 215.758,256.25 219.617,253.694 C223.478,251.14 229.54,247.531 229.54,247.531 C229.54,247.531 234.864,247.73 239.561,246.467" id="Fill-22" fill="#00004C"></path>
            <polyline id="Fill-23" fill="#E9C092" points="198.684 258 197.478 249.593 189.247 250.142 189.064 258.372 198.684 258"></polyline>
            <path d="M198.703,257.882 L198.703,264.461 L190.123,264.631 C190.123,264.631 170.212,266.855 167.926,262.435 C166.879,260.409 173.106,260.547 177.531,259.186 C181.955,257.825 188.79,256.074 188.79,256.074 C188.79,256.074 193.841,257.77 198.703,257.882" id="Fill-24" fill="#00004C"></path>
            <path d="M124.276,113.067 L135.646,109.295 L145.712,111.843 C151.38,110.37 153.266,110.452 164.87,107.468 C174.668,104.948 185.92,99.924 185.92,99.924 L194.261,85.941 C199.657,86.432 210.992,92.319 210.992,92.319 C210.992,92.319 195.487,113.415 191.071,114.887 C186.656,116.358 156.888,119.988 145.54,118.687 C141.966,118.276 134.971,114.493 134.971,114.493 L125.999,115.983 L119.002,120.706 L117.781,119.694 L120.564,116.646 L124.276,113.067" id="Fill-25" fill="#D6A97D"></path>
            <path d="M202.862,59.315 C202.862,59.315 217.32,61.735 217.074,74.736 C216.915,83.204 205.3,99.021 205.3,99.021 C205.3,99.021 198.922,90.19 191.072,87.737 C191.072,87.737 196.171,72.782 197.73,68.104 C199.69,62.225 202.862,59.315 202.862,59.315" id="Fill-26" fill="url(#linearGradient-1)"></path>
            <polygon id="Fill-27" fill="#E1DAD9" points="226.969 190.247 255.669 190.247 255.669 174.793 226.969 174.793"></polygon>
            <path d="M230.814,114.688 C229.401,95.992 228.395,77.27 227.771,58.533 C245.511,50.635 285.084,54.16 288.785,65.879 C292.712,78.314 277.746,113.713 277.746,126.959 C277.746,140.205 282.897,149.772 283.634,155.659 C284.369,161.547 280.689,165.962 280.689,165.962 L235.326,165.962 C234.171,148.849 232.104,131.762 230.814,114.688" id="Fill-28" fill="#E1DAD9"></path>
            <path d="M230.814,114.688 C229.342,95.204 228.313,75.69 227.696,56.163 C247.193,51.606 278.172,55.576 281.426,65.879 C285.353,78.314 270.387,113.713 270.387,126.959 C270.387,140.205 275.538,149.772 276.274,155.659 C277.011,161.547 273.331,165.962 273.331,165.962 L235.326,165.962 C234.171,148.849 232.104,131.762 230.814,114.688" id="Fill-29" fill="#FFFFFE"></path>
            <path d="M195.325,179.944 L272.731,179.944 C277.127,179.944 280.689,176.381 280.689,171.985 L280.689,165.962 L195.325,165.962 L195.325,179.944" id="Fill-30" fill="#FFFFFE"></path>
            <path d="M211.515,133.827 C211.515,133.827 170.677,158.091 168.248,168.108 C165.351,180.063 184.937,250.854 184.937,250.854 C189.556,253.961 198.118,252.911 201.269,250.084 C201.269,250.084 185.513,189.511 187.229,185.464 C191.433,175.559 227.214,163.754 238.498,152.961 C249.782,142.168 250.763,131.865 250.763,131.865 L211.515,133.827" id="Fill-31" fill="url(#linearGradient-2)"></path>
            <path d="M258.201,122.977 C258.201,122.977 272.111,151.979 259.602,163.754 C253.874,169.145 219.609,164.245 217.647,169.642 L238.333,238.365 C238.333,238.365 234.686,240.583 227.326,244.263 C227.326,244.263 184.286,168.415 188.702,158.603 C193.117,148.791 222.799,143.148 224.271,137.752 C225.742,132.355 226.724,123.524 226.724,123.524 L258.201,122.977" id="Fill-32" fill="url(#linearGradient-2)"></path>
            <path d="M199.193,44.307 C200.081,47.675 201.66,51.384 204.966,52.481 C208.004,53.488 211.232,51.862 213.982,50.224 C217.219,48.297 220.5,46.184 222.569,43.038 C225.71,38.263 228.25,32.43 227.897,26.726 C227.773,24.709 224.822,22.237 223.599,20.63 C222.734,19.495 221.443,18.772 220.155,18.159 C217.097,16.703 213.832,15.683 210.488,15.138 C204.906,14.229 198.699,15.477 197.583,21.606 C196.255,28.903 197.322,37.211 199.193,44.307" id="Fill-33" fill="#E9C092"></path>
            <path d="M207.354,31.308 C207.354,32.151 208.036,32.834 208.879,32.834 C209.722,32.834 210.405,32.151 210.405,31.308 C210.405,30.465 209.722,29.782 208.879,29.782 C208.036,29.782 207.354,30.465 207.354,31.308" id="Fill-34" fill="#362333"></path>
            <path d="M198.688,31.308 C198.688,32.151 199.372,32.834 200.215,32.834 C201.058,32.834 201.74,32.151 201.74,31.308 C201.74,30.465 201.058,29.782 200.215,29.782 C199.372,29.782 198.688,30.465 198.688,31.308" id="Fill-35" fill="#362333"></path>
            <path d="M210.241,27.213 C207.848,27.213 205.899,29.157 205.899,31.545 C205.899,33.934 207.848,35.877 210.241,35.877 C212.635,35.877 214.582,33.934 214.582,31.545 C214.582,29.157 212.635,27.213 210.241,27.213 Z M210.241,36.861 C207.306,36.861 204.917,34.476 204.917,31.545 C204.917,28.615 207.306,26.23 210.241,26.23 C213.177,26.23 215.564,28.615 215.564,31.545 C215.564,34.476 213.177,36.861 210.241,36.861 Z" id="Fill-36" fill="#362333"></path>
            <path d="M202.227,28.714 L201.441,28.121 C202.096,27.256 203.063,26.746 204.166,26.684 C205.357,26.614 206.559,27.098 207.391,27.972 L206.678,28.65 C206.043,27.982 205.113,27.617 204.222,27.665 C203.411,27.711 202.703,28.083 202.227,28.714" id="Fill-37" fill="#362333"></path>
            <path d="M198.501,27.213 C196.107,27.213 194.16,29.157 194.16,31.545 C194.16,33.934 196.107,35.877 198.501,35.877 C200.895,35.877 202.842,33.934 202.842,31.545 C202.842,29.157 200.895,27.213 198.501,27.213 Z M198.501,36.861 C195.565,36.861 193.178,34.476 193.178,31.545 C193.178,28.615 195.565,26.23 198.501,26.23 C201.437,26.23 203.824,28.615 203.824,31.545 C203.824,34.476 201.437,36.861 198.501,36.861 Z" id="Fill-38" fill="#362333"></path>
            <path d="M238.56,53.489 C238.56,53.489 238.498,52.387 234.573,51.406 C233.447,51.125 232.039,51.123 231.143,50.339 C227.967,47.561 225.049,42.393 223.966,38.583 C223.806,38.019 223.648,37.421 223.797,36.854 C221.145,39.102 218.581,41.455 216.114,43.906 C215.27,44.745 210.161,44.27 210.778,45.408 C210.951,45.726 212.253,48.703 213.533,51.587 C211.055,53.21 208.326,55.331 208.326,55.331 L204.892,74.464 L214.949,80.106 C214.949,80.106 226.232,77.653 233.592,73.729 C240.951,69.804 238.56,53.489 238.56,53.489" id="Fill-39" fill="#E9C092"></path>
            <path d="M234.573,51.406 C234.573,51.406 231.63,56.803 224.271,59.992 C216.911,63.181 210.288,53.614 210.288,53.614 L202.862,59.315 C202.862,59.315 202.193,85.397 205.382,99.625 C208.571,113.853 211.515,133.827 211.515,133.827 C211.515,133.827 214.804,138.649 219.007,138.935 C224.149,139.282 231.232,135.255 242.423,137.262 C254.838,139.488 264.081,137.534 264.081,137.534 C264.081,137.534 254.53,90.864 252.322,81.543 C250.114,72.221 244.385,53.123 244.385,53.123 C244.385,53.123 239.479,51.896 234.573,51.406" id="Fill-40" fill="url(#linearGradient-1)"></path>
            <path d="M104.617,120.891 L147.55,120.891 L147.55,117.186 L101.609,117.186 L101.609,117.883 C101.609,119.544 102.956,120.891 104.617,120.891" id="Fill-41" fill="#E1DAD9"></path>
            <path d="M118.202,74.969 C119.479,74.97 120.619,75.77 121.053,76.97 L135.643,117.236 L134.742,117.611 L134.979,118.314 L101.609,117.186 L87.405,79.054 C86.667,77.071 88.133,74.96 90.25,74.96 L118.202,74.969" id="Fill-42" fill="#FFFFFE"></path>
            <path d="M204.197,28.011 C204.253,30.953 203.067,33.159 201.838,35.736 C201.299,36.865 200.842,38.409 201.285,39.649 C201.35,39.828 201.507,39.978 201.709,39.972 C202.85,39.938 204.157,39.153 205.194,38.688 C205.621,38.498 205.316,37.766 204.873,37.927 C204.386,38.104 203.889,38.361 203.391,38.497 C202.332,38.786 202.151,38.958 202.109,37.835 C202.057,36.449 203.293,34.94 203.812,33.683 C204.571,31.836 204.855,29.997 204.687,28.011 C204.66,27.702 204.191,27.691 204.197,28.011" id="Fill-44" fill="#362333"></path>
            <path d="M208.143,25.302 C208.742,25.498 209.386,25.485 210.011,25.541 C210.67,25.6 211.324,25.69 211.981,25.767 C212.829,25.867 213.035,24.401 212.185,24.266 C210.94,24.069 209.381,23.759 208.143,24.066 C207.503,24.226 207.565,25.113 208.143,25.302" id="Fill-45" fill="#362333"></path>
            <path d="M198.356,25.324 C199.398,25.493 200.459,25.316 201.516,25.387 C202.505,25.454 202.472,23.967 201.516,23.865 C200.421,23.748 199.145,23.772 198.244,24.462 C197.967,24.676 197.907,25.251 198.356,25.324" id="Fill-46" fill="#362333"></path>
            <path d="M215.09,30.565 C216.132,30.445 217.113,30.049 218.11,29.735 C219.096,29.425 220.186,29.202 221.074,28.665 C221.367,28.488 221.252,28.003 220.896,28.01 C219.858,28.029 218.822,28.441 217.844,28.768 C216.853,29.098 215.808,29.391 214.927,29.965 C214.686,30.123 214.748,30.604 215.09,30.565" id="Fill-47" fill="#362333"></path>
            <path d="M207.442,22.88 C202.669,22.565 197.648,22.538 193.476,20.364 C191.447,19.308 189.627,17.622 189.238,15.495 C188.851,13.368 190.407,10.9 192.728,10.748 C193.206,10.717 193.726,10.77 194.126,10.525 C194.638,10.211 194.722,9.561 194.799,8.997 C195.317,5.212 198.501,1.395 202.613,1.488 C205.968,1.563 209.09,4.145 212.337,3.363 C213.337,3.123 214.214,2.58 215.13,2.138 C217.885,0.808 221.129,0.367 224.18,0.909 C227.399,1.48 230.813,4.02 230.025,6.97 C229.762,7.956 229.056,8.813 228.867,9.813 C228.195,13.382 233.881,15.161 235.005,18.631 C236.027,21.788 232.905,24.932 233.146,28.221 C233.278,30.048 234.345,32.197 232.953,33.497 C232.21,34.191 230.943,34.364 230.445,35.226 C229.767,36.399 231.029,37.732 231.141,39.06 C231.277,40.706 229.397,42.086 227.624,41.947 C225.85,41.807 224.375,40.497 223.677,38.978 C222.979,37.458 222.927,35.757 222.982,34.107 C225.986,33.263 227.835,28.313 225.008,27.048 C223.502,26.374 221.898,28.01 221.327,29.398 C218.344,24.663 213.581,22.88 207.442,22.88" id="Fill-48" fill="#2D283C"></path>
            <path d="M219.027283,41.6855627 C218.036283,42.5786898 217.043283,43.4718169 216.052283,44.3653353 C215.655283,44.7232903 215.233283,45.0941552 214.474283,45.3472665 C213.314283,45.7337797 211.618283,45.758817 210.124283,45.6402811 C208.630283,45.5221364 205.776283,45.2009549 204.258283,45.2518119 C200.789283,45.3680005 198.235283,46.0181877 198.014283,46.1821037 C197.569283,46.5138478 198.194283,47.0298507 198.207283,47.4046277 C198.222283,47.7981826 198.062283,48.2030826 197.544283,48.5403036 C197.198283,48.7660304 196.708283,48.9514628 196.247283,49.1435458 C195.015283,49.6564191 193.906283,50.2960436 194.006283,50.9986526 C194.144283,51.9594587 196.407283,52.630771 198.455283,53.1628135 C199.767283,53.5035553 201.126283,53.8521214 202.674283,53.9636156 C203.712283,54.0387274 204.780283,54.0023451 205.831283,53.9659628 C208.024283,53.8900685 210.235283,53.8126094 212.339283,53.5598893 C214.444283,53.3067779 216.460283,52.8619748 217.783283,52.1738405 C218.912283,51.5862465 219.464283,50.8640772 219.990283,50.1583385 C220.839283,49.0167945 221.678283,47.8596022 221.784283,46.6715045 C221.882283,45.5577363 221.333283,44.4529658 221.045283,43.3442832 C220.794283,42.3768266 220.742283,41.4015459 220.887283,40.4309597 C220.905283,40.312815 220.938283,40.0264509 220.492283,40.0018048 C219.997283,39.9744203 220.170283,40.26587 220.102283,40.3867532 C219.845283,40.8425101 219.503283,41.2560167 219.027283,41.6855627" id="Fill-49" fill="#2D283C"></path>
            <path d="M201.338,43.525 C200.867,44.544 201.109,45.848 201.914,46.63 C202.277,46.983 202.773,47.238 203.277,47.182 C203.78,47.125 204.25,46.677 204.209,46.172 C204.194,45.985 204.119,45.782 204.218,45.624 C204.314,45.469 204.524,45.444 204.706,45.434 C205.383,45.398 206.21,45.441 206.528,46.04 C206.625,46.222 206.658,46.435 206.768,46.609 C207.029,47.024 207.608,47.076 208.098,47.036 C208.802,46.978 209.498,46.823 210.16,46.577 C210.496,46.451 210.833,46.296 211.079,46.034 C211.324,45.772 211.462,45.383 211.339,45.045 C211.237,44.765 210.983,44.573 210.741,44.4 C208.619,42.893 203.045,39.832 201.338,43.525" id="Fill-50" fill="#E9C092"></path>
            <path d="M202.389,43.503 C203.504,44.205 205.841,44.243 206.915,43.428 C207.171,43.233 207.115,42.778 206.739,42.781 C206.035,42.785 205.354,43.062 204.641,43.098 C203.93,43.134 203.228,42.99 202.519,43.025 C202.265,43.037 202.169,43.365 202.389,43.503" id="Fill-51" fill="#362333"></path>
            <path d="M232.346,170.147 C232.346,170.147 230.932,130.555 239.771,127.939 C248.609,125.325 268.056,126.072 268.056,126.072 L269.823,133.169 C269.823,133.169 244.367,131.302 240.831,136.157 C237.296,141.013 240.831,170.521 240.831,170.521 L232.346,170.147" id="Fill-52" fill="#FFFFFE"></path>
            <path d="M161.128,111.834 L172.498,108.062 L182.564,110.61 C188.231,109.137 190.117,109.219 201.722,106.235 C211.521,103.716 222.771,98.69 222.771,98.69 L235.54,79.612 C240.937,80.104 247.845,91.087 247.845,91.087 C247.845,91.087 232.339,112.183 227.923,113.654 C223.508,115.126 189.826,119.032 178.478,117.73 C174.903,117.321 168.583,113.408 168.583,113.408 L162.851,114.751 L155.854,119.473 L154.633,118.462 L157.416,115.413 L161.128,111.834" id="Fill-53" fill="#E9C092"></path>
            <path d="M259.349,68.577 C259.188,77.045 247.574,92.862 247.574,92.862 C247.574,92.862 241.196,84.031 233.347,81.578 C233.347,81.578 239.479,69.559 239.97,64.652 C240.46,59.746 244.385,53.123 244.385,53.123 C244.385,53.123 259.594,55.576 259.349,68.577 Z" id="Fill-54" fill="url(#linearGradient-1)"></path>
            <path d="M138.65,120.891 L181.584,120.891 L181.584,117.186 L135.643,117.186 L135.643,117.883 C135.643,119.544 136.989,120.891 138.65,120.891" id="Fill-55" fill="#FFFFFE"></path>
            <polygon id="Fill-56" fill="#E1DAD9" points="161.982 119.512 177.296 119.512 177.296 118.363 161.982 118.363"></polygon>
            <polygon id="Fill-57" fill="#E1DAD9" points="157.42 119.512 159.685 119.512 159.685 118.363 157.42 118.363"></polygon>
            <polyline id="Fill-58" fill="#FFFFFE" points="65.491 105.336 63.429 90.136 64.171 87.371 65.828 89.688 67.736 105.185 65.491 105.336"></polyline>
            <polyline id="Fill-59" fill="#FFFFFE" points="75.492 106.334 77.651 91.147 79.119 88.689 80.082 91.37 77.693 106.8 75.492 106.334"></polyline>
            <polyline id="Fill-60" fill="#FFFFFE" points="68.524 107.511 68.711 91.951 70.039 89.497 71.18 91.992 70.966 107.532 68.524 107.511"></polyline>
            <polyline id="Fill-61" fill="url(#linearGradient-3)" points="77.764 122.526 66 122.526 63.867 103.02 79.318 103.02 77.764 122.526"></polyline>
            <polygon id="Fill-66" fill="#00004C" points="68.713 131.92 217.699 131.92 217.699 125.742 68.713 125.742"></polygon>
            <polygon id="Fill-67" fill="#00004C" points="20.938 131.92 158.329 131.92 158.329 125.742 20.938 125.742"></polygon>
            <polygon id="Fill-68" fill="#00004C" points="72.026 128.842 231.369 128.842 231.369 120.575 72.026 120.575"></polygon>
            <polygon id="Fill-69" fill="#171775" points="0.047 128.842 147.795 128.842 147.795 120.575 0.047 120.575"></polygon>
        </g>
        <g id="apple" transform="translate(217.000000, 145.000000) rotate(2.000000) translate(-217.000000, -145.000000) translate(212.000000, 140.000000)" fill="#CCD0D2" fill-rule="nonzero">
            <path d="M6.87287193,1.51980339 C7.35511152,1.11697385 7.68129362,0.557698006 7.59201116,0 C6.89726965,0.0193456963 6.05526264,0.318209263 5.55658207,0.721004495 C5.10955433,1.07759644 4.71817977,1.64750556 4.82262838,2.19426159 C5.59786037,2.23518254 6.38984108,1.9219812 6.87287193,1.51980339 Z M8.35242869,5.37127768 C8.33761422,4.12097631 9.62106607,3.52047081 9.67790616,3.49145226 C8.95634914,2.64240258 7.83260343,2.5262255 7.43239294,2.51312257 C6.47551883,2.43474506 5.56664888,2.96527676 5.08084855,2.96527676 C4.59702641,2.96527676 3.84865388,2.52341283 3.05504667,2.53528093 C2.01174749,2.54869258 1.05043343,3.02273074 0.514606793,3.77402291 C-0.56917941,5.28542258 0.236824485,7.52434391 1.29291598,8.75029166 C1.80918049,9.35045416 2.42387111,10.0237118 3.23106192,9.9993582 C4.0102503,9.97500458 4.30399004,9.59498513 5.24407148,9.59498513 C6.18454856,9.59498513 6.44786808,9.9993582 7.27066464,9.98718139 C8.10788003,9.97500458 8.63772813,9.3754595 9.14959665,8.77341045 C9.74186775,8.077377 9.98602077,7.40350191 10,7.36947544 C9.98202042,7.36134613 8.36961699,6.86641874 8.35242869,5.37127768 Z" id="Shape"></path>
        </g>
    </g>
</svg>