<?xml version="1.0" encoding="UTF-8"?>
<svg width="100%" height="100%" viewBox="0 0 1344 1167" version="1.1" xmlns="http://www.w3.org/2000/svg" xmlns:xlink="http://www.w3.org/1999/xlink">
    <!-- Generator: Sketch 49.1 (51147) - http://www.bohemiancoding.com/sketch -->
    <title>front-end 2</title>
    <desc>Created with Sketch.</desc>
    <defs>
        <linearGradient x1="49.9914162%" y1="100.005755%" x2="49.9914162%" y2="-0.0122493752%" id="linearGradient-1">
            <stop stop-color="#808080" stop-opacity="0.25" offset="0%"></stop>
            <stop stop-color="#808080" stop-opacity="0.12" offset="54%"></stop>
            <stop stop-color="#808080" stop-opacity="0.1" offset="100%"></stop>
        </linearGradient>
        <linearGradient x1="50%" y1="0%" x2="50%" y2="100%" id="linearGradient-2">
            <stop stop-color="#FFD500" offset="0%"></stop>
            <stop stop-color="#FFAB00" offset="100%"></stop>
        </linearGradient>
        <linearGradient x1="50%" y1="0%" x2="50%" y2="100%" id="linearGradient-3">
            <stop stop-color="#000083" offset="0%"></stop>
            <stop stop-color="#00004C" offset="100%"></stop>
        </linearGradient>
    </defs>
    <g id="Page-1" stroke="none" stroke-width="1" fill="none" fill-rule="evenodd">
        <path d="M760.90933,1158.75069 C1142.24651,1158.75069 1465.19082,909.800348 1299.47752,651.797265 C1201.02855,498.519641 985.415836,415.306942 871.384856,294.214043 C745.263431,160.281939 643.559968,0 443.292189,0 C61.955009,0 42.8184033,172.713997 42.8184033,547.690756 C42.8184033,730.335849 -81.4665645,1000.32775 93.45302,1099.90788 C268.372605,1199.48802 565.315301,1158.75069 760.90933,1158.75069 Z" id="Oval" fill="url(#linearGradient-3)" fill-rule="nonzero" transform="translate(672.000000, 583.500000) scale(-1, 1) translate(-672.000000, -583.500000) "></path>
        <g id="back-end" transform="translate(378.000000, 355.000000)" fill-rule="nonzero">
            <ellipse id="Oval" fill="#FFFFFF" cx="218.87" cy="621.89" rx="218" ry="15.5"></ellipse>
            <path d="M345.16,537.5 C348.16,532.11 351.75,527.03 354.65,521.57 C357.3,516.57 359.37,511.27 361.76,506.13 C365.85,497.33 370.89,489.01 375.48,480.45 C378.48,474.84 381.38,468.73 380.8,462.39 C380.25,456.39 376.73,451.19 375.37,445.39 C369.83,421.58 356.5,399.72 348.37,376.69 C346.29,370.85 344.27,364.97 341.67,359.33 C336.67,348.48 329.67,338.73 322.67,329.06 C320.147495,325.36556 317.338867,321.874838 314.27,318.62 C311.76,316.11 308.94,313.9 306.66,311.18 C301.96,305.58 299.76,297.52 293.88,293.18 C293.78,293.44 293.67,293.69 293.56,293.95 C289.35,283.2 275.23,276.11 267.04,267.2 C262.272191,261.758508 257.885128,255.994849 253.91,249.95 L236.08,224.18 C233.01,219.74 229.88,215.18 228.64,209.89 C227.12,203.51 228.53,196.71 227.03,190.33 C226.070824,186.489429 224.201536,182.936067 221.58,179.97 C221.75,179.92 221.93,179.85 222.11,179.81 C225.51,178.9 229.11,178.74 232.48,177.93 C239.83,176.18 246.22,171.48 253.54,169.6 C257.28,168.6 261.27,168.4 264.66,166.6 C268.03976,164.577662 269.766076,160.635239 268.96,156.78 C266.59,144.23 273.21,131.51 272.09,118.78 C271.79,115.26 270.89,111.83 270.31,108.34 C268.96,100.24 269.21,91.94 269.69,83.72 C271.972174,80.01567 274.710237,76.612409 277.84,73.59 C282.34,69.25 287.71,65.59 290.84,60.16 C293.57,55.35 294.23,49.54 293.54,44.04 C293.05,40.04 291.69,35.83 288.54,33.4 C285.39,30.97 280.87,30.79 277.06,32.06 C276.53,32.23 276.01,32.44 275.5,32.66 C272.28178,31.049269 268.542925,30.832314 265.16,32.06 C261.36,33.32 258.1,35.83 255.04,38.44 C253.226343,39.862197 251.635435,41.547481 250.32,43.44 C248.39,46.44 247.83,50.14 247.1,53.67 C245.547741,60.48442 243.285377,67.117336 240.35,73.46 C239.81,74.58 238.35,76.59 237.17,78.51 L235.03,78.07 C234.1,86.98 226.64,93.52 222.1,101.22 C219.89,104.96 218.34,109.05 216.35,112.92 C214.079312,117.132747 211.544244,121.19754 208.76,125.09 C206.06,129.09 203.356667,133.053333 200.65,136.98 C197.257833,142.137167 193.585663,147.104611 189.65,151.86 C185.98,151.56 182.31,151.29 178.65,151.23 C172.506843,151.141957 166.371002,151.688184 160.34,152.86 C159.988452,150.739168 159.771352,148.598231 159.69,146.45 C159.69,146.32 159.69,146.19 159.69,146.06 C159.69,145.54 159.75,144.92 159.82,144.25 C170.38458,137.175007 176.576375,125.171066 176.217011,112.461355 C175.857647,99.751645 168.99747,88.116745 158.05,81.65 C158.248654,80.525874 158.375577,79.390246 158.43,78.25 C158.43,77.58 158.43,76.9 158.43,76.25 C158.43,75.91 158.43,75.57 158.36,75.25 C158.298062,74.575609 158.184394,73.906974 158.02,73.25 C157.94,72.93 157.85,72.61 157.74,72.25 C157.527198,71.622563 157.249001,71.019245 156.91,70.45 C156.889065,70.415051 156.865672,70.381633 156.84,70.35 C156.71,70.14 156.58,69.93 156.43,69.73 C156.28,69.53 156.3,69.57 156.24,69.49 C156.134677,69.343701 156.021162,69.203477 155.9,69.07 L155.65,68.81 C155.54,68.69 155.43,68.57 155.31,68.46 L155.03,68.21 L154.68,67.9 L154.36,67.66 L154,67.39 L153.65,67.16 L153.29,66.93 C153.17,66.85 153.04,66.78 152.91,66.71 L152.54,66.5 L152.14,66.3 L151.77,66.12 L151.33,65.93 L150.97,65.77 L150.49,65.59 L150.15,65.46 L149.63,65.28 L149.32,65.18 L148.75,65 L148.48,64.92 L147.86,64.75 L147.62,64.68 L146.97,64.52 L146.78,64.47 L146.06,64.31 L145.94,64.31 L144.88,64.08 C140.5,63.18 136.093333,62.403333 131.66,61.75 C128.03,61.21 124.31,60.75 120.73,61.56 C115.79,62.66 111.67,66 107.05,68.07 C101.59,70.53 95.53,71.18 89.71,72.53 C83.89,73.88 77.9,76.19 74.25,80.96 C71.47,84.6 70.36,89.23 69.53,93.74 C62.61,131.38 70.07,169.99 71.48,208.25 C72.03,223.14 71.36,239.06 62.92,251.25 L87.5,250.6 C88.68,250.6 89.87,250.53 91.07,250.46 C92.27,250.39 93.47,250.3 94.65,250.16 C97.767308,249.867793 100.79572,248.960289 103.56,247.49 C104.840081,246.760942 106.008701,245.85164 107.03,244.79 C110.37,241.35 112.15,236.54 113.78,231.94 C114.33,230.39 114.88,228.82 115.37,227.24 C115.57,226.58 115.76,225.92 115.93,225.24 L116.01,224.92 L116.29,225.05 C117.29,226.93 118.42,228.77 119.62,230.55 C123.91,236.87 129.35,242.27 134.75,247.64 C145.48,258.29 156.45,269.13 169.9,275.97 C174.44,278.26 179.35,280.19 182.81,283.97 C184.51,285.8 185.98,288.15 188.39,288.78 C189.89,289.17 191.54,288.78 192.97,289.42 C195.07,290.3 195.84,292.83 196.81,294.91 C197.78,296.99 199.97,299.11 202.05,298.16 C201.254593,302.10023 202.776291,306.149034 205.97,308.59 C206.97737,309.149294 207.845588,309.928639 208.51,310.87 C208.830245,311.728459 209.00596,312.634069 209.03,313.55 C209.457382,316.10394 210.805691,318.412786 212.82,320.04 C210.87,323.27 212.43,327.9 212.48,331.93 C212.48,335.31 211.37,338.57 210.61,341.86 C208.4,351.51 209.61,361.61 211.41,371.34 C212.41,376.71 213.68,382.27 217.18,386.44 C218.32,387.79 219.68,388.96 220.88,390.27 C223.170686,392.850988 225.073928,395.751327 226.53,398.88 C229.564922,405.074964 231.632265,411.698556 232.66,418.52 C233.143094,421.942819 234.119922,425.277509 235.56,428.42 C237.75,433.2 235.75,439.08 237.71,443.96 C238.6,446.15 240.24,448.02 240.77,450.31 C241.52,453.64 239.77,456.97 239.3,460.36 C238.16,468.3 243.89,475.67 244.41,483.67 C244.495161,484.139282 244.394773,484.623297 244.13,485.02 C243.74,485.46 243.07,485.45 242.54,485.7 C241.54,486.18 241.27,487.53 240.95,488.65 C240.63,489.77 239.73,491.04 238.62,490.7 C222.19,499.49 205.18,507.61 188.75,516.4 L181.25,520.4 L141.14,541.83 C140.146356,542.323473 139.521328,543.3406 139.53,544.45 C139.53,544.93 139.59,545.45 139.63,545.9 C136.82,546.6 134.12,547.44 132.2,547.79 C131.41,547.94 130.62,548.09 129.84,548.26 C130.029727,547.95605 130.152457,547.615136 130.2,547.26 C130.206769,546.239353 129.443901,545.377355 128.43,545.26 C127.450267,545.163047 126.461368,545.293075 125.54,545.64 C123.247212,546.266598 120.905532,546.698137 118.54,546.93 C115.73,547.2 112.87,547.19 110.15,547.93 C107.43,548.67 104.75,550.32 103.65,552.93 C103.099665,554.440095 102.854925,556.044504 102.93,557.65 C102.869088,563.83142 103.601739,569.995101 105.11,575.99 C105.158382,576.472221 105.428136,576.904567 105.84,577.16 C106.19,577.3 106.61,577.16 106.96,577.32 C107.26807,577.506451 107.498784,577.797506 107.61,578.14 C109.29,581.96 109.68,586.22 110.13,590.38 C110.796667,596.546667 111.64,602.696667 112.66,608.83 C113.26,612.41 114,616.15 116.33,618.91 C118.89,621.91 122.94,623.24 126.85,623.77 C135.1,624.88 143.43,623.21 151.57,621.5 C153.09,621.18 154.72,620.79 155.74,619.61 C156.485828,618.668158 156.843559,617.476913 156.74,616.28 C156.55,612.17 152.81,609.28 149.41,606.97 L144.77,603.76 C143.955424,603.327371 143.542338,602.393796 143.77,601.5 L144.07,595.43 L143.17,595.43 C144.17,591.15 145.78,587.04 148.93,584.1 C151.1,582.1 153.93,580.7 156.2,578.88 C159.11242,581.11943 162.640357,582.414054 166.31,582.59 C172.31,574.51 180.76,569.01 189.21,563.59 C196.073194,559.254532 203.166994,555.295358 210.46,551.73 C216.366667,548.81 222.366667,546.073333 228.46,543.52 C237.06,539.9 245.82,536.67 254.59,533.52 C260.44,531.42 266.34,529.35 271.73,526.25 C285.73,518.16 295.62,502.01 293.73,485.84 C291.35,465.44 296.44,444.18 296.1,423.64 C296,417.64 295.78,411.64 293.96,405.89 C294.383371,406.190197 294.781376,406.524654 295.15,406.89 C298.79,410.29 299.67,415.69 303.15,419.57 C305.86,422.62 309.98,424.57 311.62,428.29 C312.87,431.14 312.69,434.99 315.3,436.63 C316.04,437.1 316.92,437.3 317.66,437.76 C318.545289,438.390906 319.29084,439.197735 319.85,440.13 C322.62,444.08 325.49,448.31 325.79,453.13 C325.92,455.04 325.74,457.25 327.14,458.54 C327.54,458.91 328.05,459.18 328.26,459.68 C328.7,460.68 327.54,461.74 327.34,462.85 C327.05,464.39 328.57,465.56 329.51,466.85 C331.119309,469.057867 331.119309,472.052133 329.51,474.26 C321.31,484.91 319.83,499.26 312.66,510.65 C310.18,514.58 307.42,518.3 305.02,522.28 C297.64,534.5 293.91,548.54 290.29,562.37 C291.836522,565.062446 293.931841,567.399663 296.44,569.23 C295.08506,573.886976 292.749456,578.200173 289.59,581.88 C288.783583,582.77969 288.02903,583.724552 287.33,584.71 C286.743545,583.967509 285.975464,583.388865 285.1,583.03 C283.784975,588.770867 283.114164,594.640463 283.1,600.53 C283.1,604.41 283.63,608.84 286.78,611.08 C288.037178,611.872072 289.420396,612.443621 290.87,612.77 L297.73,614.77 C298.93689,615.232692 300.24641,615.360535 301.52,615.14 C302.33,614.91 303.05,614.41 303.88,614.25 C304.78184,614.156796 305.692965,614.276681 306.54,614.6 L312.47,616.33 C314.475038,616.863826 316.434528,617.556 318.33,618.4 C320.02,619.21 321.58,620.26 323.24,621.16 C326.000548,622.554923 328.865949,623.731844 331.81,624.68 L342.03,628.2 C344.877355,629.328584 347.853224,630.101101 350.89,630.5 C352.99,630.68 355.12,630.5 357.19,630.86 C358.77,631.13 360.3,631.7 361.89,631.86 C364.528662,631.938411 367.122736,631.1672 369.29,629.66 C370.136595,629.181884 370.867291,628.522892 371.43,627.73 C372.93,625.39 371.64,622.3 370.18,619.94 C367.47,615.56 364.08,611.46 359.61,608.94 C357.8,607.94 355.84,607.2 353.97,606.28 C348.65,603.68 344.64,599.34 339.61,596.37 C338.287479,595.42834 336.484451,595.549658 335.3,596.66 C331.12,593.95 326.6,591.3 324.3,586.89 C323.275318,584.761947 322.600007,582.482772 322.3,580.14 C324.65,580.7 327.02,581.14 329.41,581.53 C333.3,566.45 337.55,551.1 345.16,537.5 Z M249.09,111.01 C248.89,112.14 248.67,113.26 248.43,114.38 C246.43,123.77 243.57,134.29 237.03,141.28 C234.87889,143.328922 232.379812,144.978043 229.65,146.15 L228.92,146.51 C233.63,133.93 241.13,122.27 249.09,111.01 Z" id="Shape" fill="url(#linearGradient-1)"></path>
            <path d="M258.77,55.31 C259.51,51.82 260.07,48.16 262,45.15 C263.319411,43.257521 264.913602,41.572329 266.73,40.15 C269.79,37.56 273.06,35.07 276.87,33.81 C280.68,32.55 285.16,32.72 288.36,35.14 C291.56,37.56 292.91,41.73 293.41,45.71 C294.09,51.18 293.41,56.94 290.7,61.71 C287.6,67.12 282.22,70.71 277.7,75.05 C274.425353,78.182929 271.577538,81.733452 269.23,85.61 C268.161706,87.630495 266.866688,89.522697 265.37,91.25 C263.830868,92.992645 261.556254,93.901748 259.24,93.7 C257.31,93.39 255.74,92.05 254.24,90.77 C252.39,89.15 247.41,86.26 247.24,83.69 C247.12,81.61 251.01,76.89 251.96,74.94 C254.915572,68.654997 257.198264,62.075081 258.77,55.31 Z" id="Shape" fill="#FBBEBE"></path>
            <path d="M258.77,55.31 C259.51,51.82 260.07,48.16 262,45.15 C263.319411,43.257521 264.913602,41.572329 266.73,40.15 C269.79,37.56 273.06,35.07 276.87,33.81 C280.68,32.55 285.16,32.72 288.36,35.14 C291.56,37.56 292.91,41.73 293.41,45.71 C294.09,51.18 293.41,56.94 290.7,61.71 C287.6,67.12 282.22,70.71 277.7,75.05 C274.425353,78.182929 271.577538,81.733452 269.23,85.61 C268.161706,87.630495 266.866688,89.522697 265.37,91.25 C263.830868,92.992645 261.556254,93.901748 259.24,93.7 C257.31,93.39 255.74,92.05 254.24,90.77 C252.39,89.15 247.41,86.26 247.24,83.69 C247.12,81.61 251.01,76.89 251.96,74.94 C254.915572,68.654997 257.198264,62.075081 258.77,55.31 Z" id="Shape" fill="#000000" opacity="0.1"></path>
            <path d="M153.77,155.26 C161.782035,153.129498 170.050723,152.11989 178.34,152.26 C192.17,152.46 206.41,155.81 219.58,151.57 C222.979871,150.390776 226.285922,148.956706 229.47,147.28 C232.12,145.96 234.82,144.6 236.85,142.44 C243.4,135.5 246.22,125.05 248.27,115.72 C250.32,106.39 250.85,96.81 251.38,87.28 C254.79,88.87 258.38,90.44 262.16,90.12 C265.94,89.8 269.71,86.92 269.69,83.12 C269.13,91.95 268.69,100.89 270.18,109.61 C270.76,113.07 271.66,116.48 271.97,119.98 C273.09,132.62 266.46,145.25 268.83,157.72 C269.632235,161.555461 267.903176,165.476002 264.53,167.47 C261.13,169.3 257.13,169.53 253.39,170.47 C246.06,172.34 239.66,177 232.3,178.74 C228.87,179.55 225.3,179.74 221.92,180.61 C217.06,181.89 212.65,184.67 207.7,185.55 C203.99,186.21 200.17,185.76 196.42,186.08 C193.16,186.35 189.96,187.21 186.69,187.29 C178.69,187.49 171.12,182.96 165.8,176.95 C160.48,170.94 157.11,162.54 153.77,155.26 Z" id="Shape" fill="#00004C"></path>
            <path d="M153.77,155.26 C161.782035,153.129498 170.050723,152.11989 178.34,152.26 C192.17,152.46 206.41,155.81 219.58,151.57 C222.979871,150.390776 226.285922,148.956706 229.47,147.28 C232.12,145.96 234.82,144.6 236.85,142.44 C243.4,135.5 246.22,125.05 248.27,115.72 C250.32,106.39 250.85,96.81 251.38,87.28 C254.79,88.87 258.38,90.44 262.16,90.12 C265.94,89.8 269.71,86.92 269.69,83.12 C269.13,91.95 268.69,100.89 270.18,109.61 C270.76,113.07 271.66,116.48 271.97,119.98 C273.09,132.62 266.46,145.25 268.83,157.72 C269.632235,161.555461 267.903176,165.476002 264.53,167.47 C261.13,169.3 257.13,169.53 253.39,170.47 C246.06,172.34 239.66,177 232.3,178.74 C228.87,179.55 225.3,179.74 221.92,180.61 C217.06,181.89 212.65,184.67 207.7,185.55 C203.99,186.21 200.17,185.76 196.42,186.08 C193.16,186.35 189.96,187.21 186.69,187.29 C178.69,187.49 171.12,182.96 165.8,176.95 C160.48,170.94 157.11,162.54 153.77,155.26 Z" id="Shape" fill="#000000" opacity="0.1"></path>
            <path d="M513.4,167.55 C541.244091,167.55 566.346285,184.32341 577.000823,210.048383 C587.655361,235.773355 581.76387,265.383451 562.073694,285.070766 C542.383519,304.758082 512.772567,310.645271 487.049143,299.986996 C461.325718,289.328722 444.555955,264.224091 444.56,236.38 C444.565522,198.364623 475.384623,167.55 513.4,167.55 Z M513.4,150.55 C478.680051,150.55 447.37904,171.465327 434.093225,203.542764 C420.80741,235.620202 428.153349,272.5423 452.70549,297.091582 C477.257632,321.640863 514.180586,328.9825 546.256476,315.692949 C578.332365,302.403397 599.244045,271.099949 599.24,236.38 C599.184884,188.996345 560.783661,150.599596 513.4,150.55 Z" id="Shape" fill="#FFFFFF"></path>
            <rect id="Rectangle-path" fill="#FFFFFF" x="500.69" y="130.47" width="20.12" height="21.18"></rect>
            <rect id="Rectangle-path" fill="#FFFFFF" transform="translate(559.865872, 153.320028) rotate(31.000000) translate(-559.865872, -153.320028) " x="549.805872" y="142.730028" width="20.12" height="21.18"></rect>
            <rect id="Rectangle-path" fill="#FFFFFF" transform="translate(595.171977, 187.677029) rotate(61.000000) translate(-595.171977, -187.677029) " x="585.111977" y="177.087029" width="20.12" height="21.18"></rect>
            <rect id="Rectangle-path" fill="#FFFFFF" transform="translate(595.643205, 284.295519) rotate(122.000000) translate(-595.643205, -284.295519) " x="585.583205" y="273.705519" width="20.12" height="21.18"></rect>
            <rect id="Rectangle-path" fill="#FFFFFF" transform="translate(431.634221, 187.670344) rotate(119.000000) translate(-431.634221, -187.670344) " x="421.574221" y="177.080344" width="20.12" height="21.18"></rect>
            <rect id="Rectangle-path" fill="#FFFFFF" transform="translate(431.165623, 284.287739) rotate(58.000000) translate(-431.165623, -284.287739) " x="421.105623" y="273.697739" width="20.12" height="21.18"></rect>
            <rect id="Rectangle-path" fill="#FFFFFF" transform="translate(466.929681, 153.318570) rotate(149.000000) translate(-466.929681, -153.318570) " x="456.869681" y="142.72857" width="20.12" height="21.18"></rect>
            <rect id="Rectangle-path" fill="#FFFFFF" x="500.69" y="321.11" width="20.12" height="21.18"></rect>
            <rect id="Rectangle-path" fill="#FFFFFF" transform="translate(559.868723, 319.444995) rotate(-31.000000) translate(-559.868723, -319.444995) " x="549.808723" y="308.854995" width="20.12" height="21.18"></rect>
            <rect id="Rectangle-path" fill="#FFFFFF" transform="translate(466.932533, 319.446407) rotate(-149.000000) translate(-466.932533, -319.446407) " x="456.872533" y="308.856407" width="20.12" height="21.18"></rect>
            <rect id="Rectangle-path" fill="#FFFFFF" x="405.38" y="227.91" width="24.36" height="18"></rect>
            <rect id="Rectangle-path" fill="#FFFFFF" transform="translate(609.240000, 236.910000) rotate(-180.000000) translate(-609.240000, -236.910000) " x="597.06" y="227.91" width="24.36" height="18"></rect>
            <path d="M673.32,43.64 C701.164091,43.64 726.266285,60.41341 736.920823,86.138383 C747.575361,111.863355 741.68387,141.473451 721.993694,161.160766 C702.303519,180.848082 672.692567,186.735271 646.969143,176.076996 C621.245718,165.418722 604.475955,140.314091 604.48,112.47 C604.485522,74.454623 635.304623,43.64 673.32,43.64 Z M673.32,26.64 C638.600051,26.64 607.29904,47.555327 594.013225,79.632764 C580.72741,111.710202 588.073349,148.6323 612.62549,173.181582 C637.177632,197.730863 674.100586,205.0725 706.176476,191.782949 C738.252365,178.493397 759.164045,147.189949 759.16,112.47 C759.104884,65.086345 720.703661,26.689596 673.32,26.64 Z" id="Shape" fill="#FFFFFF"></path>
            <rect id="Rectangle-path" fill="#FFFFFF" x="660.61" y="6.57" width="20.12" height="21.18"></rect>
            <rect id="Rectangle-path" fill="#FFFFFF" transform="translate(719.792434, 29.403316) rotate(31.000000) translate(-719.792434, -29.403316) " x="709.732434" y="18.813316" width="20.12" height="21.18"></rect>
            <rect id="Rectangle-path" fill="#FFFFFF" transform="translate(755.096860, 63.763453) rotate(61.000000) translate(-755.096860, -63.763453) " x="745.03686" y="53.173453" width="20.12" height="21.18"></rect>
            <rect id="Rectangle-path" fill="#FFFFFF" transform="translate(755.560155, 160.387667) rotate(122.000000) translate(-755.560155, -160.387667) " x="745.500155" y="149.797667" width="20.12" height="21.18"></rect>
            <rect id="Rectangle-path" fill="#FFFFFF" transform="translate(591.547594, 63.772287) rotate(119.000000) translate(-591.547594, -63.772287) " x="581.487594" y="53.182287" width="20.12" height="21.18"></rect>
            <rect id="Rectangle-path" fill="#FFFFFF" transform="translate(591.081952, 160.385295) rotate(58.000000) translate(-591.081952, -160.385295) " x="581.021952" y="149.795295" width="20.12" height="21.18"></rect>
            <rect id="Rectangle-path" fill="#FFFFFF" transform="translate(626.849854, 29.405059) rotate(149.000000) translate(-626.849854, -29.405059) " x="616.789854" y="18.815059" width="20.12" height="21.18"></rect>
            <rect id="Rectangle-path" fill="#FFFFFF" x="660.61" y="197.2" width="20.12" height="21.18"></rect>
            <rect id="Rectangle-path" fill="#FFFFFF" transform="translate(719.788550, 195.538506) rotate(-31.000000) translate(-719.788550, -195.538506) " x="709.72855" y="184.948506" width="20.12" height="21.18"></rect>
            <rect id="Rectangle-path" fill="#FFFFFF" transform="translate(626.845970, 195.533119) rotate(-149.000000) translate(-626.845970, -195.533119) " x="616.78597" y="184.943119" width="20.12" height="21.18"></rect>
            <rect id="Rectangle-path" fill="#FFFFFF" x="565.29" y="104" width="24.36" height="18"></rect>
            <rect id="Rectangle-path" fill="#FFFFFF" transform="translate(769.170000, 113.000000) rotate(-180.000000) translate(-769.170000, -113.000000) " x="756.99" y="104" width="24.36" height="18"></rect>
            <path d="M353.44,38.34 C354.25,38.34 355.06,38.34 355.87,38.34 C393.408768,39.620243 422.992132,70.755006 422.353661,108.310171 C421.71519,145.865337 391.090592,175.976512 353.53,175.98 C352.72,175.98 351.91,175.98 351.09,175.98 C313.54929,174.699688 283.965199,143.561892 284.60643,106.00483 C285.247662,68.447767 315.877464,38.338035 353.44,38.34 Z M353.44,21.34 C306.600921,21.334216 268.404222,58.877578 267.601992,105.709787 C266.799762,152.541995 303.688203,191.371556 350.5,192.97 C351.5,192.97 352.5,193.02 353.5,193.02 C400.337126,193.020317 438.528606,155.475516 439.328074,108.645213 C440.127543,61.814911 403.239844,22.988388 356.43,21.39 C355.43,21.39 354.43,21.34 353.43,21.34 L353.44,21.34 Z" id="Shape" fill="#FFFFFF"></path>
            <rect id="Rectangle-path" fill="#FFFFFF" transform="translate(354.130284, 11.841911) rotate(1.990000) translate(-354.130284, -11.841911) " x="344.070284" y="1.2519113" width="20.12" height="21.18"></rect>
            <rect id="Rectangle-path" fill="#FFFFFF" transform="translate(402.783385, 25.784911) rotate(32.990000) translate(-402.783385, -25.784911) " x="392.723385" y="15.194911" width="20.12" height="21.18"></rect>
            <rect id="Rectangle-path" fill="#FFFFFF" transform="translate(436.881515, 61.345866) rotate(62.990000) translate(-436.881515, -61.345866) " x="426.821515" y="50.755866" width="20.12" height="21.18"></rect>
            <rect id="Rectangle-path" fill="#FFFFFF" transform="translate(434.010894, 157.894884) rotate(123.990000) translate(-434.010894, -157.894884) " x="423.950894" y="147.304884" width="20.12" height="21.18"></rect>
            <rect id="Rectangle-path" fill="#FFFFFF" transform="translate(273.439424, 55.652998) rotate(120.990000) translate(-273.439424, -55.652998) " x="263.379424" y="45.062998" width="20.12" height="21.18"></rect>
            <rect id="Rectangle-path" fill="#FFFFFF" transform="translate(268.171300, 153.813200) rotate(60.113473) translate(-268.171300, -153.813200) " x="258.076653" y="143.186727" width="20.1892947" height="21.2529454"></rect>
            <rect id="Rectangle-path" fill="#FFFFFF" transform="translate(309.930757, 22.532347) rotate(150.990000) translate(-309.930757, -22.532347) " x="299.870757" y="11.942347" width="20.12" height="21.18"></rect>
            <rect id="Rectangle-path" fill="#FFFFFF" transform="translate(347.518798, 202.347483) rotate(1.990000) translate(-347.518798, -202.347483) " x="337.458798" y="191.757483" width="20.12" height="21.18"></rect>
            <rect id="Rectangle-path" fill="#FFFFFF" transform="translate(397.043451, 191.821549) rotate(-29.010000) translate(-397.043451, -191.821549) " x="386.983451" y="181.231549" width="20.12" height="21.18"></rect>
            <rect id="Rectangle-path" fill="#FFFFFF" transform="translate(304.175859, 188.572802) rotate(-147.010000) translate(-304.175859, -188.572802) " x="294.115859" y="177.982802" width="20.12" height="21.18"></rect>
            <rect id="Rectangle-path" fill="#FFFFFF" transform="translate(257.674654, 104.386514) rotate(1.990000) translate(-257.674654, -104.386514) " x="245.494654" y="95.386514" width="24.36" height="18"></rect>
            <rect id="Rectangle-path" fill="#FFFFFF" transform="translate(449.261803, 111.015215) rotate(-178.010000) translate(-449.261803, -111.015215) " x="437.081803" y="102.015215" width="24.36" height="18"></rect>
            <path d="M131.77,546.11 C129.292579,546.41237 126.890445,547.161131 124.68,548.32 C121.68,550.15 119.83,553.38 118.51,556.64 C115.2,564.82 114.51,573.8 114.37,582.64 C114.25,589.76 114.49,597.05 117.04,603.69 C117.739421,605.791989 118.952813,607.685981 120.57,609.2 C121.992599,610.31889 123.640209,611.117111 125.4,611.54 C129.2,612.54 133.61,612.54 136.72,610.14 C140.18,607.43 141.05,602.66 141.78,598.33 C142.78,592.49 144.17,586.33 148.51,582.26 C151.73,579.26 156.34,577.76 158.68,574.04 C161.47,569.62 160,563.85 158.22,558.93 C156.67,554.67 154.4,546.02 149.94,543.84 C145.48,541.66 136.41,545.27 131.77,546.11 Z" id="Shape" fill="#FBBEBE"></path>
            <path d="M296.24,567.06 C294.891789,571.828732 292.50084,576.238325 289.24,579.97 C287.24,582.25 284.79,585.02 285.84,587.85 C286.267049,588.808031 286.902488,589.6587 287.7,590.34 C302.36,604.69 322.87,611.67 343.22,614.21 C343.547418,614.298809 343.892582,614.298809 344.22,614.21 C344.82,613.94 344.96,613.21 345.04,612.54 C345.364953,610.419041 345.364953,608.260959 345.04,606.14 C344.04,601.14 339.69,597.67 335.43,594.93 C331.17,592.19 326.51,589.53 324.13,585.06 C321.13,579.5 322.42,572.26 318.89,567.06 C316.03,562.83 310.72,561.06 305.68,560.23 C303.93,559.96 300.21,558.04 298.68,558.93 C297.12,559.83 296.77,565.32 296.24,567.06 Z" id="Shape" fill="#FBBEBE"></path>
            <path d="M129.77,545.59 C129.776769,544.569353 129.013901,543.707355 128,543.59 C127.021032,543.489499 126.032074,543.616113 125.11,543.96 C122.816814,544.582756 120.475177,545.010941 118.11,545.24 C115.3,545.51 112.43,545.5 109.7,546.24 C106.97,546.98 104.3,548.61 103.19,551.24 C102.650094,552.742349 102.405612,554.334881 102.47,555.93 C102.413489,562.068329 103.146158,568.188467 104.65,574.14 C104.703587,574.623057 104.976512,575.054573 105.39,575.31 C105.74,575.45 106.16,575.31 106.51,575.47 C106.817397,575.65262 107.04829,575.940348 107.16,576.28 C108.85,580.08 109.24,584.28 109.69,588.44 C110.356667,594.566667 111.2,600.673333 112.22,606.76 C112.82,610.31 113.56,614.04 115.9,616.76 C118.46,619.76 122.52,621.05 126.43,621.58 C134.69,622.68 143.03,621.02 151.19,619.32 C152.745814,619.164635 154.20915,618.508414 155.36,617.45 C156.105487,616.51574 156.463491,615.330749 156.36,614.14 C156.17,610.06 152.42,607.14 149.02,604.9 L144.34,601.75 C144.013487,601.569548 143.732906,601.316341 143.52,601.01 C143.298183,600.543285 143.218212,600.021734 143.29,599.51 L143.59,593.51 C137.255944,593.610483 131.491141,597.188504 128.59,602.82 C127.94,604.11 127.33,605.62 125.98,606.12 C124.31,606.75 122.45,605.34 121.89,603.65 C121.500517,601.904875 121.552071,600.090198 122.04,598.37 C124.78,583.69 124.14,568.6 125.81,553.76 C125.913224,552.094757 126.424959,550.480561 127.3,549.06 C128.11,547.94 129.62,546.96 129.77,545.59 Z" id="Shape" fill="#00004C"></path>
            <path d="M334.01,602.51 C334.7,603.65 335.77,604.51 336.41,605.69 C337.05,606.87 337.04,608.59 335.89,609.26 C335.211168,609.5591 334.455195,609.636098 333.73,609.48 C319.047536,607.657681 305.26363,601.423018 294.2,591.6 C292.363062,590.047544 290.736056,588.262544 289.36,586.29 C288.07,584.29 286.98,581.94 284.78,581.12 C283.465108,586.820247 282.794241,592.650081 282.78,598.5 C282.78,602.35 283.31,606.75 286.46,608.98 C287.722645,609.764025 289.108892,610.328668 290.56,610.65 L297.43,612.59 C298.641524,613.047783 299.952922,613.175471 301.23,612.96 C302.04,612.74 302.76,612.23 303.59,612.08 C304.494333,611.983897 305.408613,612.100322 306.26,612.42 L312.19,614.15 C314.196364,614.660768 316.159159,615.329523 318.06,616.15 C319.75,616.95 321.32,618 322.97,618.89 C325.736938,620.277777 328.60921,621.444742 331.56,622.38 L342,626 C344.853485,627.126886 347.836591,627.892818 350.88,628.28 C352.98,628.46 355.11,628.28 357.19,628.64 C358.77,628.91 360.3,629.48 361.9,629.64 C364.536363,629.712218 367.127556,628.945365 369.3,627.45 C370.146654,626.976721 370.880269,626.324999 371.45,625.54 C372.95,623.21 371.66,620.14 370.19,617.79 C367.48,613.45 364.09,609.38 359.61,606.9 C357.79,605.9 355.83,605.16 353.96,604.25 C348.64,601.67 344.61,597.36 339.58,594.41 C334.83,591.65 331.77,598.84 334.01,602.51 Z" id="Shape" fill="#00004C"></path>
            <path d="M187.38,182.2 C181.864929,185.989099 175.545901,188.44688 168.92,189.38 C165.454111,189.811521 161.962156,189.99865 158.47,189.94 C143.908357,189.922505 129.372776,188.708419 115.01,186.31 C120.73,180.01 126.51,173.31 128.67,165.05 C129.740339,160.692984 129.961029,156.170529 129.32,151.73 C128.453832,146.033177 127.095413,140.42217 125.26,134.96 C131.386139,135.288514 137.528675,135.131356 143.63,134.49 C147.11,134.14 155.63,130.97 158.63,133.37 C161.44,135.6 159.32,143.49 159.27,147.13 C159.27,147.26 159.27,147.39 159.27,147.52 C159.427312,153.045493 160.617824,158.492681 162.78,163.58 C167.18,173.42 176.59,181.5 187.38,182.2 Z" id="Shape" fill="#FBBEBE"></path>
            <path d="M159.31,147.08 C150.443118,152.87267 139.505132,154.549828 129.31,151.68 C128.443832,145.983177 127.085413,140.37217 125.25,134.91 C131.376139,135.238514 137.518675,135.081356 143.62,134.44 C147.1,134.09 155.62,130.92 158.62,133.32 C161.48,135.55 159.36,143.44 159.31,147.08 Z" id="Shape" fill="#000000" opacity="0.1"></path>
            <circle id="Oval" fill="#FBBEBE" cx="139.27" cy="114.74" r="36.6"></circle>
            <path d="M294.56,299.94 C294.600497,305.950852 291.463704,311.536245 286.31,314.63 C283.480605,316.115438 280.448175,317.176789 277.31,317.78 C260.57,321.78 243.42,325.07 226.23,324.09 C222.51,323.88 218.73,323.44 215.39,321.81 C212.05,320.18 209.2,317.13 208.7,313.45 C208.677601,312.539454 208.498306,311.639595 208.17,310.79 C207.507497,309.852164 206.638505,309.078966 205.63,308.53 C202.475405,306.106941 200.97739,302.098007 201.77,298.2 C199.68,299.13 197.5,297.03 196.52,294.96 C195.54,292.89 194.77,290.39 192.67,289.52 C191.24,288.91 189.59,289.27 188.08,288.88 C185.67,288.26 184.2,285.88 182.5,284.1 C179.03,280.39 174.11,278.47 169.57,276.19 C156.1,269.4 145.12,258.64 134.37,248.06 C128.96,242.73 123.51,237.36 119.22,231.06 C118.01,229.29 116.92,227.47 115.89,225.6 C112.637681,219.364255 109.817705,212.912391 107.45,206.29 C106.09,202.75 104.71,199.01 105.27,195.29 C105.32,194.95 105.39,194.61 105.47,194.29 C106.166847,191.872927 107.291293,189.600326 108.79,187.58 C112.51,182.11 117.39,176.93 123.79,175.25 C130.19,173.57 136.58,175.6 143.08,176.98 C145.238354,177.460289 147.426658,177.794381 149.63,177.98 C156.52,178.47 163.34,176.62 170,174.78 L177.26,172.78 C180.9,171.78 182.72,167.38 186.4,166.61 C188.044024,166.373432 189.718341,166.458336 191.33,166.86 C198.8,168.28 206.33,170.11 212.9,173.91 C214.362701,174.759092 215.762926,175.711513 217.09,176.76 C221.77,180.46 225.47,185.39 226.83,191.15 C228.33,197.48 226.92,204.24 228.44,210.57 C229.68,215.8 232.82,220.36 235.9,224.77 L253.77,250.29 C257.758597,256.295626 262.152124,262.022246 266.92,267.43 C276.5,277.86 294.32,285.75 294.56,299.94 Z" id="Shape" fill="url(#linearGradient-2)"></path>
            <path d="M246.84,55.31 C247.58,51.82 248.13,48.16 250.06,45.15 C251.379411,43.257521 252.973602,41.572329 254.79,40.15 C257.86,37.56 261.12,35.07 264.93,33.81 C268.74,32.55 273.22,32.72 276.42,35.14 C279.62,37.56 280.97,41.73 281.47,45.71 C282.15,51.18 281.47,56.94 278.76,61.71 C275.66,67.12 270.28,70.71 265.76,75.05 C262.48859,78.185894 259.641134,81.735968 257.29,85.61 C256.221706,87.630495 254.926688,89.522697 253.43,91.25 C251.890868,92.992645 249.616254,93.901748 247.3,93.7 C245.38,93.39 243.8,92.05 242.3,90.77 C240.45,89.15 235.46,86.26 235.3,83.69 C235.18,81.61 239.07,76.89 240.02,74.94 C242.97439,68.653513 245.260265,62.07408 246.84,55.31 Z" id="Shape" fill="#FBBEBE"></path>
            <path d="M375.47,479.27 C370.87,487.76 365.83,496.03 361.73,504.77 C359.34,509.88 357.27,515.14 354.61,520.11 C351.71,525.53 348.14,530.57 345.11,535.93 C337.48,549.44 333.23,564.68 329.3,579.69 C318.306994,578.043578 307.730324,574.309837 298.14,568.69 C297.49,568.31 296.87,567.91 296.27,567.48 C293.705525,565.642296 291.561391,563.279998 289.98,560.55 C293.61,546.82 297.34,532.86 304.73,520.73 C307.14,516.73 309.9,513.08 312.38,509.18 C319.57,497.88 321.05,483.62 329.26,473.04 C330.870441,470.850952 330.870441,467.869048 329.26,465.68 C328.31,464.45 326.8,463.28 327.08,461.76 C327.29,460.65 328.45,459.65 328,458.61 C327.79,458.11 327.28,457.84 326.88,457.48 C325.48,456.19 325.66,453.99 325.54,452.1 C325.23,447.31 322.36,443.1 319.54,439.19 C318.977475,438.263051 318.232389,437.460127 317.35,436.83 C316.61,436.38 315.73,436.18 314.99,435.72 C312.37,434.08 312.56,430.26 311.3,427.43 C309.66,423.7 305.53,421.8 302.82,418.77 C299.37,414.92 298.49,409.55 294.82,406.18 C294.44988,405.816296 294.052011,405.481953 293.63,405.18 C295.45,410.83 295.63,416.86 295.76,422.81 C296.11,443.2 291.01,464.31 293.4,484.57 C295.28,500.64 285.4,516.68 271.35,524.71 C265.95,527.79 260.05,529.85 254.19,531.94 C245.4,535.05 236.64,538.26 228.02,541.86 C221.926667,544.38 215.926667,547.096667 210.02,550.01 C202.718219,553.553961 195.611384,557.486254 188.73,561.79 C180.27,567.17 171.81,572.64 165.8,580.67 C159.99,580.51 154.67,577.02 150.99,572.52 C147.31,568.02 144.99,562.52 142.88,557.16 C141.01,552.51 139.17,547.71 139.03,542.7 C139.0811,541.601437 139.75758,540.629484 140.77,540.2 L180.94,518.91 L188.45,514.91 C204.9,506.18 221.94,498.11 238.39,489.39 C239.5,489.72 240.39,488.46 240.72,487.39 C241.05,486.32 241.28,484.94 242.32,484.46 C242.84,484.21 243.52,484.22 243.91,483.78 C244.164133,483.386357 244.263852,482.912693 244.19,482.45 C243.66,474.45 237.92,467.18 239.07,459.29 C239.56,455.93 241.29,452.62 240.54,449.29 C240.01,447 238.37,445.15 237.48,442.98 C235.48,438.13 237.48,432.29 235.32,427.54 C233.884661,424.416715 232.907912,421.102507 232.42,417.7 C231.38553,410.92357 229.314638,404.346634 226.28,398.2 C224.819499,395.092075 222.916396,392.212158 220.63,389.65 C219.42,388.35 218.06,387.19 216.91,385.84 C213.42,381.7 212.13,376.18 211.14,370.84 C209.34,361.17 208.14,351.14 210.34,341.56 C211.1,338.29 212.26,335.05 212.21,331.7 C212.16,327.27 210.21,322.1 213.29,318.9 C214.565707,317.754837 216.1159,316.959071 217.79,316.59 C224.87,314.48 232.24,313.52 239.57,312.59 L273.12,308.2 C276.96,307.69 280.89,307.2 284.28,305.29 C288.83,302.78 291.85,298.13 293.7,293.29 C299.59,297.59 301.79,305.6 306.49,311.15 C308.78,313.86 311.61,316.05 314.12,318.54 C317.188987,321.772488 320.000868,325.239694 322.53,328.91 C329.53,338.52 336.53,348.2 341.53,358.98 C344.14,364.58 346.16,370.42 348.24,376.23 C356.43,399.1 369.78,420.81 375.32,444.45 C376.68,450.23 380.21,455.45 380.76,461.36 C381.38,467.63 378.48,473.69 375.47,479.27 Z" id="Shape" fill="url(#linearGradient-3)"></path>
            <path d="M199.77,289.33 C198.948008,290.84987 198.521588,292.55211 198.53,294.28 C199.28,290.58 204.37,288.53 204.7,284.87 C204.85,283.18 204.54,283.26 203.5,284.15 C201.92,285.52 201.23,287.88 199.77,289.33 Z" id="Shape" fill="#000000" opacity="0.1"></path>
            <path d="M215.28,300.57 C214.205267,301.477611 213.402363,302.664664 212.96,304 C212.094526,305.880398 211.927881,308.007774 212.49,310 C213.24,309.65 213.49,308.73 213.72,307.93 C214.088304,306.683833 214.623132,305.493083 215.31,304.39 C215.91,303.39 218.68,301.16 218.67,300.11 C218.64,298.5 216.02,300 215.28,300.57 Z" id="Shape" fill="#000000" opacity="0.1"></path>
            <path d="M217.07,176.69 C214.71778,178.714217 212.124872,180.440583 209.35,181.83 C202.1,185.5 194.07,187.44 186.77,191 C183.168664,192.845501 179.670181,194.885169 176.29,197.11 L154.59,210.86 C152.846644,211.858578 151.239948,213.078725 149.81,214.49 C147.2,217.27 147.21,222.16 144.81,225.14 C142.41,228.12 138.27,229.8 134.28,230 C130.283188,230.023682 126.313145,229.346778 122.55,228 C120.270928,227.318222 118.033761,226.503492 115.85,225.56 C113.566189,224.590647 111.404608,223.355458 109.41,221.88 C105.54,218.96 102.41,214.71 101.83,209.88 C101.569271,206.565605 102.008791,203.233434 103.12,200.1 C103.720715,198.061496 104.493493,196.077698 105.43,194.17 C105.963393,193.08488 106.578498,192.041876 107.27,191.05 C112.27,183.99 121.04,180.68 129.53,179.05 C133.99,178.18 138.53,177.65 143.04,176.89 C145.198354,177.370289 147.386658,177.704381 149.59,177.89 C156.48,178.38 163.3,176.53 169.96,174.69 L177.22,172.69 C180.86,171.69 182.68,167.29 186.36,166.52 C188.004024,166.283432 189.678341,166.368336 191.29,166.77 C198.76,168.19 206.29,170.02 212.86,173.82 C214.330191,174.674711 215.737139,175.633841 217.07,176.69 Z" id="Shape" fill="#000000" opacity="0.1"></path>
            <path d="M234.77,79.55 C233.84,88.4 226.37,94.9 221.77,102.55 C219.56,106.26 218.01,110.33 216.02,114.17 C213.739529,118.356736 211.201313,122.397843 208.42,126.27 L200.29,138.07 C195.51,145.01 190.68,152.01 184.57,157.82 C173.92,159.63 164.99,167.54 154.89,171.38 C146.81,174.45 138,174.87 129.52,176.52 C121.04,178.17 112.25,181.52 107.27,188.52 C105.4156,191.280842 104.011444,194.318681 103.11,197.52 C101.992324,200.648324 101.555917,203.979337 101.83,207.29 C102.44,212.11 105.53,216.35 109.4,219.29 C113.27,222.23 117.9,223.97 122.54,225.41 C126.304394,226.752003 130.273591,227.428763 134.27,227.41 C138.27,227.21 142.33,225.67 144.81,222.55 C147.29,219.43 147.17,214.68 149.81,211.9 C151.243555,210.488626 152.853566,209.268513 154.6,208.27 L176.3,194.52 C179.677847,192.309117 183.172967,190.282815 186.77,188.45 C194.07,184.88 202.1,182.95 209.35,179.28 C216.6,175.61 223.35,169.55 224.8,161.55 C229.22,136.97 246.23,116.25 260.8,95.95 C260.32,95.85 260.47,94.76 260.29,94.3 C258.43,89.48 254.29,85.85 249.63,83.56 C244.97,81.27 239.77,80.63 234.77,79.55 Z" id="Shape" fill="url(#linearGradient-2)"></path>
            <path d="M158.05,79.73 C158.320528,77.063994 157.795081,74.377603 156.54,72.01 C154.13,68.01 149.08,66.6 144.54,65.66 C140.146667,64.76 135.733333,63.986667 131.3,63.34 C127.66,62.81 123.93,62.34 120.35,63.16 C115.35,64.25 111.28,67.56 106.65,69.62 C101.18,72.06 95.12,72.7 89.28,74.05 C83.44,75.4 77.46,77.69 73.8,82.43 C71.02,86.03 69.91,90.63 69.08,95.11 C62.15,132.5 69.61,170.85 71.03,208.85 C71.58,223.64 70.91,239.45 62.46,251.6 L87.07,250.95 C93.37,250.79 100.14,250.46 105.07,246.57 C109.43,243.15 111.49,237.64 113.36,232.42 C114.83,228.31 116.31,224.12 116.5,219.76 C116.89,210.83 111.82,202.06 113.5,193.27 C114.73,186.71 119.5,181.41 124.61,177.1 C129.72,172.79 135.4,169.1 139.53,163.82 C146.91,154.49 148.32,141.74 147.4,129.89 C146.85,122.84 145.59,115.79 146.2,108.74 C146.66,103.47 148.33,98.03 151.78,93.92 C155.66,89.26 157.71,86.34 158.05,79.73 Z" id="Shape" fill="#3F3D56"></path>
            <path d="M156.54,72.01 C154.17,68.07 149.25,66.65 144.74,65.71 C147.137504,66.563112 149.189024,68.179035 150.58,70.31 C151.839676,72.675974 152.365398,75.363772 152.09,78.03 C151.75,84.63 149.7,87.55 145.78,92.22 C142.33,96.33 140.66,101.76 140.2,107.04 C139.59,114.09 140.85,121.14 141.4,128.19 C142.32,140.04 140.91,152.79 133.54,162.12 C129.4,167.36 123.72,171.12 118.62,175.4 C113.52,179.68 108.73,185.01 107.5,191.57 C105.85,200.36 110.92,209.13 110.5,218.06 C110.31,222.42 108.82,226.61 107.35,230.72 C105.49,235.94 103.42,241.44 99.06,244.86 C94.06,248.75 87.33,249.09 81.06,249.25 L63.63,249.71 C63.24,250.35 62.84,250.99 62.41,251.6 L87.02,250.95 C93.32,250.79 100.09,250.46 105.02,246.57 C109.38,243.15 111.44,237.64 113.31,232.42 C114.78,228.31 116.26,224.12 116.45,219.76 C116.84,210.83 111.77,202.06 113.45,193.27 C114.68,186.71 119.45,181.41 124.56,177.1 C129.67,172.79 135.35,169.1 139.48,163.82 C146.86,154.49 148.27,141.74 147.35,129.89 C146.8,122.84 145.54,115.79 146.15,108.74 C146.61,103.47 148.28,98.03 151.73,93.92 C155.65,89.26 157.73,86.34 158.04,79.73 C158.313589,77.064991 157.791633,74.378658 156.54,72.01 Z" id="Shape" fill="#000000" opacity="0.1"></path>
            <path d="M341.44,457.38 L296.27,567.53 C293.705525,565.692296 291.561391,563.329998 289.98,560.6 C293.61,546.87 297.34,532.91 304.73,520.78 C307.14,516.78 309.9,513.13 312.38,509.23 C319.57,497.93 321.05,483.67 329.26,473.09 C330.870441,470.900952 330.870441,467.919048 329.26,465.73 C328.31,464.5 326.8,463.33 327.08,461.81 C327.29,460.7 328.45,459.7 328,458.66 C327.79,458.16 327.28,457.89 326.88,457.53 C325.48,456.24 325.66,454.04 325.54,452.15 C325.23,447.36 322.36,443.15 319.54,439.24 C318.977475,438.313051 318.232389,437.510127 317.35,436.88 C316.61,436.43 315.73,436.23 314.99,435.77 C312.37,434.13 312.56,430.31 311.3,427.48 C309.66,423.75 305.53,421.85 302.82,418.82 C299.37,414.97 298.49,409.6 294.82,406.23 L294.51,405.45 L298.03,384.2 L341.44,457.38 Z" id="Shape" fill="#000000" opacity="0.1"></path>
        </g>
    </g>
</svg>