<?xml version="1.0" encoding="UTF-8"?>
<svg width="100%" height="100%" viewBox="0 0 520 622" version="1.1" xmlns="http://www.w3.org/2000/svg" xmlns:xlink="http://www.w3.org/1999/xlink">
    <!-- Generator: Sketch 49.1 (51147) - http://www.bohemiancoding.com/sketch -->
    <title>Group 2</title>
    <desc>Created with Sketch.</desc>
    <defs>
        <linearGradient x1="50%" y1="0%" x2="50%" y2="100%" id="linearGradient-1">
            <stop stop-color="#000083" offset="0%"></stop>
            <stop stop-color="#00004C" offset="100%"></stop>
        </linearGradient>
        <linearGradient x1="50%" y1="0%" x2="50%" y2="100%" id="linearGradient-2">
            <stop stop-color="#FFD500" offset="0%"></stop>
            <stop stop-color="#FFAB00" offset="100%"></stop>
        </linearGradient>
    </defs>
    <g id="Page-1" stroke="none" stroke-width="1" fill="none" fill-rule="evenodd">
        <g id="Group-2">
            <path d="M0,0 L473.848828,0 C392.451483,105.333333 392.451483,206.666667 473.848828,304 C535.383724,377.582211 535.383724,483.582211 473.848828,622 L0,622 L0,0 Z" id="Rectangle" fill="url(#linearGradient-1)"></path>
            <g id="undraw_interview_rmcf" transform="translate(113.000000, 132.000000)" fill-rule="nonzero">
                <polygon id="Shape" fill="#FFFFFF" opacity="0.79834692" points="158.167391 317.467647 158.167391 336.754603 163.139907 336.754603 162.177174 316.050191"></polygon>
                <polygon id="Shape" fill="#AAABB0" points="83.4737578 313.576279 83.4737578 332.863235 88.451087 332.863235 87.488354 312.158824"></polygon>
                <rect id="Rectangle-path" fill="#FFFFFF" opacity="0.800554801" x="163.943789" y="281.723338" width="6.41661491" height="34.3321618" rx="3.20830745"></rect>
                <rect id="Rectangle-path" fill="#FFFFFF" opacity="0.801970109" x="81.6301242" y="274.110485" width="6.41661491" height="41.9397059" rx="3.20830745"></rect>
                <path d="M178.548447,76.2718676 C178.548447,76.2718676 184.965062,73.2617647 185.927795,76.2718676 C186.890528,79.2819706 187.371894,105.295206 187.371894,105.295206 L181.272981,105.295206 L178.548447,76.2718676 Z" id="Shape" fill="#FFFFFF" opacity="0.795855978"></path>
                <path d="M108.268944,76.2718676 C108.268944,76.2718676 101.847516,73.2617647 100.884783,76.2718676 C99.9220497,79.2819706 99.4406832,105.295206 99.4406832,105.295206 L105.539596,105.295206 L108.268944,76.2718676 Z" id="Shape" fill="#FFFFFF" opacity="0.798799819"></path>
                <polygon id="Shape" fill="#FFFFFF" opacity="0.80321558" points="109.226863 50.4338235 108.26413 72.0248088 112.596429 72.0248088 112.596429 49.9029412"></polygon>
                <path d="M105.539596,105.295206 L106.824845,74.1483382 C106.824845,74.1483382 106.343478,67.2468676 121.58354,69.3703971 C136.823602,71.4939265 181.436646,75.7409853 181.436646,75.7409853 L181.436646,105.295206 L105.539596,105.295206 Z" id="Shape" fill="#FFFFFF"></path>
                <path d="M166.514286,269.337853 L164.107453,316.936765 C164.107453,316.936765 128.804037,338.52775 85.9624224,317.998529 L89.813354,267.920397 L166.514286,269.337853 Z" id="Shape" fill="#FFFFFF"></path>
                <polygon id="Shape" fill="url(#linearGradient-1)" points="132.977484 81.9310735 133.776553 112.72225 183.520963 112.72225 180.632764 72.0248088"></polygon>
                <rect id="Rectangle-path" fill="url(#linearGradient-1)" x="91.1756211" y="248.983824" width="46.8562112" height="65.4737206"></rect>
                <path d="M120.784472,275.708441 C120.784472,275.708441 127.523602,269.868735 128.645186,271.636574 C129.76677,273.404412 124.640217,281.017265 122.551087,280.130691 C120.461957,279.244118 120.784472,275.708441 120.784472,275.708441 Z" id="Shape" fill="#FFB9B9"></path>
                <rect id="Rectangle-path" fill="#FFFFFF" x="0.245496894" y="103.522059" width="307.578727" height="169.882353"></rect>
                <path d="M105.698447,49.1968676 C105.698447,49.1968676 103.291615,24.4205882 105.698447,21.4157941 C108.10528,18.411 148.540062,-10.0867647 185.927795,23.3588235 C185.927795,23.3588235 189.456211,23.5393235 188.815994,32.3838235 C188.438651,37.981606 188.464405,43.6035757 188.893012,49.1968676 C188.893012,49.1968676 108.427795,55.5674559 105.698447,49.1968676 Z" id="Shape" fill="#33323D"></path>
                <path d="M105.698447,49.1968676 C105.698447,49.1968676 103.291615,24.4205882 105.698447,21.4157941 C108.10528,18.411 148.540062,-10.0867647 185.927795,23.3588235 C185.927795,23.3588235 189.456211,23.5393235 188.815994,32.3838235 C188.438651,37.981606 188.464405,43.6035757 188.893012,49.1968676 C188.893012,49.1968676 108.427795,55.5674559 105.698447,49.1968676 Z" id="Shape" fill="#FFFFFF" opacity="0.798629982"></path>
                <path d="M105.698447,52.3821618 C105.698447,52.3821618 103.291615,27.6058824 105.698447,24.6010882 C108.10528,21.5962941 148.540062,-6.90147059 185.927795,26.5441176 C185.927795,26.5441176 189.456211,26.7246176 188.815994,35.5691176 C188.438651,41.1669001 188.464405,46.7888698 188.893012,52.3821618 C188.893012,52.3821618 108.427795,58.75275 105.698447,52.3821618 Z" id="Shape" fill="#FFFFFF"></path>
                <path d="M190.260093,41.0584412 C190.260093,41.0584412 192.825776,51.6760882 192.026708,53.4439265 C191.22764,55.2117647 191.37205,60.1702059 191.37205,60.1702059 C191.37205,60.1702059 191.545342,63.3555 190.260093,63.7058824 C188.974845,64.0562647 187.853261,64.2367647 188.893012,65.2985294 C189.932764,66.3602941 188.893012,67.9529412 188.893012,67.9529412 C188.893012,67.9529412 188.329814,70.4321618 188.893012,72.0248088 C189.456211,73.6174559 185.600466,74.2810588 185.927795,76.2718676 C186.255124,78.2626765 187.333385,83.8794118 185.927795,84.0599118 C184.522205,84.2404118 186.409161,91.1365735 185.143168,91.1365735 C183.877174,91.1365735 182.977019,103.522059 182.977019,103.522059 C182.977019,103.522059 174.071739,95.2084412 168.136491,97.5071618 C168.136491,97.5071618 168.617857,90.6056912 170.543323,88.1264706 C172.468789,85.64725 171.886335,79.2819706 171.886335,79.2819706 L181.436646,47.6042206 L190.260093,41.0584412 Z" id="Shape" fill="url(#linearGradient-2)"></path>
                <path d="M142.604814,187.465176 C140.520497,190.008103 138.272516,176.428132 138.272516,176.428132 C138.272516,176.428132 132.337267,185.453132 128.486335,179.438235 C125.819565,175.270809 127.923137,163.463985 129.449068,156.610294 C130.132609,153.563029 130.710248,151.492588 130.710248,151.492588 L139.374845,149.899941 C139.374845,149.899941 139.403727,151.981 139.596273,154.508 C139.856211,157.921574 140.41941,162.158015 141.618012,163.172 C143.731211,164.929221 144.693944,184.901015 142.604814,187.465176 Z" id="Shape" fill="#AE6E79"></path>
                <path d="M138.113665,28.4924559 C138.113665,28.4924559 123.02764,28.3172647 119.340373,37.1617647 C115.653106,46.0062647 115.489441,49.0216765 114.045342,50.4338235 C112.601242,51.8459706 129.76677,59.2836324 129.76677,59.2836324 L130.570652,89.7191176 C130.570652,89.7191176 133.940217,85.9551618 139.394099,87.6592941 C144.847981,89.3634265 151.750776,87.6592941 151.750776,87.6592941 C151.750776,87.6592941 151.428261,87.0169265 155.924224,87.6592941 C160.420186,88.3016618 174.697516,79.9880441 174.697516,79.9880441 C174.697516,79.9880441 174.933385,66.6735147 174.615683,63.8386029 C174.297981,61.0036912 184.801398,40.1718676 184.801398,40.1718676 C184.801398,40.1718676 192.984627,31.5025588 184.483696,28.4924559 C184.483696,28.4924559 181.475155,23.4915441 173.734783,23.5393235 C165.99441,23.5871029 138.113665,28.4924559 138.113665,28.4924559 Z" id="Shape" fill="#000000" opacity="0.1"></path>
                <path d="M138.113665,27.9615735 C138.113665,27.9615735 123.02764,27.7863824 119.340373,36.6308824 C115.653106,45.4753824 115.489441,48.4907941 114.045342,49.9029412 C112.601242,51.3150882 129.76677,58.75275 129.76677,58.75275 L130.570652,89.1882353 C130.570652,89.1882353 133.940217,85.4242794 139.394099,87.1284118 C144.847981,88.8325441 151.750776,87.1284118 151.750776,87.1284118 C151.750776,87.1284118 151.428261,86.4860441 155.924224,87.1284118 C160.420186,87.7707794 174.697516,79.4571618 174.697516,79.4571618 C174.697516,79.4571618 180.310248,69.3703971 179.992547,66.5407941 C179.674845,63.7111912 191.222826,42.2953971 191.222826,42.2953971 C191.222826,42.2953971 192.989441,30.9716765 184.483696,27.9615735 C184.483696,27.9615735 181.475155,22.9606618 173.734783,23.0084412 C165.99441,23.0562206 138.113665,27.9615735 138.113665,27.9615735 Z" id="Shape" fill="url(#linearGradient-2)"></path>
                <path d="M139.634783,154.492074 C136.327795,153.355985 131.138665,155.86175 129.487578,156.615603 C130.171118,153.568338 130.748758,151.497897 130.748758,151.497897 L139.413354,149.90525 C139.413354,149.90525 139.427795,151.986309 139.634783,154.492074 Z" id="Shape" fill="#000000" opacity="0.1"></path>
                <path d="M118.695342,49.9029412 L114.045342,49.9029412 C114.045342,49.9029412 113.082609,60.7010882 114.045342,63.8863824 C115.008075,67.0716765 115.489441,66.6098088 115.166925,68.9669265 C114.84441,71.3240441 117.414907,74.9340441 117.414907,74.9340441 C117.414907,74.9340441 117.732609,83.8316324 119.340373,87.1443382 C120.948137,90.4570441 117.573758,105.311132 117.573758,105.311132 C118.49411,107.875383 119.855739,110.218962 121.58354,112.212603 C124.312888,115.217397 125.756988,126.365926 124.953106,130.612985 C124.149224,134.860044 127.201087,136.452691 127.201087,136.452691 C127.201087,136.452691 128.486335,156.275838 128.967702,156.275838 C129.449068,156.275838 138.753882,150.967015 141.642081,155.564456 L139.394099,137.339265 L139.557764,102.125838 C139.557764,102.125838 136.505901,97.6982794 138.113665,93.8069118 C139.721429,89.9155441 136.828416,80.7100441 136.828416,80.7100441 L132.654969,60.1861324 L118.695342,49.9029412 Z" id="Shape" fill="url(#linearGradient-2)"></path>
                <path d="M89.813354,329.677941 C89.813354,329.677941 83.0742236,328.085294 82.9153727,329.677941 C82.7565217,331.270588 74.8909938,347.55275 84.6819876,352.330691 C94.4729814,357.108632 120.620807,367.370588 163.14472,354.098529 C163.14472,354.098529 165.869255,355.160294 165.229037,348.614515 C164.58882,342.068735 164.58882,334.811574 164.58882,334.811574 C164.58882,334.811574 158.167391,332.863235 153.353727,333.574618 C148.540062,334.286 106.66118,343.661382 89.813354,329.677941 Z" id="Shape" fill="#33323D"></path>
                <path d="M89.813354,329.677941 C89.813354,329.677941 83.0742236,328.085294 82.9153727,329.677941 C82.7565217,331.270588 74.8909938,347.55275 84.6819876,352.330691 C94.4729814,357.108632 120.620807,367.370588 163.14472,354.098529 C163.14472,354.098529 165.869255,355.160294 165.229037,348.614515 C164.58882,342.068735 164.58882,334.811574 164.58882,334.811574 C164.58882,334.811574 158.167391,332.863235 153.353727,333.574618 C148.540062,334.286 106.66118,343.661382 89.813354,329.677941 Z" id="Shape" fill="#FFFFFF" opacity="0.796614583"></path>
                <path d="M89.813354,327.554412 C89.813354,327.554412 83.0742236,325.961765 82.9153727,327.554412 C82.7565217,329.147059 74.8909938,345.429221 84.6819876,350.207162 C94.4729814,354.985103 120.620807,365.247059 163.14472,351.975 C163.14472,351.975 165.869255,353.036765 165.229037,346.490985 C164.58882,339.945206 164.58882,332.688044 164.58882,332.688044 C164.58882,332.688044 158.167391,330.739706 153.353727,331.451088 C148.540062,332.162471 106.66118,341.537853 89.813354,327.554412 Z" id="Shape" fill="#FFFFFF"></path>
                <path d="M129.112112,56.2629118 C128.698137,58.8589265 127.759472,61.3540735 127.615062,63.9819412 C127.470652,66.6098088 128.390062,69.5986765 130.589907,70.6285882 C131.203693,70.8308429 131.798493,71.097503 132.366149,71.4249118 C133.213354,72.0566618 133.559938,73.2458382 133.738043,74.3606912 C133.974442,75.8000217 134.031128,77.2682611 133.906522,78.7245441 C133.78618,80.1897794 133.502174,81.7665 134.156832,83.0459265 C135.307298,85.3127941 138.306211,84.9783382 140.587888,84.3412794 L139.803261,91.0463235 C139.740683,91.5772059 139.702174,92.1771029 140.053571,92.5381029 C140.388945,92.798697 140.805753,92.8982948 141.208851,92.8141618 C143.192081,92.6761324 145.233075,92.3735294 146.932298,91.2215147 C148.631522,90.0695 149.897516,87.9247353 149.575,85.7640441 C149.199534,83.2582794 146.850466,81.2674706 147.168168,78.7510882 C147.413665,76.80275 149.14177,75.5657941 150.277795,74.0687059 C152.33323,71.3293529 152.443944,67.1672353 150.831366,64.0668824 C149.218789,60.9665294 146.104348,59.0447353 142.898447,58.6943529 C141.122205,58.4979265 139.273758,58.7368235 137.603416,58.0572941 C136.425325,57.5807093 135.517058,56.5240176 135.148447,55.2011471" id="Shape" fill="#444053"></path>
                <path d="M73.1291925,292.340985 L74.8091615,288.306279 C74.8091615,288.306279 83.8781056,278.989294 85.9624224,278.336309 C88.0467391,277.683324 96.5524845,274.837794 97.8377329,274.837794 C99.1229814,274.837794 122.551087,273.420338 122.551087,273.420338 L125.275621,280.502309 L95.8737578,287.621441 L85.9624224,295.584676 L73.1291925,292.340985 Z" id="Shape" fill="url(#linearGradient-2)"></path>
                <path d="M143.76972,183.685294 L142.234161,196.718456 L141.642081,201.735294 L134.744099,202.797059 C134.744099,202.797059 133.997981,201.034529 132.943789,198.327029 C129.742702,190.108971 123.715994,173.163206 127.210714,170.238044 C131.855901,166.341368 132.987112,179.263044 132.987112,179.263044 L138.282143,176.428132 L143.76972,183.685294 Z" id="Shape" fill="#FFB9B9"></path>
                <rect id="Rectangle-path" fill="#FFFFFF" x="107.782764" y="207.930691" width="34.8364907" height="58.0413676"></rect>
                <rect id="Rectangle-path" fill="#000000" opacity="0.1" x="107.782764" y="207.930691" width="34.8364907" height="58.0413676"></rect>
                <rect id="Rectangle-path" fill="#FFFFFF" transform="translate(137.197005, 236.972367) rotate(8.410000) translate(-137.197005, -236.972367) " x="119.77876" y="207.951683" width="34.8364907" height="58.0413676"></rect>
                <rect id="Rectangle-path" fill="url(#linearGradient-2)" transform="translate(133.946970, 227.151950) rotate(8.410000) translate(-133.946970, -227.151950) " x="124.98152" y="212.215575" width="17.9309006" height="29.87275"></rect>
                <rect id="Rectangle-path" fill="url(#linearGradient-2)" transform="translate(131.510525, 253.852208) rotate(8.410000) translate(-131.510525, -253.852208) " x="120.64849" y="250.608517" width="21.7240683" height="6.48738235"></rect>
                <ellipse id="Oval" fill="#000000" opacity="0.1" cx="151.750776" cy="39.2852941" rx="20.135559" ry="22.2068088"></ellipse>
                <ellipse id="Oval" fill="#AE6E79" cx="151.750776" cy="38.7544118" rx="20.135559" ry="22.2068088"></ellipse>
                <path d="M135.148447,55.2117647 C135.011553,54.6397809 135.060954,54.0329573 135.288043,53.4970147 C136.053416,51.7397941 138.234006,51.5858382 140.000621,51.6760882 C144.154814,51.8884412 148.713354,51.9149853 151.962578,49.0216765 C153.310404,47.8325 154.817081,44.8436324 156.776242,45.4116765 C158.518789,45.9160147 159.245652,48.5226471 161.060404,49.1013088 C162.374534,49.5207059 163.736801,48.8517941 165.075,48.5704265 C167.000466,48.1510294 168.974068,48.5014118 170.928416,48.5173382 C172.882764,48.5332647 175.00559,48.1244853 176.338975,46.5477647 C178.139286,44.4242353 177.845652,41.1062206 177.686801,38.1969853 C177.489355,34.4390047 177.720615,30.6685526 178.375155,26.9741324 C179.029814,23.3004265 180.03587,19.1913971 178.19705,16.0432647 C176.444876,13.0437794 172.815373,12.2209118 170.336335,9.92219118 C168.016149,7.79866176 166.788665,4.39570588 164.338509,2.42613235 C161.25295,-0.0530882353 157.060248,0.302602941 153.267081,0.732617647 L145.035714,1.69882353 C142.912888,1.94833824 140.703416,2.22970588 138.956056,3.62592647 C135.803106,6.14230882 135.369876,11.3715 132.385404,14.1267794 C131.056832,15.3478088 129.357609,15.9530147 127.841304,16.8661324 C126.325,17.77925 124.861646,19.22325 124.688354,21.1131912 C124.543944,22.7058382 125.323758,24.1763824 125.704037,25.7106324 C126.604193,29.3737206 125.198602,33.1429853 124.298447,36.8326176 C123.398292,40.52225 123.225,45.0028971 125.83882,47.4502647 C126.368323,47.9492941 126.984472,48.3315294 127.499534,48.8517941 C129.266149,50.63025 129.506832,53.6297353 129.097671,56.2204412" id="Shape" fill="#444053"></path>
                <ellipse id="Oval" fill="#444053" cx="153.392236" cy="65.1658088" rx="1" ry="1.32720588"></ellipse>
                <ellipse id="Oval" fill="#444053" cx="153.392236" cy="70.6976029" rx="1" ry="1.32720588"></ellipse>
                <path d="M142.715528,187.428015 C143.23059,186.775029 143.57236,185.097441 143.76972,182.883662 L138.031832,174.99475 C138.031832,174.99475 140.462733,190.289471 142.715528,187.428015 Z" id="Shape" fill="#AE6E79"></path>
                <path d="M149.185093,317.823338 C149.185093,317.823338 139.769565,333.877221 110.353261,332.157162 C82.6409938,330.564515 69.1145963,315.524618 69.7596273,310.215794 C70.4046584,304.906971 67.9930124,291.985294 73.9282609,288.269118 C77.3700311,286.119044 81.8996894,287.393162 85.0959627,288.847779 C87.3498133,289.857325 89.9292029,289.347052 91.7243789,287.5365 C94.6462733,284.632574 100.095342,281.362338 108.69736,283.937118 C109.804227,284.262751 110.971785,284.238837 112.066925,283.868103 C115.648292,282.663 124.173292,280.571324 130.358851,285.216544 C132.354505,286.733553 134.965003,286.843172 137.059472,285.497912 L137.146118,285.439515 C140.034317,283.491176 153.512578,301.896868 153.512578,301.896868 C153.512578,301.896868 154.157609,316.0555 149.185093,317.823338 Z" id="Shape" fill="#000000" opacity="0.1"></path>
                <path d="M149.185093,318.354221 C149.185093,318.354221 139.769565,334.408103 110.353261,332.688044 C82.6409938,331.095397 69.1145963,316.0555 69.7596273,310.746676 C70.4046584,305.437853 67.9930124,292.516176 73.9282609,288.8 C77.3700311,286.649926 81.8996894,287.924044 85.0959627,289.378662 C87.3498133,290.388207 89.9292029,289.877935 91.7243789,288.067382 C94.6462733,285.163456 100.095342,281.893221 108.69736,284.468 C109.804227,284.793633 110.971785,284.76972 112.066925,284.398985 C115.648292,283.193882 124.173292,281.102206 130.358851,285.747426 C132.354505,287.264436 134.965003,287.374054 137.059472,286.028794 L137.146118,285.970397 C140.034317,284.022059 153.512578,302.42775 153.512578,302.42775 C153.512578,302.42775 154.157609,316.586382 149.185093,318.354221 Z" id="Shape" fill="url(#linearGradient-2)"></path>
                <ellipse id="Oval" fill="#000000" opacity="0.1" cx="110.353261" cy="303.489515" rx="19.1776398" ry="21.1503529"></ellipse>
                <ellipse id="Oval" fill="#FFB9B9" cx="110.353261" cy="304.020397" rx="19.1776398" ry="21.1503529"></ellipse>
                <path d="M104.856056,285.736809 C102.843944,286.336706 100.860714,287.483412 99.8787267,289.368044 C99.286646,290.504132 99.0796584,291.8685 98.2228261,292.813471 C97.0097826,294.156603 94.9639752,294.183147 93.3225155,294.937 C91.6810559,295.690853 90.5979814,298.345265 92.2057453,299.184059 C90.5305901,299.279618 89.2886646,300.98375 89.081677,302.677265 C88.8746894,304.370779 89.4571429,306.058985 90.0203416,307.672868 C91.8591615,312.89675 93.8375776,318.348912 97.8906832,322.065088 C104.495031,328.127765 114.449689,327.846397 123.321273,327.204029 C124.046132,327.230524 124.764673,327.047509 125.40559,326.673147 C126.368323,325.972382 126.488665,324.62925 126.647516,323.450691 C127.316615,318.417926 129.790839,313.847029 131.40823,309.042544 C133.025621,304.238059 133.689907,298.594779 130.965373,294.342412 C126.95559,288.035529 111.604814,283.719456 104.856056,285.736809 Z" id="Shape" fill="#B96B6B"></path>
                <path d="M142.234161,196.718456 L141.642081,201.735294 L134.744099,202.797059 C134.744099,202.797059 133.997981,201.034529 132.943789,198.327029 L142.123447,196.426471 L142.234161,196.718456 Z" id="Shape" fill="#000000" opacity="0.1"></path>
                <path d="M149.502795,307.561382 L153.517391,302.42775 L152.713509,274.115794 C153.108892,272.073223 153.377476,270.003286 153.517391,267.920397 C153.676242,264.910294 151.510093,258.189324 151.510093,258.189324 C151.846118,256.843906 152.302446,255.53861 152.87236,254.292647 C153.835093,252.169118 151.514907,247.391176 151.514907,247.391176 C151.514907,247.391176 148.058696,235.005691 149.502795,228.810294 C150.946894,222.614897 149.151398,219.079221 149.151398,219.079221 C149.151398,219.079221 147.740994,212.17775 147.899845,209.348147 C148.058696,206.518544 144.68913,203.858824 144.68913,203.858824 L142.123447,196.957353 L131.855901,199.080882 L131.855901,222.970588 C131.855901,222.970588 132.496118,245.798529 131.855901,250.226088 C131.215683,254.653647 133.136335,258.895397 133.136335,258.895397 C133.136335,258.895397 132.014752,265.441176 132.977484,267.920397 C133.940217,270.399618 135.865683,276.414515 135.865683,276.414515 C135.50827,278.564172 135.618807,280.776706 136.188199,282.870044 C137.150932,285.970397 136.188199,287.738235 136.188199,287.738235 L149.502795,307.561382 Z" id="Shape" fill="url(#linearGradient-2)"></path>
                <g id="Group" opacity="0.1" transform="translate(123.711180, 19.111765)" fill="#000000">
                    <path d="M54.6784161,6.11576471 C54.135647,9.22336458 53.8920078,12.385498 53.9515528,15.5495441 C53.9928027,12.9186188 54.2424585,10.2967026 54.6976708,7.71372059 C55.1212733,5.35660294 55.6604037,2.81898529 55.5448758,0.467176471 C55.3674623,2.36877439 55.0780309,4.25562399 54.6784161,6.11576471 Z" id="Shape"></path>
                    <path d="M3.80279503,28.0305882 C3.28773292,27.4997059 2.67158385,27.1280882 2.14208075,26.62375 C0.736490683,25.3018529 0.144409938,23.3853676 0.0288819876,21.3149265 C-0.110714286,23.9693382 0.380279503,26.5388088 2.14208075,28.2163971 C2.67158385,28.7207353 3.28773292,29.1029706 3.80279503,29.6232353 C4.87950149,30.7982985 5.50368263,32.3861541 5.54534161,34.0561029 C5.68493789,31.8263971 5.2757764,29.5064412 3.80279503,28.0305882 Z" id="Shape"></path>
                    <path d="M2.26723602,8.20744118 C2.35141661,7.08615666 2.26353845,5.9572441 2.00729814,4.86819118 C1.72810559,3.73210294 1.22748447,2.62255882 1.04456522,1.48116176 C1.04456522,1.60326471 1.0060559,1.73067647 0.991614907,1.86339706 C0.852018634,3.45604412 1.6318323,4.92658824 2.00729814,6.46083824 C2.14562529,7.0322398 2.23268985,7.61725345 2.26723602,8.20744118 Z" id="Shape"></path>
                    <path d="M52.642236,25.6893971 C51.3088509,27.2820441 49.1860248,27.6748971 47.231677,27.6589706 C45.2773292,27.6430441 43.298913,27.2926618 41.3782609,27.7173676 C40.0400621,28.0146618 38.677795,28.6782647 37.3636646,28.24825 C35.548913,27.6695882 34.8220497,25.0629559 33.0843168,24.5586176 C31.1059006,23.9852647 29.5992236,26.9741324 28.2706522,28.1633088 C25.0214286,31.0300735 20.4628882,31.0035294 16.3086957,30.8177206 C14.5420807,30.7274706 12.3614907,30.8814265 11.6009317,32.6439559 C11.3689036,33.1784163 11.3193422,33.7872103 11.4613354,34.3587059 L5.57903727,35.378 C5.55680885,35.9120641 5.50375107,36.4440239 5.42018634,36.9706471 L11.4613354,35.9088824 C11.3193422,35.3373868 11.3689036,34.7285927 11.6009317,34.1941324 C12.3614907,32.4316029 14.5420807,32.2776471 16.3086957,32.3678971 C20.4628882,32.58025 25.0214286,32.6067941 28.2706522,29.7134853 C29.6184783,28.5243088 31.1251553,25.5354412 33.0843168,26.1087941 C34.8220497,26.6078235 35.548913,29.2197647 37.3636646,29.7984265 C38.677795,30.2125147 40.0400621,29.5489118 41.3782609,29.2675441 C43.3037267,28.8428382 45.2773292,29.1932206 47.231677,29.2091471 C49.1860248,29.2250735 51.3088509,28.8162941 52.642236,27.2395735 C53.9756211,25.6628529 54.1681677,23.3110441 54.0863354,21.0176324 C54.0285714,22.7960882 53.6964286,24.4418235 52.642236,25.6893971 Z" id="Shape"></path>
                </g>
                <g id="Group" opacity="0.1" transform="translate(127.562112, 65.298529)" fill="#000000">
                    <path d="M4.23121118,5.00091176 C3.66432466,4.67167493 3.06936067,4.40494114 2.45496894,4.20458824 C1.41036174,3.68104102 0.581044693,2.74558608 0.129968944,1.58202941 C0.490993789,3.41357353 1.40559006,5.08054412 2.9363354,5.79723529 C3.55072713,5.9975882 4.14569112,6.26432199 4.71257764,6.59355882 C5.07507478,6.87596863 5.36793055,7.25369154 5.56459627,7.69248529 C5.37204969,6.65195588 5.02065217,5.59019118 4.23121118,5.00091176 Z" id="Shape"></path>
                    <path d="M12.4529503,17.9172794 C10.2338509,18.5384118 7.33602484,18.86225 6.1181677,16.7865 C6.15606455,17.2866772 6.28716394,17.7728441 6.50326087,18.2145735 C7.54301242,20.2584706 10.0846273,20.1894559 12.2459627,19.6851176 L12.4529503,17.9172794 Z" id="Shape"></path>
                    <path d="M21.4448758,19.3718971 C21.7529503,21.5272794 20.4821429,23.6773529 18.7973602,24.8081324 C17.1125776,25.9389118 15.0571429,26.2521324 13.073913,26.4007794 C12.7586462,26.4457743 12.4381875,26.4056954 12.1400621,26.2839853 C11.9553185,26.7425962 12.0341816,27.278316 12.3409924,27.6489128 C12.6478032,28.0195096 13.1243982,28.1547276 13.5552795,27.9934265 C15.5385093,27.8553971 17.5795031,27.5527941 19.2787267,26.4007794 C20.9779503,25.2487647 22.2487578,23.104 21.9214286,20.9433088 C21.8290107,20.397784 21.6686411,19.8689725 21.4448758,19.3718971 Z" id="Shape"></path>
                    <path d="M23.5821429,0.153955882 C24.1776089,2.76955848 23.6446644,5.54185492 22.1380435,7.66594118 C21.0020186,9.18426471 19.273913,10.3999853 19.0284161,12.3483235 C18.9465069,13.2440703 19.1144439,14.1460519 19.5097826,14.9337206 C19.4663957,14.6045337 19.4663957,14.2701575 19.5097826,13.9409706 C19.7552795,11.9926324 21.4833851,10.7556765 22.6194099,9.25858824 C24.4871118,6.76875 24.7470497,3.10035294 23.5821429,0.153955882 Z" id="Shape"></path>
                </g>
                <g id="Group" opacity="0.1" transform="translate(88.571429, 284.552941)" fill="#000000">
                    <path d="M4.75590062,11.2016176 C6.39254658,10.4530735 8.43835404,10.4265294 9.65621118,9.07808824 C10.5130435,8.13311765 10.7200311,6.76875 11.3121118,5.63797059 C12.2748447,3.74802941 14.2725155,2.60663235 16.2846273,2.00673529 C23.0237578,-0.0106176471 38.3889752,4.30014706 42.3939441,10.5486324 C43.5677221,12.4391189 44.2075654,14.6706333 44.232764,16.9616912 C44.3869884,14.3167116 43.7420309,11.6899378 42.3987578,9.49217647 C38.3937888,3.24369118 23.0430124,-1.06707353 16.289441,0.950279412 C14.2773292,1.55017647 12.2940994,2.69157353 11.3169255,4.58151471 C10.7248447,5.71229412 10.5178571,7.07666176 9.66102484,8.02163235 C8.4431677,9.36476471 6.39736025,9.39130882 4.76071429,10.1451618 C3.51397516,10.7132059 2.58975155,12.3907941 2.92670807,13.5162647 C3.1985033,12.4858145 3.86745151,11.6393322 4.75590062,11.2016176 Z" id="Shape"></path>
                    <path d="M0.519875776,18.9153382 C0.722049689,17.2165147 1.96397516,15.5176912 3.6439441,15.4221324 C3.28664262,15.257867 3.01590298,14.9241495 2.90745342,14.5143235 C1.60508672,15.048002 0.678268184,16.3338742 0.500621118,17.8535735 C0.454907304,18.2856618 0.454907304,18.722147 0.500621118,19.1542353 C0.519875776,19.0746029 0.519875776,18.9949706 0.519875776,18.9153382 Z" id="Shape"></path>
                </g>
                <rect id="Rectangle-path" fill="#FFFFFF" x="147.254814" y="111.081824" width="43.8043478" height="62.9998088"></rect>
                <rect id="Rectangle-path" fill="#000000" opacity="0.1" x="147.254814" y="111.081824" width="43.8043478" height="62.9998088"></rect>
                <rect id="Rectangle-path" fill="#FFFFFF" transform="translate(191.052227, 149.916690) rotate(-9.760000) translate(-191.052227, -149.916690) " x="169.150053" y="118.416786" width="43.8043478" height="62.9998088"></rect>
                <rect id="Rectangle-path" fill="url(#linearGradient-2)" transform="translate(181.296982, 171.624179) rotate(-9.760000) translate(-181.296982, -171.624179) " x="176.151174" y="164.223679" width="10.2916149" height="14.801"></rect>
                <rect id="Rectangle-path" fill="url(#linearGradient-2)" transform="translate(195.332162, 168.958836) rotate(-9.760000) translate(-195.332162, -168.958836) " x="190.186354" y="161.558336" width="10.2916149" height="14.801"></rect>
                <rect id="Rectangle-path" fill="url(#linearGradient-2)" transform="translate(192.539941, 150.027034) rotate(-9.743641) translate(-192.539941, -150.027034) " x="174.494685" y="142.593307" width="36.0905118" height="14.8674553"></rect>
                <rect id="Rectangle-path" fill="url(#linearGradient-2)" transform="translate(188.688817, 126.846694) rotate(-9.743641) translate(-188.688817, -126.846694) " x="170.643561" y="125.188236" width="36.0905118" height="3.31691435"></rect>
                <rect id="Rectangle-path" fill="url(#linearGradient-2)" transform="translate(189.855408, 132.860263) rotate(-9.743641) translate(-189.855408, -132.860263) " x="171.810153" y="131.201806" width="36.0905118" height="3.31691435"></rect>
                <path d="M171.886335,93.9661765 C171.886335,93.9661765 151.750776,116.263235 161.859472,121.92775 C171.968168,127.592265 178.548447,103.081426 178.548447,103.081426 L180.146584,97.5071618 L171.886335,93.9661765 Z" id="Shape" fill="#AE6E79"></path>
                <path d="M170.124534,91.9966029 L167.63587,98.0592794 C167.63587,98.0592794 179.910714,99.9598382 182.476398,104.052941 L180.95528,93.3556618 L179.150155,88.7900735 L170.124534,91.9966029 Z" id="Shape" fill="#000000" opacity="0.1"></path>
                <path d="M170.605901,91.4657206 L168.117236,97.5283971 C168.117236,97.5283971 180.392081,99.4289559 182.957764,103.522059 L181.436646,92.8247794 L179.631522,88.2591912 L170.605901,91.4657206 Z" id="Shape" fill="url(#linearGradient-2)"></path>
                <polygon id="Shape" fill="#464A5F" points="244.909627 202.935088 244.644876 203.136824 245.010714 203.317324 245.405435 203.280162 245.453571 202.977559"></polygon>
                <polygon id="Shape" fill="#000000" opacity="0.1" points="244.909627 202.935088 244.644876 203.136824 245.010714 203.317324 245.405435 203.280162 245.453571 202.977559"></polygon>
                <polygon id="Shape" fill="#9C9CA1" points="244.928261 202.935088 244.648261 203.126206 244.428261 202.839529 244.563261 202.605941 244.688261 202.563471"></polygon>
                <polygon id="Shape" fill="#000000" opacity="0.1" points="244.928261 202.935088 244.648261 203.126206 244.428261 202.839529 244.563261 202.605941 244.688261 202.563471"></polygon>
                <path d="M292.290528,166.245809 L272.583385,134.854735 C272.230802,134.288852 271.688599,133.900887 271.076351,133.776398 C270.464103,133.651909 269.8321,133.801123 269.31972,134.191132 L225.390217,167.445603 C224.320156,168.255778 224.046673,169.868347 224.778882,171.050294 L244.433075,202.839529 L292.290528,166.245809 Z" id="Shape" fill="#9C9CA1"></path>
                <path d="M292.290528,166.245809 L272.583385,134.854735 C272.230802,134.288852 271.688599,133.900887 271.076351,133.776398 C270.464103,133.651909 269.8321,133.801123 269.31972,134.191132 L225.390217,167.445603 C224.320156,168.255778 224.046673,169.868347 224.778882,171.050294 L244.433075,202.839529 L292.290528,166.245809 Z" id="Shape" fill="#000000" opacity="0.1"></path>
                <path d="M292.771894,166.320132 L273.064752,134.929059 C272.711277,134.362824 272.168233,133.974747 271.5552,133.850282 C270.942167,133.725818 270.309414,133.875171 269.796273,134.265456 L225.871584,167.541162 C224.802272,168.35137 224.526987,169.961884 225.255435,171.145853 L244.909627,202.951015 L292.771894,166.320132 Z" id="Shape" fill="#9C9CA1"></path>
                <path d="M309.244255,172.526147 L292.877795,166.728912 L245.010714,203.322632 L261.637112,209.321603 C262.391616,209.591924 263.217515,209.454214 263.865839,208.949985 L309.379037,173.508279 C309.55369,173.400223 309.649439,173.184201 309.619471,172.965831 C309.589503,172.747461 309.440079,172.572363 309.244255,172.526147 Z" id="Shape" fill="#464A5F"></path>
                <path d="M309.244255,172.526147 L292.877795,166.728912 L245.010714,203.322632 L261.637112,209.321603 C262.391616,209.591924 263.217515,209.454214 263.865839,208.949985 L309.379037,173.508279 C309.55369,173.400223 309.649439,173.184201 309.619471,172.965831 C309.589503,172.747461 309.440079,172.572363 309.244255,172.526147 Z" id="Shape" fill="#000000" opacity="0.1"></path>
                <path d="M309.143168,172.159838 L292.776708,166.357294 L244.909627,202.951015 L261.536025,208.939368 C262.289514,209.214677 263.116792,209.078707 263.764752,208.573059 L309.27795,173.131353 C309.445653,173.020517 309.535911,172.808824 309.506342,172.595684 C309.476772,172.382544 309.333248,172.2103 309.143168,172.159838 Z" id="Shape" fill="#464A5F"></path>
                <g id="Group" opacity="0.1" transform="translate(237.313665, 151.301471)" fill="#000000">
                    <path d="M47.7274845,13.6171324 L46.5192547,11.7059559 C46.3683972,11.475639 46.0798597,11.417143 45.8645963,11.5732353 L44.0690994,12.8951324 C43.8598267,13.0578774 43.8027117,13.3728283 43.9391304,13.6118235 L45.051087,15.4964559 C45.1956591,15.7309413 45.4817974,15.7987309 45.7009317,15.6504118 L47.5927019,14.3391324 C47.8065002,14.1776957 47.8660722,13.858582 47.7274845,13.6171324 Z" id="Shape"></path>
                    <path d="M44.5023292,16.0804265 L43.2892857,14.1745588 C43.1384282,13.9442419 42.8498908,13.885746 42.6346273,14.0418382 L40.8439441,15.3743529 C40.6330051,15.5354545 40.5737175,15.8507101 40.7091615,16.0910441 L41.821118,17.9756765 C41.9641732,18.2120205 42.2506092,18.2822206 42.4709627,18.1349412 L44.3675466,16.8236618 C44.4757879,16.745723 44.551057,16.623046 44.5764086,16.4832488 C44.6017603,16.3434515 44.5750638,16.1982837 44.5023292,16.0804265 Z" id="Shape"></path>
                    <path d="M41.1135093,18.6658235 L39.9004658,16.7599559 C39.7496084,16.529639 39.4610709,16.471143 39.2458075,16.6272353 L37.4503106,17.95975 C37.2381764,18.1228472 37.1807879,18.4416503 37.3203416,18.68175 L38.4322981,20.5663824 C38.5768702,20.8008678 38.8630085,20.8686573 39.0821429,20.7203382 L40.973913,19.4090588 C41.0829364,19.3319699 41.1591958,19.209684 41.1854645,19.0698248 C41.2117332,18.9299656 41.185795,18.7843326 41.1135093,18.6658235 Z" id="Shape"></path>
                    <path d="M37.6813665,21.2883824 L36.468323,19.3772059 C36.3178154,19.1500498 36.0327607,19.0918318 35.8184783,19.2444853 L34.0229814,20.5823088 C33.8137087,20.7450539 33.7565937,21.0600048 33.8930124,21.299 L35.0049689,23.1836324 C35.1477247,23.4168696 35.4306976,23.4867385 35.65,23.3428971 L37.5465839,22.0263088 C37.653457,21.9484116 37.7277679,21.8267454 37.7530649,21.6882458 C37.7783619,21.5497461 37.7525582,21.4058384 37.6813665,21.2883824 Z" id="Shape"></path>
                    <path d="M34.2540373,23.9056324 L33.0409938,21.9997647 C32.8901363,21.7694478 32.6015988,21.7109518 32.3863354,21.8670441 L30.5956522,23.1995588 C30.3847132,23.3606604 30.3254255,23.6759159 30.4608696,23.91625 L31.5728261,25.8008824 C31.7158812,26.0372264 32.0023173,26.1074265 32.2226708,25.9601471 L34.1192547,24.6435588 C34.2261278,24.5656616 34.3004387,24.4439954 34.3257357,24.3054958 C34.3510327,24.1669961 34.325229,24.0230884 34.2540373,23.9056324 Z" id="Shape"></path>
                    <path d="M30.9759317,26.7617794 L29.4692547,24.3940441 C29.4369959,24.3408395 29.3867283,24.3041358 29.3297193,24.2921599 C29.2727104,24.2801841 29.2137283,24.2939378 29.1659938,24.3303382 L26.9613354,25.9707647 C26.9123141,26.0054974 26.878047,26.0605456 26.8662719,26.1234791 C26.8544969,26.1864126 26.8662069,26.2519241 26.8987578,26.3052206 L28.2802795,28.6464118 C28.3460066,28.7583553 28.4810101,28.7914421 28.5835404,28.7207353 L30.913354,27.1280882 C30.9699765,27.0926372 31.0095817,27.0314986 31.0216368,26.9609321 C31.0336919,26.8903656 31.0169749,26.817524 30.9759317,26.7617794 Z" id="Shape"></path>
                    <path d="M27.5486025,29.3790294 L26.0322981,27.0112941 C25.9991411,26.9577405 25.9480321,26.9209302 25.8902402,26.9089795 C25.8324482,26.8970289 25.7727195,26.9109194 25.7242236,26.9475882 L23.5195652,28.5880147 C23.4214017,28.6638801 23.3957994,28.812119 23.4618012,28.9224706 L24.843323,31.2636618 C24.8730701,31.3198014 24.9226886,31.3597259 24.9802427,31.3738313 C25.0377968,31.3879367 25.0980773,31.3749465 25.1465839,31.3379853 L27.4715839,29.7453382 C27.5318852,29.7142732 27.5758903,29.6543601 27.5909246,29.5828554 C27.6059589,29.5113507 27.5903532,29.4361929 27.5486025,29.3790294 Z" id="Shape"></path>
                    <path d="M24.5111801,31.6989853 L23.0045031,29.3524853 C22.9342253,29.24603 22.8000721,29.220197 22.7012422,29.2940882 L20.4965839,30.9292059 C20.3961348,31.0053735 20.3684629,31.1556175 20.4340062,31.2689706 L21.815528,33.6101618 C21.8827801,33.7196586 22.0158166,33.7522633 22.1187888,33.6844853 L24.4486025,32.0918382 C24.5136204,32.0579677 24.5596769,31.9913873 24.5721186,31.9132805 C24.5845602,31.8351736 24.5618376,31.7552675 24.5111801,31.6989853 Z" id="Shape"></path>
                    <path d="M21.1127329,34.2896912 L19.6060559,31.9219559 C19.5357781,31.8155006 19.4016249,31.7896675 19.302795,31.8635588 L17.0981366,33.4986765 C17.0487995,33.5344113 17.0144411,33.5903919 17.0026914,33.6541865 C16.9909417,33.7179812 17.0027734,33.7843092 17.035559,33.8384412 L18.4170807,36.1796324 C18.4843329,36.2891291 18.6173694,36.3217339 18.7203416,36.2539559 L21.0501553,34.6613088 C21.1070193,34.6247465 21.1466262,34.5626849 21.1586448,34.4913121 C21.1706635,34.4199393 21.1539022,34.3463325 21.1127329,34.2896912 Z" id="Shape"></path>
                    <path d="M17.8201863,36.7848382 L16.3135093,34.4171029 C16.2812505,34.3638984 16.2309829,34.3271946 16.173974,34.3152187 C16.1169651,34.3032429 16.057983,34.3169966 16.0102484,34.3533971 L13.8055901,35.9938235 C13.7565687,36.0285562 13.7223016,36.0836045 13.7105266,36.1465379 C13.6987516,36.2094714 13.7104616,36.2749829 13.7430124,36.3282794 L15.1245342,38.6694706 C15.1902613,38.7814141 15.3252647,38.8145009 15.427795,38.7437941 L17.7576087,37.1511471 C17.8142311,37.115696 17.8538363,37.0545574 17.8658914,36.9839909 C17.8779465,36.9134244 17.8612296,36.8405829 17.8201863,36.7848382 Z" id="Shape"></path>
                    <path d="M14.5276398,39.3224559 L13.0354037,36.9494118 C12.965126,36.8429565 12.8309727,36.8171234 12.7321429,36.8910147 L10.5274845,38.5261324 C10.4781473,38.5618672 10.4437889,38.6178478 10.4320392,38.6816424 C10.4202896,38.7454371 10.4321213,38.8117651 10.4649068,38.8658971 L11.8464286,41.2070882 C11.9136808,41.316585 12.0467172,41.3491897 12.1496894,41.2814118 L14.4795031,39.6887647 C14.5338902,39.6505817 14.5704871,39.5881524 14.5797342,39.5177838 C14.5889813,39.4474152 14.5699604,39.3760962 14.5276398,39.3224559 Z" id="Shape"></path>
                    <path d="M11.2350932,41.8335294 L9.72841615,39.4657941 C9.69615735,39.4125895 9.64588978,39.3758858 9.58888083,39.3639099 C9.53187189,39.3519341 9.47288979,39.3656878 9.42515528,39.4020882 L7.22049689,41.0318971 C7.17147556,41.0666297 7.13720847,41.121678 7.12543344,41.1846115 C7.11365841,41.2475449 7.12536842,41.3130565 7.15791925,41.3663529 L8.53944099,43.7075441 C8.60516811,43.8194876 8.74017156,43.8525745 8.84270186,43.7818676 L11.1725155,42.1892206 C11.2261047,42.153525 11.2634884,42.0944791 11.2754132,42.0266985 C11.287338,41.9589179 11.2726894,41.8887376 11.2350932,41.8335294 Z" id="Shape"></path>
                    <path d="M45.5613354,10.1610882 L44.3482919,8.24991176 C44.1974344,8.01959484 43.908897,7.9610989 43.6936335,8.11719118 L41.9173913,9.45501471 C41.7064524,9.61611629 41.6471647,9.93137182 41.7826087,10.1717059 L42.8945652,12.0563382 C43.0391373,12.2908237 43.3252756,12.3586132 43.5444099,12.2102941 L45.4409938,10.8990147 C45.6586655,10.7316608 45.7124918,10.4016018 45.5613354,10.1610882 Z" id="Shape"></path>
                    <path d="M40.8198758,2.60663235 L39.6068323,0.684838235 C39.4563247,0.457682122 39.17127,0.399464175 38.9569876,0.552117647 L37.1614907,1.88463235 C36.9505517,2.04573393 36.891264,2.36098946 37.0267081,2.60132353 L38.1386646,4.48595588 C38.2817197,4.72229994 38.5681558,4.79250003 38.7885093,4.64522059 L40.6850932,3.33394118 C40.9017901,3.17219939 40.9616519,2.8491751 40.8198758,2.60663235 Z" id="Shape"></path>
                    <path d="M42.3313665,12.6243824 L41.118323,10.7185147 C40.9678154,10.4913586 40.6827607,10.4331406 40.4684783,10.5857941 L38.6729814,11.9183088 C38.4637087,12.0810539 38.4065937,12.3960048 38.5430124,12.635 L39.6501553,14.5196324 C39.7932104,14.7559764 40.0796465,14.8261765 40.3,14.6788971 L42.1965839,13.3676176 C42.3048252,13.2896789 42.3800943,13.1670019 42.4054459,13.0272046 C42.4307976,12.8874074 42.404101,12.7422395 42.3313665,12.6243824 Z" id="Shape"></path>
                    <path d="M38.9425466,15.2097794 L37.7295031,13.3039118 C37.5786456,13.0735948 37.2901082,13.0150989 37.0748447,13.1711912 L35.2841615,14.4877794 C35.0703632,14.6492161 35.0107912,14.9683298 35.1493789,15.2097794 L36.2613354,17.0944118 C36.4059075,17.3288972 36.6920458,17.3966868 36.9111801,17.2483676 L38.807764,15.9370882 C39.0244609,15.7753464 39.0843228,15.4523222 38.9425466,15.2097794 Z" id="Shape"></path>
                    <path d="M35.5104037,17.8323382 L34.3021739,15.9211618 C34.1513164,15.6908448 33.862779,15.6323489 33.6475155,15.7884412 L31.8520186,17.1421912 C31.642746,17.3049362 31.585631,17.6198871 31.7220497,17.8588824 L32.8340062,19.7435147 C32.9785783,19.9780002 33.2647166,20.0457897 33.4838509,19.8974706 L35.3756211,18.5861912 C35.4866493,18.5082218 35.5638845,18.383511 35.5893485,18.2410879 C35.6148126,18.0986648 35.5862841,17.950954 35.5104037,17.8323382 Z" id="Shape"></path>
                    <path d="M37.6669255,5.19202941 L36.453882,3.28616176 C36.3033744,3.05900565 36.0183197,3.0007877 35.8040373,3.15344118 L34.0085404,4.48595588 C33.7976014,4.64705746 33.7383137,4.96231299 33.8737578,5.20264706 L34.9857143,7.08727941 C35.1287694,7.32362347 35.4152055,7.39382356 35.635559,7.24654412 L37.5321429,5.93526471 C37.6403842,5.85732592 37.7156533,5.73464892 37.7410049,5.5948517 C37.7663566,5.45505448 37.73966,5.3098866 37.6669255,5.19202941 Z" id="Shape"></path>
                    <path d="M34.2781056,7.78273529 L33.0650621,5.87155882 C32.9142046,5.6412419 32.6256672,5.58274595 32.4104037,5.73883824 L30.6197205,7.05542647 C30.4087815,7.21652805 30.3494939,7.53178358 30.4849379,7.77211765 L31.5968944,9.65675 C31.7414665,9.89123546 32.0276048,9.959025 32.2467391,9.81070588 L34.143323,8.49942647 C34.3542619,8.33832489 34.4135496,8.02306936 34.2781056,7.78273529 Z" id="Shape"></path>
                    <path d="M30.8459627,10.3999853 L29.6329193,8.49411765 C29.4838764,8.26514519 29.1985667,8.20454438 28.9830745,8.35608824 L27.1875776,9.70983824 C26.978305,9.87258326 26.92119,10.1875342 27.0576087,10.4265294 L28.1695652,12.3111618 C28.3126204,12.5475058 28.5990564,12.6177059 28.8194099,12.4704265 L30.7111801,11.1538382 C30.8222083,11.0758688 30.8994435,10.9511581 30.9249075,10.808735 C30.9503716,10.6663118 30.9218431,10.518601 30.8459627,10.3999853 Z" id="Shape"></path>
                    <path d="M32.0830745,20.4495882 L30.8700311,18.5437206 C30.7209882,18.3147481 30.4356785,18.2541473 30.2201863,18.4056912 L28.4391304,19.7435147 C28.2298578,19.9062597 28.1727428,20.2212106 28.3091615,20.4602059 L29.4018634,22.3448382 C29.5446191,22.5780755 29.827592,22.6479444 30.0468944,22.5041029 L31.9434783,21.1875147 C32.0511354,21.1104591 32.1264338,20.98918 32.1526458,20.8506196 C32.1788578,20.7120591 32.1538128,20.5676915 32.0830745,20.4495882 Z" id="Shape"></path>
                    <path d="M28.6557453,23.0668382 L27.4427019,21.1609706 C27.2918444,20.9306537 27.0033069,20.8721577 26.7880435,21.02825 L24.9973602,22.3607647 C24.7864213,22.5218663 24.7271336,22.8371218 24.8625776,23.0774559 L25.9745342,24.9620882 C26.1175893,25.1984323 26.4040254,25.2686324 26.6243789,25.1213529 L28.5209627,23.8100735 C28.6292041,23.7321347 28.7044732,23.6094577 28.7298248,23.4696605 C28.7551764,23.3298633 28.7284799,23.1846954 28.6557453,23.0668382 Z" id="Shape"></path>
                    <path d="M25.3776398,25.9229853 L23.8709627,23.55525 C23.8387039,23.5020454 23.7884364,23.4653416 23.7314274,23.4533658 C23.6744185,23.44139 23.6154364,23.4551437 23.5677019,23.4915441 L21.3630435,25.1319706 C21.3140221,25.1667033 21.2797551,25.2217515 21.26798,25.284685 C21.256205,25.3476185 21.267915,25.41313 21.3004658,25.4664265 L22.6819876,27.8076176 C22.7126995,27.8625504 22.7622567,27.9014428 22.8193797,27.9154426 C22.8765027,27.9294424 22.9363314,27.9173584 22.9852484,27.8819412 L25.3150621,26.2892941 C25.3716846,26.2538431 25.4112898,26.1927045 25.4233448,26.122138 C25.4353999,26.0515715 25.418683,25.9787299 25.3776398,25.9229853 Z" id="Shape"></path>
                    <path d="M22.3402174,28.2429412 L20.8335404,25.8698971 C20.7632626,25.7634418 20.6291093,25.7376087 20.5302795,25.8115 L18.3304348,27.4466176 C18.2299857,27.5227852 18.2023139,27.6730293 18.2678571,27.7863824 L19.6493789,30.1275735 C19.7166311,30.2370703 19.8496675,30.269675 19.9526398,30.2018971 L22.2824534,28.60925 C22.3411875,28.5756769 22.3823245,28.5137659 22.3936595,28.4418856 C22.4049944,28.3700052 22.3852253,28.2964123 22.3402174,28.2429412 Z" id="Shape"></path>
                    <path d="M18.9417702,30.8336471 L17.4350932,28.4659118 C17.3648154,28.3594565 17.2306621,28.3336234 17.1318323,28.4075147 L14.9271739,30.0426324 C14.8781526,30.077365 14.8438855,30.1324133 14.8321105,30.1953468 C14.8203354,30.2582802 14.8320454,30.3237918 14.8645963,30.3770882 L16.246118,32.7235882 C16.3133702,32.833085 16.4464066,32.8656897 16.5493789,32.7979118 L18.8791925,31.2052647 C18.9360566,31.1687024 18.9756634,31.1066408 18.9876821,31.035268 C18.9997007,30.9638951 18.9829395,30.8902884 18.9417702,30.8336471 Z" id="Shape"></path>
                    <path d="M15.6492236,33.3500294 L14.1425466,30.9822941 C14.1102878,30.9290895 14.0600202,30.8923858 14.0030113,30.8804099 C13.9460023,30.8684341 13.8870202,30.8821878 13.8392857,30.9185882 L11.6346273,32.5377794 C11.585606,32.5725121 11.5513389,32.6275603 11.5395639,32.6904938 C11.5277888,32.7534273 11.5394989,32.8189388 11.5720497,32.8722353 L12.9535714,35.2134265 C13.0192985,35.32537 13.154302,35.3584568 13.2568323,35.28775 L15.586646,33.6951029 C15.6373628,33.6593411 15.672692,33.6023479 15.6844976,33.5372481 C15.6963031,33.4721483 15.6835675,33.4045533 15.6492236,33.3500294 Z" id="Shape"></path>
                    <path d="M36.6849379,11.6157059 L35.4718944,9.70983824 C35.3213868,9.48268212 35.0363322,9.42446417 34.8220497,9.57711765 L33.0265528,10.9149412 C32.8172801,11.0776862 32.7601651,11.3926371 32.8965839,11.6316324 L34.0085404,13.5162647 C34.1527976,13.7476413 34.4354784,13.8151115 34.6535714,13.6702206 L36.5501553,12.3589412 C36.6583966,12.2810024 36.7336657,12.1583254 36.7590173,12.0185282 C36.784369,11.8787309 36.7576725,11.7335631 36.6849379,11.6157059 Z" id="Shape"></path>
                    <path d="M33.252795,14.2382647 L32.0397516,12.3270882 C31.8888941,12.0967713 31.6003566,12.0382754 31.3850932,12.1943676 L29.5944099,13.5321912 C29.383471,13.6932928 29.3241833,14.0085483 29.4596273,14.2488824 L30.5715839,16.1335147 C30.714639,16.3698588 31.0010751,16.4400588 31.2214286,16.2927794 L33.1180124,14.9761912 C33.2248856,14.898294 33.2991964,14.7766278 33.3244935,14.6381281 C33.3497905,14.4996284 33.3239868,14.3557208 33.252795,14.2382647 Z" id="Shape"></path>
                    <path d="M29.8302795,16.8555147 L28.617236,14.9496471 C28.4663785,14.7193301 28.1778411,14.6608342 27.9625776,14.8169265 L26.1670807,16.1494412 C25.9578081,16.3121862 25.9006931,16.6271371 26.0371118,16.8661324 L27.1490683,18.7507647 C27.2921235,18.9871088 27.5785595,19.0573088 27.798913,18.9100294 L29.6906832,17.5934412 C29.7983404,17.5163856 29.8736388,17.3951065 29.8998508,17.256546 C29.9260628,17.1179856 29.9010177,16.973618 29.8302795,16.8555147 Z" id="Shape"></path>
                    <path d="M26.3981366,19.4727647 L25.1850932,17.5668971 C25.0345856,17.3397409 24.7495309,17.281523 24.5352484,17.4341765 L22.7397516,18.7666912 C22.5304789,18.9294362 22.4733639,19.2443871 22.6097826,19.4833824 L23.7217391,21.38925 C23.8644949,21.6224873 24.1474678,21.6923561 24.3667702,21.5485147 L26.263354,20.2372353 C26.3772383,20.1593087 26.4565087,20.0325473 26.4820897,19.8874552 C26.5076707,19.7423631 26.4772458,19.592078 26.3981366,19.4727647 Z" id="Shape"></path>
                    <path d="M23.1440994,22.3289118 L21.6374224,19.9611765 C21.6051636,19.9079719 21.554896,19.8712681 21.497887,19.8592923 C21.4408781,19.8473164 21.381896,19.8610702 21.3341615,19.8974706 L19.1295031,21.5378971 C19.0296807,21.6120901 19.0018863,21.7606415 19.0669255,21.8723529 L20.4484472,24.2188529 C20.4799403,24.2729169 20.5298542,24.3107089 20.5869178,24.3236951 C20.6439814,24.3366814 20.7033826,24.3237668 20.7517081,24.2878676 L23.0815217,22.6952206 C23.1381442,22.6597695 23.1777494,22.598631 23.1898045,22.5280645 C23.2018596,22.4574979 23.1851426,22.3846564 23.1440994,22.3289118 Z" id="Shape"></path>
                    <path d="M20.0874224,24.6488676 L18.5807453,22.2758235 C18.5087157,22.168669 18.3730074,22.1429448 18.2726708,22.2174265 L16.0728261,23.8525441 C15.972377,23.9287117 15.9447052,24.0789557 16.0102484,24.1923088 L17.3917702,26.5335 C17.4574973,26.6454435 17.5925007,26.6785303 17.6950311,26.6078235 L20.0248447,25.0151765 C20.0814672,24.9797254 20.1210724,24.9185869 20.1331275,24.8480203 C20.1451825,24.7774538 20.1284656,24.7046123 20.0874224,24.6488676 Z" id="Shape"></path>
                    <path d="M16.6889752,27.2289559 L15.1822981,24.8559118 C15.1102685,24.7487572 14.9745602,24.723033 14.8742236,24.7975147 L12.6695652,26.4326324 C12.571296,26.5103732 12.544008,26.6585333 12.6069876,26.7723971 L13.993323,29.1135882 C14.0590501,29.2255318 14.1940535,29.2586186 14.2965839,29.1879118 L16.6215839,27.5952647 C16.6803384,27.5621629 16.722211,27.5013339 16.7353303,27.4300232 C16.7484496,27.3587126 16.7313853,27.2846952 16.6889752,27.2289559 Z" id="Shape"></path>
                    <path d="M13.3964286,29.7559559 L11.8897516,27.3882206 C11.8565946,27.334667 11.8054855,27.2978566 11.7476936,27.285906 C11.6899017,27.2739554 11.6301729,27.2878458 11.581677,27.3245147 L9.37701863,28.9649412 C9.27885516,29.0408066 9.25325277,29.1890455 9.31925466,29.2993971 L10.7007764,31.6405882 C10.7305235,31.6967279 10.780142,31.7366524 10.8376961,31.7507578 C10.8952502,31.7648632 10.9555308,31.7518729 11.0040373,31.7149118 L13.3290373,30.1222647 C13.3877918,30.0891629 13.4296644,30.0283339 13.4427837,29.9570232 C13.455903,29.8857126 13.4388387,29.8116952 13.3964286,29.7559559 Z" id="Shape"></path>
                    <path d="M12.356677,35.8611029 L10.85,33.4933676 C10.7797222,33.3869124 10.645569,33.3610793 10.5467391,33.4349706 L8.34208075,35.0700882 C8.29305941,35.1048209 8.25879232,35.1598692 8.24701729,35.2228026 C8.23524226,35.2857361 8.24695227,35.3512476 8.27950311,35.4045441 L9.66102484,37.7510441 C9.72827704,37.8605409 9.86131348,37.8931456 9.96428571,37.8253676 L12.2940994,36.2327206 C12.3509634,36.1961583 12.3905703,36.1340967 12.4025889,36.0627239 C12.4146076,35.991351 12.3978463,35.9177442 12.356677,35.8611029 Z" id="Shape"></path>
                    <path d="M9.06413043,38.3774853 L7.55745342,36.00975 C7.52519462,35.9565454 7.47492705,35.9198416 7.4179181,35.9078658 C7.36090915,35.89589 7.30192705,35.9096437 7.25419255,35.9460441 L5.04953416,37.5864706 C5.00051282,37.6212033 4.96624574,37.6762515 4.95447071,37.739185 C4.94269567,37.8021185 4.95440569,37.86763 4.98695652,37.9209265 L6.36847826,40.2621176 C6.43420538,40.3740612 6.56920882,40.407148 6.67173913,40.3364412 L9.0015528,38.7437941 C9.05817524,38.7083431 9.09778044,38.6472045 9.10983553,38.576638 C9.12189062,38.5060715 9.10517365,38.4332299 9.06413043,38.3774853 Z" id="Shape"></path>
                    <path d="M14.2340062,23.3322794 L12.7899068,21.1025735 C12.6954135,20.9584973 12.5142461,20.9232379 12.3807453,21.0229412 L10.3012422,22.5678088 C10.2358259,22.6154032 10.190375,22.6898626 10.1750057,22.7746144 C10.1596363,22.8593662 10.1756238,22.9473773 10.2194099,23.0190588 L11.5190994,25.2222206 C11.5597848,25.2957559 11.6257416,25.3479817 11.7019264,25.3669866 C11.7781111,25.3859915 11.8580271,25.3701547 11.9234472,25.3230882 L14.1232919,23.7994559 C14.1965477,23.7561893 14.2501299,23.6811977 14.2711431,23.592529 C14.2921564,23.5038602 14.2786977,23.4095441 14.2340062,23.3322794 Z" id="Shape"></path>
                    <path d="M10.9414596,25.8486618 L9.52142857,23.6189559 C9.47751745,23.5476681 9.40965249,23.4986242 9.33285805,23.4826819 C9.25606361,23.4667395 9.17667475,23.4852137 9.11226708,23.5340147 L7.03276398,25.1054265 C6.96766302,25.1520203 6.92230385,25.2255484 6.90690953,25.3094389 C6.89151522,25.3933295 6.90738123,25.480523 6.95093168,25.5513676 L8.25062112,27.7598382 C8.33878478,27.9080594 8.51754826,27.9526533 8.65496894,27.8607059 L10.8548137,26.3370735 C10.9299535,26.2895818 10.9826823,26.2084349 10.9993114,26.1146989 C11.0159405,26.020963 10.9948298,25.9238832 10.9414596,25.8486618 Z" id="Shape"></path>
                    <path d="M7.64891304,28.3650441 L6.22888199,26.1300294 C6.13438863,25.9859532 5.95322126,25.9506938 5.8197205,26.0503971 L3.74021739,27.5952647 C3.67480109,27.6428591 3.6293502,27.7173185 3.61398081,27.8020703 C3.59861143,27.8868221 3.61459898,27.9748332 3.65838509,28.0465147 L4.95807453,30.2496765 C4.99875997,30.3232117 5.06471676,30.3754376 5.14090153,30.3944425 C5.2170863,30.4134474 5.29700229,30.3976106 5.36242236,30.3505441 L7.56226708,28.8269118 C7.63124783,28.7801578 7.67966266,28.7040657 7.69606687,28.6166229 C7.71247107,28.52918 7.69540868,28.4381474 7.64891304,28.3650441 Z" id="Shape"></path>
                    <path d="M4.39968944,30.9451324 L2.89301242,28.5720882 C2.82273465,28.465633 2.68858139,28.4397999 2.58975155,28.5136912 L0.385093168,30.1488088 C0.2846441,30.2249764 0.256972254,30.3752204 0.322515528,30.4885735 L1.70403727,32.8297647 C1.77128946,32.9392615 1.9043259,32.9718662 2.00729814,32.9040882 L4.3371118,31.3114412 C4.39658989,31.2788767 4.43877719,31.2174332 4.45107179,31.1454647 C4.46336639,31.0734962 4.44434495,30.9993343 4.39968944,30.9451324 Z" id="Shape"></path>
                    <path d="M43.3614907,6.44491176 L42.0569876,4.40101471 C41.9046626,4.17250061 41.6163743,4.116393 41.4023292,4.27360294 L36.309472,8.20744118 C36.1046813,8.37141761 36.0499905,8.68227985 36.1843168,8.91882353 L37.4118012,11.0105 C37.4831892,11.1275063 37.5938573,11.2083775 37.7193859,11.2352689 C37.8449145,11.2621604 37.9749864,11.2328619 38.0809006,11.1538382 L43.2507764,7.16691176 C43.4563521,6.99731267 43.5050665,6.6796325 43.3614907,6.44491176 Z" id="Shape"></path>
                    <path d="M10.0942547,32.1927059 L8.49611801,29.7028676 C8.46306965,29.6489654 8.41151519,29.6122624 8.35336834,29.6012404 C8.29522149,29.5902183 8.23551393,29.6058311 8.18804348,29.6444706 L2.69083851,33.8915294 C2.59329323,33.9654238 2.56757347,34.1119786 2.63307453,34.2206765 L4.13493789,36.7848382 C4.16736416,36.8407721 4.21904154,36.8797354 4.27806943,36.8927554 C4.33709733,36.9057753 4.39838766,36.8917297 4.44782609,36.8538529 L10.0364907,32.5377794 C10.1382182,32.4596361 10.1639769,32.3057574 10.0942547,32.1927059 Z" id="Shape"></path>
                    <path d="M27.5822981,13.1499559 L26.1093168,10.7716029 C26.0405274,10.6633419 25.9061149,10.6351059 25.8060559,10.7078971 L13.5986025,19.7966029 C13.4987801,19.870796 13.4709857,20.0193473 13.5360248,20.1310588 L15.0427019,22.6792941 C15.0751281,22.735228 15.1268055,22.7741913 15.1858334,22.7872112 C15.2448613,22.8002312 15.3061516,22.7861856 15.3555901,22.7483088 L27.5245342,13.4897206 C27.5730928,13.4531529 27.6064698,13.3967865 27.6173058,13.3330498 C27.6281418,13.2693131 27.6155469,13.2034403 27.5822981,13.1499559 Z" id="Shape"></path>
                </g>
                <path d="M285.363665,164.982309 L284.150621,163.071132 C283.999764,162.840815 283.711226,162.782319 283.495963,162.938412 L281.70528,164.276235 C281.494341,164.437337 281.435053,164.752592 281.570497,164.992926 L282.682453,166.877559 C282.825509,167.113903 283.111945,167.184103 283.332298,167.036824 L285.228882,165.720235 C285.335755,165.642338 285.410066,165.520672 285.435363,165.382172 C285.46066,165.243673 285.434856,165.099765 285.363665,164.982309 Z" id="Shape" fill="#464A5F"></path>
                <path d="M282.119255,167.445603 L280.906211,165.539735 C280.755704,165.312579 280.470649,165.254361 280.256366,165.407015 L278.46087,166.739529 C278.249931,166.900631 278.190643,167.215887 278.326087,167.456221 L279.438043,169.340853 C279.581099,169.577197 279.867535,169.647397 280.087888,169.500118 L281.984472,168.188838 C282.092713,168.110899 282.167982,167.988222 282.193334,167.848425 C282.218686,167.708628 282.191989,167.56346 282.119255,167.445603 Z" id="Shape" fill="#464A5F"></path>
                <path d="M278.749689,170.036309 L277.536646,168.130441 C277.385788,167.900124 277.097251,167.841628 276.881988,167.997721 L275.091304,169.335544 C274.880365,169.496646 274.821078,169.811901 274.956522,170.052235 L276.068478,171.936868 C276.21305,172.171353 276.499189,172.239143 276.718323,172.090824 L278.614907,170.779544 C278.723148,170.701605 278.798417,170.578928 278.823769,170.439131 C278.849121,170.299334 278.822424,170.154166 278.749689,170.036309 Z" id="Shape" fill="#464A5F"></path>
                <path d="M275.312733,172.653559 L274.099689,170.742382 C273.949182,170.515226 273.664127,170.457008 273.449845,170.609662 L271.654348,171.947485 C271.547659,172.027101 271.474355,172.150557 271.450834,172.290237 C271.427313,172.429917 271.455537,172.574167 271.529193,172.690721 L272.641149,174.575353 C272.784204,174.811697 273.07064,174.881897 273.290994,174.734618 L275.182764,173.418029 C275.295878,173.339227 275.374152,173.212059 275.398808,173.067031 C275.423465,172.922004 275.392279,172.772201 275.312733,172.653559 Z" id="Shape" fill="#464A5F"></path>
                <path d="M271.885404,175.270809 L270.67236,173.364941 C270.521853,173.137785 270.236798,173.079567 270.022516,173.232221 L268.227019,174.564735 C268.017746,174.72748 267.960631,175.042431 268.09705,175.281426 L269.204193,177.166059 C269.347248,177.402403 269.633684,177.472603 269.854037,177.325324 L271.750621,176.008735 C271.857494,175.930838 271.931805,175.809172 271.957102,175.670672 C271.982399,175.532173 271.956595,175.388265 271.885404,175.270809 Z" id="Shape" fill="#464A5F"></path>
                <path d="M268.607298,178.126956 L267.100621,175.759221 C267.068362,175.706016 267.018095,175.669312 266.961086,175.657336 C266.904077,175.645361 266.845095,175.659114 266.79736,175.695515 L264.592702,177.335941 C264.543681,177.370674 264.509413,177.425722 264.497638,177.488656 C264.485863,177.551589 264.497573,177.617101 264.530124,177.670397 L265.911646,180.011588 C265.977373,180.123532 266.112377,180.156619 266.214907,180.085912 L268.54472,178.493265 C268.601343,178.457814 268.640948,178.396675 268.653003,178.326109 C268.665058,178.255542 268.648341,178.182701 268.607298,178.126956 Z" id="Shape" fill="#464A5F"></path>
                <path d="M265.179969,180.744206 L263.673292,178.376471 C263.640135,178.322917 263.589026,178.286107 263.531234,178.274156 C263.473442,178.262205 263.413713,178.276096 263.365217,178.312765 L261.165373,179.953191 C261.116351,179.987924 261.082084,180.042972 261.070309,180.105906 C261.058534,180.168839 261.070244,180.234351 261.102795,180.287647 L262.484317,182.634147 C262.51581,182.688211 262.565724,182.726003 262.622787,182.738989 C262.679851,182.751976 262.739252,182.739061 262.787578,182.703162 L265.117391,181.110515 C265.172737,181.073835 265.211234,181.012823 265.223189,180.942842 C265.235144,180.872862 265.219417,180.800582 265.179969,180.744206 Z" id="Shape" fill="#464A5F"></path>
                <path d="M262.142547,183.064162 L260.63587,180.691118 C260.565592,180.584662 260.431439,180.558829 260.332609,180.632721 L258.12795,182.246603 C258.027501,182.322771 257.999829,182.473015 258.065373,182.586368 L259.446894,184.927559 C259.514147,185.037056 259.647183,185.06966 259.750155,185.001882 L262.079969,183.409235 C262.130686,183.373473 262.166015,183.31648 262.177821,183.25138 C262.189626,183.186281 262.176891,183.118686 262.142547,183.064162 Z" id="Shape" fill="#464A5F"></path>
                <path d="M258.744099,185.660176 L257.237422,183.308368 C257.167145,183.201912 257.032991,183.176079 256.934161,183.249971 L254.729503,184.885088 C254.680166,184.920823 254.645808,184.976804 254.634058,185.040598 C254.622308,185.104393 254.63414,185.170721 254.666925,185.224853 L256.048447,187.566044 C256.115699,187.675541 256.248736,187.708146 256.351708,187.640368 L258.681522,186.047721 C258.744758,186.013405 258.789405,185.94794 258.801761,185.871418 C258.814117,185.794897 258.792706,185.716458 258.744099,185.660176 Z" id="Shape" fill="#464A5F"></path>
                <path d="M255.451553,188.17125 L253.944876,185.803515 C253.912617,185.75031 253.862349,185.713606 253.80534,185.701631 C253.748332,185.689655 253.689349,185.703408 253.641615,185.739809 L251.436957,187.380235 C251.387935,187.414968 251.353668,187.470016 251.341893,187.53295 C251.330118,187.595883 251.341828,187.661395 251.374379,187.714691 L252.755901,190.055882 C252.786613,190.110815 252.83617,190.149708 252.893293,190.163707 C252.950416,190.177707 253.010244,190.165623 253.059161,190.130206 L255.388975,188.537559 C255.445598,188.502108 255.485203,188.440969 255.497258,188.370403 C255.509313,188.299836 255.492596,188.226995 255.451553,188.17125 Z" id="Shape" fill="#464A5F"></path>
                <path d="M252.159006,190.687632 L250.652329,188.314588 C250.582051,188.208133 250.447898,188.1823 250.349068,188.256191 L248.14441,189.891309 C248.043961,189.967476 248.016289,190.11772 248.081832,190.231074 L249.463354,192.572265 C249.530606,192.681761 249.663643,192.714366 249.766615,192.646588 L252.096429,191.053941 C252.153051,191.01849 252.192656,190.957352 252.204711,190.886785 C252.216766,190.816219 252.200049,190.743377 252.159006,190.687632 Z" id="Shape" fill="#464A5F"></path>
                <path d="M248.86646,193.198706 L247.359783,190.830971 C247.327524,190.777766 247.277256,190.741062 247.220247,190.729086 C247.163238,190.717111 247.104256,190.730864 247.056522,190.767265 L244.851863,192.407691 C244.802842,192.442424 244.768575,192.497472 244.7568,192.560406 C244.745025,192.623339 244.756735,192.688851 244.789286,192.742147 L246.170807,195.083338 C246.201519,195.138271 246.251077,195.177163 246.3082,195.191163 C246.365323,195.205163 246.425151,195.193079 246.474068,195.157662 L248.803882,193.565015 C248.860504,193.529564 248.90011,193.468425 248.912165,193.397859 C248.92422,193.327292 248.907503,193.254451 248.86646,193.198706 Z" id="Shape" fill="#464A5F"></path>
                <path d="M283.192702,161.542191 L281.979658,159.631015 C281.829151,159.403859 281.544096,159.345641 281.329814,159.498294 L279.534317,160.836118 C279.325044,160.998863 279.267929,161.313814 279.404348,161.552809 L280.511491,163.437441 C280.654546,163.673785 280.940982,163.743985 281.161335,163.596706 L283.057919,162.280118 C283.164792,162.20222 283.239103,162.080554 283.2644,161.942055 C283.289697,161.803555 283.263894,161.659647 283.192702,161.542191 Z" id="Shape" fill="#464A5F"></path>
                <path d="M278.451242,153.971809 L277.238199,152.065941 C277.087691,151.838785 276.802636,151.780567 276.588354,151.933221 L274.792857,153.265735 C274.583584,153.42848 274.526469,153.743431 274.662888,153.982426 L275.774845,155.867059 C275.9176,156.100296 276.200573,156.170165 276.419876,156.026324 L278.31646,154.715044 C278.424701,154.637105 278.49997,154.514428 278.525322,154.374631 C278.550673,154.234834 278.523977,154.089666 278.451242,153.971809 Z" id="Shape" fill="#464A5F"></path>
                <path d="M279.962733,163.989559 L278.749689,162.073074 C278.599182,161.845917 278.314127,161.787699 278.099845,161.940353 L276.304348,163.272868 C276.095075,163.435613 276.03796,163.750564 276.174379,163.989559 L277.286335,165.874191 C277.429091,166.107428 277.712064,166.177297 277.931366,166.033456 L279.82795,164.722176 C280.047586,164.56016 280.107743,164.233172 279.962733,163.989559 Z" id="Shape" fill="#464A5F"></path>
                <path d="M276.573913,166.574956 L275.380124,164.669088 C275.229617,164.441932 274.944562,164.383714 274.73028,164.536368 L272.934783,165.868882 C272.722648,166.03198 272.66526,166.350783 272.804814,166.590882 L273.911957,168.475515 C274.056529,168.71 274.342667,168.77779 274.561801,168.629471 L276.458385,167.318191 C276.563538,167.236927 276.634895,167.112698 276.65659,166.973126 C276.678285,166.833553 276.64852,166.690206 276.573913,166.574956 Z" id="Shape" fill="#464A5F"></path>
                <path d="M273.146584,169.197515 L271.93354,167.286338 C271.782683,167.056021 271.494145,166.997525 271.278882,167.153618 L269.488199,168.491441 C269.27726,168.652543 269.217972,168.967798 269.353416,169.208132 L270.465373,171.092765 C270.608428,171.329109 270.894864,171.399309 271.115217,171.252029 L273.011801,169.935441 C273.118674,169.857544 273.192985,169.735878 273.218282,169.597378 C273.243579,169.458878 273.217776,169.314971 273.146584,169.197515 Z" id="Shape" fill="#464A5F"></path>
                <path d="M275.298292,156.557206 L274.085248,154.640721 C273.934741,154.413564 273.649686,154.355347 273.435404,154.508 L271.639907,155.840515 C271.430634,156.00326 271.373519,156.318211 271.509938,156.557206 L272.621894,158.441838 C272.76465,158.675075 273.047623,158.744944 273.266925,158.601103 L275.163509,157.289824 C275.383145,157.127808 275.443302,156.800819 275.298292,156.557206 Z" id="Shape" fill="#464A5F"></path>
                <path d="M271.909472,159.147912 L270.696429,157.236735 C270.545921,157.009579 270.260866,156.951361 270.046584,157.104015 L268.251087,158.441838 C268.040148,158.60294 267.98086,158.918195 268.116304,159.158529 L269.228261,161.043162 C269.371316,161.279506 269.657752,161.349706 269.878106,161.202426 L271.774689,159.885838 C271.881563,159.807941 271.955873,159.686275 271.98117,159.547775 C272.006468,159.409275 271.980664,159.265368 271.909472,159.147912 Z" id="Shape" fill="#464A5F"></path>
                <path d="M268.482143,161.765162 L267.269099,159.859294 C267.118242,159.628977 266.829704,159.570481 266.614441,159.726574 L264.823758,161.059088 C264.612819,161.22019 264.553531,161.535445 264.688975,161.775779 L265.800932,163.665721 C265.943987,163.902065 266.230423,163.972265 266.450776,163.824985 L268.342547,162.508397 C268.45157,162.431308 268.527829,162.309022 268.554098,162.169163 C268.580367,162.029304 268.554429,161.883671 268.482143,161.765162 Z" id="Shape" fill="#464A5F"></path>
                <path d="M269.714441,171.814765 L268.501398,169.908897 C268.35089,169.681741 268.065835,169.623523 267.851553,169.776176 L266.056056,171.098074 C265.846783,171.260819 265.789668,171.575769 265.926087,171.814765 L267.038043,173.699397 C267.180799,173.932634 267.463772,174.002503 267.683075,173.858662 L269.579658,172.542074 C269.796355,172.380332 269.856217,172.057307 269.714441,171.814765 Z" id="Shape" fill="#464A5F"></path>
                <path d="M266.287112,174.432015 L265.074068,172.526147 C264.923561,172.298991 264.638506,172.240773 264.424224,172.393426 L262.628727,173.752485 C262.417788,173.913587 262.3585,174.228842 262.493944,174.469176 L263.605901,176.353809 C263.748956,176.590153 264.035392,176.660353 264.255745,176.513074 L266.152329,175.201794 C266.267668,175.123918 266.347983,174.996125 266.373625,174.849681 C266.399266,174.703237 266.367868,174.551653 266.287112,174.432015 Z" id="Shape" fill="#464A5F"></path>
                <path d="M263.009006,177.288162 L261.502329,174.920426 C261.47007,174.867222 261.419803,174.830518 261.362794,174.818542 C261.305785,174.806566 261.246803,174.82032 261.199068,174.856721 L259.013665,176.497147 C258.964643,176.53188 258.930376,176.586928 258.918601,176.649861 C258.906826,176.712795 258.918536,176.778306 258.951087,176.831603 L260.332609,179.172794 C260.363321,179.227727 260.412878,179.266619 260.470001,179.280619 C260.527124,179.294619 260.586953,179.282535 260.63587,179.247118 L262.965683,177.654471 C263.018047,177.614311 263.052608,177.551641 263.060857,177.481891 C263.069106,177.412141 263.050277,177.341791 263.009006,177.288162 Z" id="Shape" fill="#464A5F"></path>
                <path d="M259.976398,179.592191 L258.46972,177.219147 C258.397691,177.111993 258.261983,177.086268 258.161646,177.16075 L255.956988,178.795868 C255.858718,178.873608 255.83143,179.021769 255.89441,179.135632 L257.280745,181.476824 C257.346472,181.588767 257.481476,181.621854 257.584006,181.551147 L259.909006,179.9585 C259.967761,179.925398 260.009633,179.864569 260.022753,179.793259 C260.035872,179.721948 260.018808,179.647931 259.976398,179.592191 Z" id="Shape" fill="#464A5F"></path>
                <path d="M256.573137,182.204132 L255.06646,179.831088 C254.996182,179.724633 254.862029,179.6988 254.763199,179.772691 L252.55854,181.407809 C252.458091,181.483976 252.430419,181.63422 252.495963,181.747574 L253.877484,184.088765 C253.944737,184.198261 254.077773,184.230866 254.180745,184.163088 L256.510559,182.570441 C256.570037,182.537877 256.612224,182.476433 256.624519,182.404465 C256.636814,182.332496 256.617792,182.258334 256.573137,182.204132 Z" id="Shape" fill="#464A5F"></path>
                <path d="M253.285404,184.715206 L251.793168,182.347471 C251.760909,182.294266 251.710641,182.257562 251.653632,182.245586 C251.596623,182.233611 251.537641,182.247364 251.489907,182.283765 L249.285248,183.924191 C249.185426,183.998384 249.157632,184.146936 249.222671,184.258647 L250.604193,186.599838 C250.66992,186.711782 250.804923,186.744869 250.907453,186.674162 L253.237267,185.081515 C253.293044,185.044585 253.330818,184.981964 253.340149,184.910957 C253.34948,184.839951 253.32938,184.768079 253.285404,184.715206 Z" id="Shape" fill="#464A5F"></path>
                <path d="M274.316304,162.986191 L273.108075,161.075015 C272.957217,160.844698 272.66868,160.786202 272.453416,160.942294 L270.657919,162.280118 C270.448647,162.442863 270.391532,162.757814 270.52795,162.996809 L271.639907,164.881441 C271.784479,165.115927 272.070617,165.183716 272.289752,165.035397 L274.181522,163.724118 C274.288395,163.64622 274.362706,163.524554 274.388003,163.386055 C274.4133,163.247555 274.387496,163.103647 274.316304,162.986191 Z" id="Shape" fill="#464A5F"></path>
                <path d="M270.888975,165.603441 L269.675932,163.697574 C269.526889,163.468601 269.241579,163.408 269.026087,163.559544 L267.23059,164.897368 C267.021317,165.060113 266.964202,165.375064 267.100621,165.614059 L268.212578,167.498691 C268.355333,167.731928 268.638306,167.801797 268.857609,167.657956 L270.754193,166.341368 C270.861066,166.26347 270.935377,166.141804 270.960674,166.003305 C270.985971,165.864805 270.960167,165.720897 270.888975,165.603441 Z" id="Shape" fill="#464A5F"></path>
                <path d="M267.461646,168.220691 L266.234161,166.320132 C266.083304,166.089815 265.794767,166.031319 265.579503,166.187412 L263.827329,167.514618 C263.61639,167.675719 263.557103,167.990975 263.692547,168.231309 L264.804503,170.115941 C264.947558,170.352285 265.233994,170.422485 265.454348,170.275206 L267.350932,168.963926 C267.455323,168.881848 267.525714,168.757234 267.546498,168.617713 C267.567281,168.478191 267.53674,168.335289 267.461646,168.220691 Z" id="Shape" fill="#464A5F"></path>
                <path d="M264.029503,170.837941 L262.81646,168.932074 C262.665952,168.704917 262.380897,168.646699 262.166615,168.799353 L260.371118,170.131868 C260.161845,170.294613 260.10473,170.609564 260.241149,170.848559 L261.353106,172.733191 C261.495861,172.966428 261.778834,173.036297 261.998137,172.892456 L263.89472,171.581176 C264.002962,171.503238 264.078231,171.380561 264.103583,171.240763 C264.128934,171.100966 264.102238,170.955798 264.029503,170.837941 Z" id="Shape" fill="#464A5F"></path>
                <path d="M260.756211,173.694088 L259.249534,171.326353 C259.216377,171.272799 259.165268,171.235989 259.107476,171.224038 C259.049684,171.212088 258.989955,171.225978 258.94146,171.262647 L256.736801,172.903074 C256.636979,172.977267 256.609184,173.125818 256.674224,173.237529 L258.055745,175.584029 C258.088147,175.638442 258.138906,175.676334 258.196751,175.689293 C258.254595,175.702251 258.314737,175.689202 258.36382,175.653044 L260.68882,174.060397 C260.746207,174.025893 260.786839,173.96519 260.799836,173.894545 C260.812833,173.8239 260.796866,173.750531 260.756211,173.694088 Z" id="Shape" fill="#464A5F"></path>
                <path d="M257.718789,176.014044 L256.212112,173.646309 C256.179853,173.593104 256.129585,173.5564 256.072576,173.544425 C256.015568,173.532449 255.956585,173.546203 255.908851,173.582603 L253.718634,175.217721 C253.618184,175.293888 253.590513,175.444132 253.656056,175.557485 L255.037578,177.898676 C255.10483,178.008173 255.237866,178.040778 255.340839,177.973 L257.670652,176.380353 C257.725039,176.34217 257.761636,176.279741 257.770883,176.209372 C257.78013,176.139003 257.761109,176.067684 257.718789,176.014044 Z" id="Shape" fill="#464A5F"></path>
                <path d="M254.320342,178.610059 L252.813665,176.237015 C252.741635,176.12986 252.605927,176.104136 252.50559,176.178618 L250.305745,177.813735 C250.205296,177.889903 250.177624,178.040147 250.243168,178.1535 L251.624689,180.494691 C251.690417,180.606635 251.82542,180.639722 251.92795,180.569015 L254.257764,178.976368 C254.314386,178.940917 254.353992,178.879778 254.366047,178.809212 C254.378102,178.738645 254.361385,178.665803 254.320342,178.610059 Z" id="Shape" fill="#464A5F"></path>
                <path d="M251.027795,181.121132 L249.521118,178.753397 C249.487961,178.699843 249.436852,178.663033 249.37906,178.651082 C249.321268,178.639132 249.261539,178.653022 249.213043,178.689691 L247.013199,180.330118 C246.964177,180.36485 246.92991,180.419899 246.918135,180.482832 C246.90636,180.545766 246.91807,180.611277 246.950621,180.664574 L248.332143,183.011074 C248.363636,183.065137 248.41355,183.102929 248.470613,183.115916 C248.527677,183.128902 248.587078,183.115987 248.635404,183.080088 L250.965217,181.487441 C251.020563,181.450762 251.05906,181.389749 251.071015,181.319769 C251.08297,181.249788 251.067243,181.177509 251.027795,181.121132 Z" id="Shape" fill="#464A5F"></path>
                <path d="M249.992857,187.231588 L248.48618,184.858544 C248.41415,184.75139 248.278442,184.725665 248.178106,184.800147 L245.973447,186.435265 C245.872998,186.511432 245.845326,186.661676 245.91087,186.775029 L247.292391,189.116221 C247.359643,189.225717 247.49268,189.258322 247.595652,189.190544 L249.925466,187.597897 C249.98422,187.564795 250.026093,187.503966 250.039212,187.432656 C250.052332,187.361345 250.035267,187.287328 249.992857,187.231588 Z" id="Shape" fill="#464A5F"></path>
                <path d="M246.700311,189.742662 L245.193634,187.374926 C245.160477,187.321373 245.109368,187.284563 245.051576,187.272612 C244.993784,187.260661 244.934055,187.274552 244.885559,187.311221 L242.680901,188.951647 C242.581078,189.02584 242.553284,189.174391 242.618323,189.286103 L243.999845,191.627294 C244.031477,191.682574 244.081883,191.721561 244.139785,191.73553 C244.197686,191.749499 244.258249,191.737284 244.307919,191.701618 L246.632919,190.108971 C246.691674,190.075869 246.733546,190.01504 246.746666,189.943729 C246.759785,189.872418 246.742721,189.798401 246.700311,189.742662 Z" id="Shape" fill="#464A5F"></path>
                <path d="M251.865373,174.702765 L250.445342,172.46775 C250.350848,172.323674 250.169681,172.288414 250.03618,172.388118 L247.942236,173.932985 C247.808308,174.033888 247.771967,174.234285 247.860404,174.384235 L249.160093,176.592706 C249.250052,176.742251 249.432053,176.784757 249.569255,176.688265 L251.764286,175.164632 C251.835637,175.12058 251.8871,175.04571 251.906287,174.958045 C251.925473,174.870381 251.910646,174.777863 251.865373,174.702765 Z" id="Shape" fill="#464A5F"></path>
                <path d="M248.572826,177.213838 L247.152795,174.984132 C247.108884,174.912845 247.041019,174.863801 246.964225,174.847858 C246.88743,174.831916 246.808041,174.85039 246.743634,174.899191 L244.66413,176.449368 C244.530817,176.548286 244.494351,176.747006 244.582298,176.895309 L245.881988,179.103779 C245.971946,179.252706 246.152256,179.297157 246.291149,179.204647 L248.490994,177.681015 C248.558413,177.631383 248.605009,177.55405 248.620384,177.466276 C248.635759,177.378502 248.618632,177.287593 248.572826,177.213838 Z" id="Shape" fill="#464A5F"></path>
                <path d="M245.28028,179.730221 L243.83618,177.495206 C243.743456,177.351815 243.563825,177.316438 243.431832,177.415574 L241.347516,178.960441 C241.213587,179.061344 241.177246,179.26174 241.265683,179.411691 L242.565373,181.620162 C242.655332,181.769707 242.837333,181.812213 242.974534,181.715721 L245.174379,180.192088 C245.246532,180.148965 245.299029,180.074508 245.319148,179.986761 C245.339267,179.899015 245.325173,179.805986 245.28028,179.730221 Z" id="Shape" fill="#464A5F"></path>
                <path d="M242.03587,182.315618 L240.529193,179.942574 C240.457163,179.835419 240.321455,179.809695 240.221118,179.884176 L238.01646,181.519294 C237.917666,181.597112 237.892173,181.747055 237.958696,181.859059 L239.340217,184.20025 C239.405945,184.312194 239.540948,184.34528 239.643478,184.274574 L241.973292,182.681926 C242.029914,182.646475 242.06952,182.585337 242.081575,182.51477 C242.09363,182.444204 242.076913,182.371362 242.03587,182.315618 Z" id="Shape" fill="#464A5F"></path>
                <path d="M280.997671,157.826015 L279.712422,155.776809 C279.560097,155.548295 279.271809,155.492187 279.057764,155.649397 L273.936025,159.583235 C273.731234,159.747212 273.676543,160.058074 273.81087,160.294618 L275.043168,162.386294 C275.114556,162.5033 275.225224,162.584172 275.350752,162.611063 C275.476281,162.637954 275.606353,162.608656 275.712267,162.529632 L280.877329,158.542706 C281.083298,158.376716 281.136086,158.062339 280.997671,157.826015 Z" id="Shape" fill="#464A5F"></path>
                <path d="M247.725621,183.557882 L246.127484,181.068044 C246.094436,181.014142 246.042882,180.977439 245.984735,180.966417 C245.926588,180.955395 245.86688,180.971008 245.81941,181.009647 L240.322205,185.256706 C240.224041,185.332571 240.198439,185.48081 240.264441,185.591162 L241.771118,188.150015 C241.803544,188.205949 241.855222,188.244912 241.91425,188.257932 C241.973277,188.270952 242.034568,188.256906 242.084006,188.219029 L247.672671,183.902956 C247.77277,183.823155 247.796338,183.669564 247.725621,183.557882 Z" id="Shape" fill="#464A5F"></path>
                <path d="M265.213665,164.515132 L263.769565,162.152706 C263.700502,162.041924 263.564271,162.011406 263.461491,162.083691 L251.258851,171.161779 C251.20983,171.196512 251.175563,171.25156 251.163787,171.314494 C251.152012,171.377427 251.163722,171.442939 251.196273,171.496235 L252.698137,174.044471 C252.730563,174.100404 252.78224,174.139368 252.841268,174.152388 C252.900296,174.165408 252.961586,174.151362 253.011025,174.113485 L265.179969,164.854897 C265.273168,164.770627 265.288143,164.619629 265.213665,164.515132 Z" id="Shape" fill="#464A5F"></path>
                <path d="M265.271429,156.40325 L258.782609,146.003265 C258.40896,145.401727 257.665271,145.245275 257.117081,145.652882 L239.243944,158.887779 C238.978099,159.08604 238.794696,159.392799 238.734191,159.740384 C238.673686,160.087969 238.741052,160.447822 238.921429,160.740559 L245.535404,171.437838 C245.715079,171.731332 245.993655,171.933463 246.309159,171.999267 C246.624663,172.06507 246.950928,171.989087 247.215373,171.788221 L264.963354,158.245412 C265.226238,158.046645 265.406512,157.740588 265.464323,157.3949 C265.522134,157.049213 265.452721,156.692367 265.271429,156.40325 Z" id="Shape" fill="#000000" opacity="0.1"></path>
                <path d="M265.569876,156.466956 L259.081056,146.066971 C258.705866,145.468037 257.964282,145.312027 257.415528,145.716588 L239.56646,158.962103 C239.298788,159.158593 239.113548,159.46505 239.052054,159.813124 C238.99056,160.161197 239.057927,160.521936 239.23913,160.814882 L245.833851,171.501544 C246.013526,171.795038 246.292102,171.997169 246.607606,172.062972 C246.92311,172.128775 247.249375,172.052792 247.51382,171.851926 L265.271429,158.309118 C265.532771,158.108709 265.711099,157.801883 265.767086,157.456303 C265.823074,157.110723 265.752121,156.754775 265.569876,156.466956 Z" id="Shape" fill="#939498"></path>
                <path d="M292.040217,168.210074 L247.884472,202.037897 L261.550466,206.948559 C262.297508,207.217382 263.115655,207.083707 263.759938,206.587559 L305.932453,174.246206 C306.100261,174.137018 306.191839,173.927036 306.164433,173.714294 C306.137027,173.501552 305.996041,173.328011 305.807298,173.274691 L292.040217,168.210074 Z" id="Shape" fill="url(#linearGradient-1)"></path>
            </g>
        </g>
    </g>
</svg>