<?xml version="1.0" encoding="UTF-8"?>
<svg width="100%" height="100%" viewBox="0 0 1344 1167" version="1.1" xmlns="http://www.w3.org/2000/svg" xmlns:xlink="http://www.w3.org/1999/xlink">
    <!-- Generator: Sketch 49.1 (51147) - http://www.bohemiancoding.com/sketch -->
    <title>front-end 2</title>
    <desc>Created with Sketch.</desc>
    <defs>
            <linearGradient x1="50%" y1="0%" x2="50%" y2="100%" id="linearGradient-2">
            <stop stop-color="#FFD500" offset="0%"></stop>
            <stop stop-color="#FFAB00" offset="100%"></stop>
        </linearGradient>
        <linearGradient x1="50%" y1="0%" x2="50%" y2="100%" id="linearGradient-5">
            <stop stop-color="#000083" offset="0%"></stop>
            <stop stop-color="#00004C" offset="100%"></stop>
        </linearGradient>
    </defs>
    <g id="Page-1" stroke="none" stroke-width="1" fill="none" fill-rule="evenodd">
        <path d="M760.90933,1158.75069 C1142.24651,1158.75069 1465.19082,909.800348 1299.47752,651.797265 C1201.02855,498.519641 985.415836,415.306942 871.384856,294.214043 C745.263431,160.281939 643.559968,0 443.292189,0 C61.955009,0 42.8184033,172.713997 42.8184033,547.690756 C42.8184033,730.335849 -81.4665645,1000.32775 93.45302,1099.90788 C268.372605,1199.48802 565.315301,1158.75069 760.90933,1158.75069 Z" id="Oval" fill="url(#linearGradient-5)" fill-rule="nonzero"></path>
        <g id="front-end" transform="translate(109.000000, 321.000000)" fill-rule="nonzero">
            <path d="M831.87,0 L28.18,0 C20.748694,0.0317417444 13.634822,3.01635628 8.40543,8.29639178 C3.176037,13.5764273 0.260121,20.7187331 0.3,28.15 L0.3,593.35 C0.260121,600.781267 3.176037,607.923573 8.40543,613.203608 C13.634822,618.483644 20.748694,621.468258 28.18,621.5 L831.87,621.5 C839.301306,621.468258 846.41518,618.483644 851.64457,613.203608 C856.87396,607.923573 859.78988,600.781267 859.75,593.35 L859.75,28.15 C859.78988,20.7187331 856.87396,13.5764273 851.64457,8.29639178 C846.41518,3.01635628 839.301306,0.0317417444 831.87,0 Z" id="Shape" fill="url(#linearGradient-1)"></path>
            <path d="M856.12,59.88 L856.12,586.61 C856.12,601.87515 843.74515,614.25 828.48,614.25 L31.89,614.25 C16.62485,614.25 4.25,601.87515 4.25,586.61 L4.25,59.88 L856.12,59.88 Z" id="Shape" fill="#F6F7F9"></path>
            <path d="M212.34,331.37 L212.34,614.24 L31.89,614.24 C16.63,614.24 4.25,601.62 4.25,586.06 L4.25,331.37 L212.34,331.37 Z" id="Shape" fill="#DDE1EC"></path>
            <rect id="Rectangle-path" fill="#DDE1EC" x="274.12" y="124.37" width="346.82" height="9.75"></rect>
            <rect id="Rectangle-path" fill="#DDE1EC" x="274.12" y="193.73" width="209.17" height="9.75"></rect>
            <rect id="Rectangle-path" fill="#DDE1EC" x="529.9" y="193.73" width="70.45" height="9.75"></rect>
            <g id="Group" opacity="0.1" transform="translate(68.000000, 437.000000)" fill="#00004C">
                <rect id="Rectangle-path" x="0.19" y="0.04" width="70.45" height="9.75"></rect>
            </g>
            <rect id="Rectangle-path" fill="#DDE1EC" x="529.9" y="284.77" width="70.45" height="9.75"></rect>
            <rect id="Rectangle-path" fill="#DDE1EC" x="529.9" y="375.81" width="70.45" height="9.75"></rect>
            <rect id="Rectangle-path" fill="#DDE1EC" x="529.9" y="224.08" width="70.45" height="9.75"></rect>
            <rect id="Rectangle-path" fill="#DDE1EC" x="651.28" y="224.08" width="70.45" height="9.75"></rect>
            <rect id="Rectangle-path" fill="#DDE1EC" x="529.9" y="254.42" width="70.45" height="9.75"></rect>
            <rect id="Rectangle-path" fill="#DDE1EC" x="651.28" y="254.42" width="70.45" height="9.75"></rect>
            <rect id="Rectangle-path" fill="#DDE1EC" x="651.28" y="310.78" width="70.45" height="9.75"></rect>
            <rect id="Rectangle-path" fill="#DDE1EC" x="651.28" y="341.13" width="70.45" height="9.75"></rect>
            <rect id="Rectangle-path" fill="#DDE1EC" x="651.28" y="406.16" width="70.45" height="9.75"></rect>
            <rect id="Rectangle-path" fill="#DDE1EC" x="274.12" y="224.08" width="209.17" height="9.75"></rect>
            <rect id="Rectangle-path" fill="#DDE1EC" x="274.12" y="254.42" width="209.17" height="9.75"></rect>
            <rect id="Rectangle-path" fill="#DDE1EC" x="274.12" y="284.77" width="209.17" height="9.75"></rect>
            <rect id="Rectangle-path" fill="#DDE1EC" x="274.12" y="315.12" width="209.17" height="9.75"></rect>
            <rect id="Rectangle-path" fill="#DDE1EC" x="274.12" y="345.46" width="209.17" height="9.75"></rect>
            <rect id="Rectangle-path" fill="#DDE1EC" x="274.12" y="375.81" width="209.17" height="9.75"></rect>
            <rect id="Rectangle-path" fill="#DDE1EC" x="274.12" y="406.16" width="209.17" height="9.75"></rect>
            <rect id="Rectangle-path" fill="url(#linearGradient-2)" x="4.25" y="59.34" width="208.09" height="277.45"></rect>
            <path d="M856.12,31.7 C856.11448,16.4387549 843.74125,4.069999 828.48,4.07 L31.89,4.07 C16.62485,4.07 4.25,16.4448495 4.25,31.71 L4.25,63.14 L856.12,63.14 L856.12,31.7 Z" id="Shape" fill="#E8EAF1"></path>
            <circle id="Oval" fill="#FF5252" cx="37.85" cy="33.33" r="10.84"></circle>
            <circle id="Oval" fill="url(#linearGradient-2)" cx="73.61" cy="33.33" r="10.84"></circle>
            <circle id="Oval" fill="#69F0AE" cx="109.38" cy="33.33" r="10.84"></circle>
            <path d="M169,198.07 C169.018851,211.969854 164.243766,225.450992 155.48,236.24 C155.15,236.65 154.82,237.05 154.48,237.45 C154.413746,237.517986 154.35352,237.591595 154.3,237.67 C151.19519,241.263315 147.681394,244.481778 143.83,247.26 L143.33,247.63 C142.64,248.12 141.94,248.63 141.23,249.05 L140.74,249.36 L139.69,250.01 C139.53476,250.108211 139.374546,250.198332 139.21,250.28 C139.079767,250.373453 138.942717,250.45702 138.8,250.53 C137.26,251.43 135.67,252.26 134.04,253.02 C133.86,253.12 133.66,253.2 133.47,253.29 C133.28,253.38 133.06,253.49 132.84,253.57 C132.62,253.65 132.19,253.86 131.84,253.99 C128.347538,255.468425 124.720791,256.607016 121.01,257.39 C117.473032,258.147143 113.875289,258.585565 110.26,258.7 L109.71,258.7 L108.28,258.7 C103.508965,258.716459 98.752683,258.169335 94.11,257.07 L93.24,256.86 C91.2,256.326667 89.2,255.706667 87.24,255 C86.05,254.56 84.87,254.08 83.72,253.57 C83.43,253.44 83.15,253.32 82.86,253.18 L81.99,252.79 L81.23,252.4 L80.43,251.99 L79.54,251.52 L78.54,250.95 L78.38,250.86 C74.117308,248.441027 70.162058,245.516559 66.6,242.15 C66.3,241.86 65.99,241.58 65.7,241.27 C65.41,240.96 65.07,240.65 64.77,240.33 C45.709373,220.701042 42.139682,190.745289 56.053865,167.186873 C69.968048,143.628457 97.925207,132.293241 124.317013,139.509615 C150.708819,146.725988 169.008728,170.709382 169,198.07 Z" id="Shape" fill="#FFFFFF"></path>
            <path d="M151,219.69 C150.873964,220.594151 150.676684,221.486929 150.41,222.36 C150.378118,222.496787 150.334627,222.630605 150.28,222.76 C150.28,222.38 150.21,221.98 150.19,221.55 C149.89,217.1 149.63,210.07 150.53,205.91 C151.38,202 145.19,203.19 141.06,206.69 C139.85296,207.673604 138.870881,208.904613 138.18,210.3 C138.09,210.18 138,210.07 137.9,209.95 C135.892593,207.463132 132.894899,205.982564 129.7,205.9 C123.174365,205.473969 117.005524,202.770014 112.27,198.26 C112.07,197.45 111.92,196.65 111.8,195.84 C111.8,195.59 111.72,195.33 111.69,195.08 C113.999502,193.01453 115.616228,190.287395 116.32,187.27 C116.32,187.27 116.32,187.19 116.32,187.15 C116.569108,186.060801 116.696555,184.947317 116.7,183.83 C116.7,183.37 116.7,182.93 116.65,182.49 C116.65,182.33 116.65,182.16 116.6,182 C116.55,181.84 116.6,181.62 116.52,181.44 C116.77099,181.328619 117.014796,181.201707 117.25,181.06 C118.671223,180.186435 119.799374,178.908561 120.49,177.39 L120.49,177.31 C120.73874,176.770976 120.952515,176.216496 121.13,175.65 C121.616848,174.025105 121.895738,172.345045 121.96,170.65 C121.96,170.44 121.96,170.23 121.96,170 C121.96,168.69 121.7,167.05 120.42,166.78 C118.73,166.42 117.5,168.97 115.79,168.7 C115.270713,168.574107 114.802823,168.291278 114.45,167.89 C113.29,166.74 112.51,165.26 111.35,164.1 C109.538211,162.420511 107.196698,161.426606 104.73,161.29 C102.283613,161.155394 99.830725,161.38114 97.45,161.96 C96.135425,162.179458 94.865428,162.611797 93.69,163.24 C92.516182,163.882307 91.690914,165.015675 91.44,166.33 C91.412631,166.612672 91.412631,166.897328 91.44,167.18 C91.44,167.6 91.44,168.04 91.44,168.47 C91.427283,168.654529 91.403911,168.838169 91.37,169.02 C91.009941,170.217243 90.175111,171.214703 89.06,171.78 C88,172.41 86.82,172.85 85.81,173.57 C84.203917,174.810194 83.093848,176.583467 82.68,178.57 C82.417559,179.680166 82.299915,180.819632 82.33,181.96 C82.31592,182.989351 82.372721,184.018451 82.5,185.04 C82.927958,188.476036 83.893057,191.82351 85.36,194.96 C85.756569,195.834657 86.231859,196.671436 86.78,197.46 C86.78,197.46 86.78,197.46 86.78,197.46 C86.92,197.66 87.06,197.84 87.21,198.01 C88.153177,199.067111 89.24052,199.986134 90.44,200.74 L91.13,201.21 C91.600899,201.61396 92.232608,201.776505 92.84,201.65 C93.028745,201.579474 93.204468,201.478095 93.36,201.35 C94.222857,200.537105 94.680695,199.383352 94.61,198.2 L94.61,198.04 C94.614825,198.096564 94.614825,198.153436 94.61,198.21 C94.615383,198.286572 94.615383,198.363428 94.61,198.44 L94.71,198.44 C94.736379,198.949659 94.736379,199.460341 94.71,199.97 C94.72147,200.176508 94.72147,200.383492 94.71,200.59 C94.71,200.71 94.71,200.83 94.71,200.94 L94.55,201.08 C94.22,201.36 93.62,201.85 92.79,202.5 C89.33458,205.18649 85.559048,207.433671 81.55,209.19 C77.095095,211.037642 73.71129,214.796201 72.34,219.42 C71.352215,222.772611 69.880008,225.962956 67.97,228.89 C67.49,229.59 66.17,234.89 64.63,240.33 C64.93,240.66 65.25,240.97 65.56,241.27 C65.87,241.57 66.16,241.86 66.46,242.15 C70.022058,245.516559 73.977308,248.441027 78.24,250.86 L78.4,250.95 L79.4,251.52 L80.29,251.99 C80.29,251.24 80.19,250.55 80.14,249.9 C80.14,249.51 80.08,249.14 80.04,248.78 C80.27,248.4 80.47,248.06 80.66,247.78 C80.66,248.07 80.73,248.39 80.76,248.78 C80.87,249.78 80.98,251.01 81.1,252.42 C81.1,252.866667 81.133333,253.333333 81.2,253.82 C81.2,253.33 81.15,252.82 81.11,252.42 L81.87,252.81 L82.74,253.2 C83.02,253.34 83.3,253.46 83.6,253.59 C84.75,254.1 85.93,254.59 87.12,255.02 C89.06,255.733333 91.06,256.353333 93.12,256.88 L93.99,257.09 C98.637581,258.204369 103.40069,258.764932 108.18,258.76 L109.61,258.76 L110.16,258.76 C113.806649,258.637796 117.434768,258.185954 121,257.41 C124.710791,256.627016 128.337538,255.488425 131.83,254.01 C132.156667,253.876667 132.49,253.736667 132.83,253.59 C133.05,253.5 133.25,253.41 133.46,253.31 C133.67,253.21 133.85,253.14 134.03,253.04 C133.03,249.53 132.49,247.28 132.49,247.28 L133.81,243.89 L133.97,243.48 L134.37,242.43 C134.37,242.56 134.43,242.69 134.48,242.82 C135.308459,245.710171 136.937908,248.306889 139.18,250.31 C139.344546,250.228332 139.50476,250.138211 139.66,250.04 L140.71,249.39 L141.2,249.08 C141.92,248.61 142.61,248.15 143.3,247.66 L143.8,247.29 C147.651394,244.511778 151.16519,241.293315 154.27,237.7 L154.45,237.48 C154.79,237.08 155.12,236.68 155.45,236.27 L151,219.69 Z M142.28,224.25 C142.313934,224.297532 142.34403,224.34769 142.37,224.4 L142.29,224.33 L142.28,224.25 Z" id="Shape" fill="url(#linearGradient-3)"></path>
            <path d="M142.44,222.38 L142.44,222.46 L142.51,222.53 C142.49,222.47 142.46,222.43 142.44,222.38 Z M81.28,252.38 C81.18,250.98 81.08,249.72 80.99,248.64 C80.92,247.88 80.85,247.2 80.79,246.64 C80.783999,246.613671 80.783999,246.586329 80.79,246.56 C80.79,246.42 80.79,246.29 80.79,246.16 C79.826213,247.631277 79.034371,249.20825 78.43,250.86 L78.59,250.95 L79.59,251.52 L80.48,251.99 L81.28,252.4 C81.28,252.846667 81.313333,253.313333 81.38,253.8 C81.33,253.32 81.31,252.86 81.28,252.41 L81.28,252.38 Z M94.59,195.21 L94.64,195.3 C94.643572,195.323197 94.643572,195.346803 94.64,195.37 C94.631269,195.324017 94.614332,195.279982 94.59,195.24 L94.59,195.21 Z" id="Shape" fill="url(#linearGradient-4)"></path>
            <path d="M112,185 C112,185 108.39,201.22 118.31,209.79 C128.23,218.36 94.88,225.07 89,217.9 C83.12,210.73 93.08,207.07 93.08,207.07 C93.08,207.07 98.08,203.01 93.08,190.85 L112,185 Z" id="Shape" fill="#E0A17E"></path>
            <path d="M121,257.41 C117.463032,258.167143 113.865289,258.605565 110.25,258.72 L109.7,258.72 L108.27,258.72 C103.501516,258.729119 98.748627,258.175287 94.11,257.07 L93.24,256.86 C91.2,256.326667 89.2,255.706667 87.24,255 L86.24,240 L90.58,219.23 L93.13,206.99 L93.85,203.57 L94.58,204.57 L94.74,204.79 L94.94,205.05 L102.94,215.7 L111.13,206.88 L111.55,206.42 L113.8,203.99 L114.65,203.08 L115.05,206.17 L116.49,217.28 L119.16,237.77 L121,257.41 Z" id="Shape" fill="#F0F1F5"></path>
            <path d="M143.32,247.63 C142.63,248.12 141.93,248.63 141.22,249.05 L140.73,249.36 L139.68,250.01 C139.52476,250.108211 139.364546,250.198332 139.2,250.28 C139.069767,250.373453 138.932717,250.45702 138.79,250.53 C136.586767,248.650894 134.931848,246.211703 134,243.47 C133.882359,243.121899 133.782233,242.768122 133.7,242.41 C133.695175,242.353436 133.695175,242.296564 133.7,242.24 L133.13,243.74 L131.38,248.07 C131.38,248.07 131.9,250.19 132.83,253.55 C132.503333,253.703333 132.17,253.843333 131.83,253.97 C128.337538,255.448425 124.710791,256.587016 121,257.37 C117.463032,258.127143 113.865289,258.565565 110.25,258.68 L109.7,258.68 C109.194403,254.031598 109.017296,249.353323 109.17,244.68 L110.49,219.51 L111.16,206.81 L111.53,199.81 C111.53,199.81 111.66,199.95 111.91,200.18 C112.16,200.41 112.33,200.58 112.63,200.85 C117.093268,204.749745 122.715727,207.072523 128.63,207.46 C131.940855,207.555274 135.017679,209.189837 136.95,211.88 C138.757255,214.449793 139.919949,217.416551 140.34,220.53 L140.64,223.28 C140.64,223.28 140.64,223.28 140.64,223.28 L140.72,224.06 L140.83,225.06 L143.32,247.63 Z" id="Shape" fill="#000000" opacity="0.1"></path>
            <path d="M143.82,247.27 L143.32,247.64 C142.63,248.13 141.93,248.64 141.22,249.06 L140.73,249.37 L139.68,250.02 C137.328561,248.129483 135.537568,245.633156 134.5,242.8 C134.451818,242.682884 134.411724,242.562602 134.38,242.44 C134.27,242.09 134.17,241.72 134.09,241.36 L133.68,242.43 L133.12,243.88 L131.84,247.22 C131.84,247.22 132.43,249.62 133.47,253.32 C133.26,253.42 133.06,253.52 132.84,253.6 C132.62,253.68 132.19,253.89 131.84,254.02 C128.347538,255.498425 124.720791,256.637016 121.01,257.42 C117.473032,258.177143 113.875289,258.615565 110.26,258.73 C109.676525,253.779472 109.465932,248.792093 109.63,243.81 L110.91,219.42 L111.59,206.42 L111.92,200.29 L111.98,199.02 C112.033206,199.080024 112.089976,199.136794 112.15,199.19 C116.75675,203.612307 122.777657,206.265048 129.15,206.68 C132.413104,206.773873 135.451736,208.363255 137.39,210.99 C139.247463,213.582271 140.442223,216.589771 140.87,219.75 L141.4,224.68 L141.4,224.75 L141.51,225.75 L143.82,247.27 Z" id="Shape" fill="#293158"></path>
            <path d="M95.2,202.07 L95.2,202.68 L95.04,205 L94.48,212.94 C94.48,212.94 94.15,215.23 93.91,220.39 C93.56,227.19 93.35,238.97 94.16,257.09 L93.29,256.88 C91.25,256.346667 89.25,255.726667 87.29,255.02 C86.1,254.58 84.92,254.1 83.77,253.59 C83.48,253.46 83.2,253.34 82.91,253.2 C82.62,249.2 82.27,246.75 82.27,246.75 C82.27,246.75 82,247.09 81.59,247.75 C81.42,248.02 81.21,248.35 80.99,248.75 L80.94,248.84 C80.746667,249.173333 80.54,249.553333 80.32,249.98 C80.07,250.48 79.82,250.98 79.58,251.61 L78.58,251.04 L78.42,250.95 C74.157308,248.531027 70.202058,245.606559 66.64,242.24 C68.25,236.57 69.64,230.87 70.14,230.14 C72.004696,227.275743 73.436771,224.152136 74.39,220.87 C75.73873,216.355756 79.042276,212.685149 83.39,210.87 C87.876559,208.767314 91.888034,205.773169 95.18,202.07 L95.2,202.07 Z" id="Shape" fill="#000000" opacity="0.1"></path>
            <path d="M95.21,201.79 C91.339528,205.067356 87.02728,207.783972 82.4,209.86 C78.052276,211.675149 74.74873,215.345756 73.4,219.86 C72.446771,223.142136 71.014696,226.265743 69.15,229.13 C68.66,229.86 67.26,235.57 65.65,241.25 C65.94,241.55 66.25,241.84 66.55,242.13 C70.112058,245.496559 74.067308,248.421027 78.33,250.84 L78.49,250.93 C79.073386,249.443777 79.810737,248.022701 80.69,246.69 L80.74,246.61 C81.09,246.09 81.31,245.81 81.31,245.81 C81.31,245.81 81.4,246.47 81.53,247.66 C81.66,248.85 81.83,250.66 81.99,252.76 L82.86,253.15 C83.14,253.29 83.42,253.41 83.72,253.54 C84.87,254.05 86.05,254.54 87.24,254.97 C89.18,255.683333 91.18,256.303333 93.24,256.83 C92.42,238.89 92.6,227.07 92.93,220.1 C93.19,214.48 93.54,211.99 93.54,211.99 L94.81,204.69 L95.17,202.63 L95.34,201.63 L95.21,201.79 Z" id="Shape" fill="#293158"></path>
            <path d="M101.64,200.78 C99.391611,200.782414 97.172184,200.27287 95.15,199.29 C94.800624,196.698565 94.104386,194.165874 93.08,191.76 L112,185.91 C111.310373,189.535387 111.178855,193.244876 111.61,196.91 C108.884191,199.395963 105.329177,200.775894 101.64,200.78 Z" id="Shape" fill="#000000" opacity="0.1"></path>
            <circle id="Oval" fill="#E0A17E" cx="101.64" cy="185.01" r="14.87"></circle>
            <g id="Group" opacity="0.1" transform="translate(130.000000, 241.000000)" fill="#000000">
                <path d="M1.86,13.01 C0.69,8.9 0.04,6.2 0.04,6.2 L2.29,0.34 C2.46612841,1.1636391 2.72407515,1.96762893 3.06,2.74 L3.11,2.87 L1.83,6.21 C1.83,6.21 2.42,8.61 3.46,12.31 C3.25,12.41 3.05,12.51 2.83,12.59 C2.61,12.67 2.18,12.88 1.86,13.01 Z" id="Shape"></path>
            </g>
            <path d="M149.41,226.01 C149.41,226.01 148.06,212.94 149.41,206.63 C150.76,200.32 133.64,207.53 137.24,216.09 C139.16627,220.835304 141.582701,225.366532 144.45,229.61 L149.41,226.01 Z" id="Shape" fill="#E0A17E"></path>
            <path d="M154.29,237.67 C151.184863,241.262997 147.671106,244.481424 143.82,247.26 L143.32,247.63 C142.63,248.12 141.93,248.63 141.22,249.05 C139.608111,247.137924 138.169131,245.08654 136.92,242.92 L136.79,242.69 L140.4,223.76 L140.78,224.15 C140.94,224.3 141.15,224.5 141.4,224.7 L141.45,224.7 C143.32,226.3 147.27,228.7 149.17,223.12 C149.491055,222.143148 149.722018,221.138959 149.86,220.12 L150.23,221.5 L150.45,222.31 L154.45,237.4 L154.29,237.67 Z" id="Shape" fill="#000000" opacity="0.1"></path>
            <path d="M154.29,237.67 C151.18519,241.263315 147.671394,244.481778 143.82,247.26 L143.32,247.63 C142.63,248.12 141.93,248.63 141.22,249.05 L140.73,249.36 C139.26405,247.541917 137.946481,245.609036 136.79,243.58 L136.92,242.91 L140.4,224.65 C140.4,224.65 140.58,224.86 140.89,225.15 L141.51,225.7 C141.77,225.92 142.07,226.16 142.4,226.38 C144.47,227.8 147.62,228.87 149.22,223.88 C149.514673,222.953517 149.728802,222.003322 149.86,221.04 L150.32,222.74 L154.29,237.67 Z" id="Shape" fill="#293158"></path>
            <path d="M154.29,237.67 C151.18519,241.263315 147.671394,244.481778 143.82,247.26 L143.32,247.63 C142.63,248.12 141.93,248.63 141.22,249.05 L140.73,249.36 C139.26405,247.541917 137.946481,245.609036 136.79,243.58 L136.92,242.91 L140.4,224.65 C140.4,224.65 140.58,224.86 140.89,225.15 L141.51,225.7 C141.77,225.92 142.07,226.16 142.4,226.38 C144.47,227.8 147.62,228.87 149.22,223.88 C149.514673,222.953517 149.728802,222.003322 149.86,221.04 L150.32,222.74 L154.29,237.67 Z" id="Shape" fill="#000000" opacity="0.02"></path>
            <path d="M80.79,246.65 L80.74,246.73 C80.74,246.68 80.74,246.62 80.74,246.58 C81.37,244.39 81.94,242.91 82.45,242.47 C82.45,242.47 83.12,246.92 83.72,253.59 C83.43,253.46 83.15,253.34 82.86,253.2 L81.99,252.81 C81.84,250.66 81.68,248.91 81.53,247.71 C81.38,246.51 81.31,245.86 81.31,245.86 C81.31,245.86 81.14,246.13 80.79,246.65 Z" id="Shape" fill="#000000" opacity="0.1"></path>
            <path d="M101.82,180.91 C102.597436,180.483657 103.492597,180.322177 104.37,180.45 C104.749073,180.610012 105.089904,180.848593 105.37,181.15 C106.54,182.26 107.7,183.55 109.28,183.89 C110.255789,184.038346 111.251183,183.994182 112.21,183.76 C113.892353,183.565566 115.52547,183.0675 117.03,182.29 C120.38,180.29 121.45,175.96 121.66,172.07 C121.73,170.76 121.46,169.07 120.17,168.79 C118.53,168.44 117.33,170.93 115.67,170.66 C115.16538,170.537482 114.711181,170.261468 114.37,169.87 C113.24,168.74 112.47,167.29 111.37,166.15 C109.611348,164.506423 107.33304,163.530005 104.93,163.39 C102.546522,163.260693 100.157063,163.486495 97.84,164.06 C96.562316,164.27091 95.328738,164.693368 94.19,165.31 C93.048257,165.934486 92.242425,167.033347 91.99,168.31 C91.88,169.18 92.11,170.08 91.94,170.94 C91.600196,172.114216 90.789282,173.095278 89.7,173.65 C88.7,174.27 87.52,174.65 86.54,175.41 C84.982476,176.620045 83.9023,178.341244 83.49,180.27 C83.090061,182.188317 83.035877,184.162635 83.33,186.1 C83.7404,189.465902 84.67857,192.746122 86.11,195.82 C86.58313,196.892992 87.191386,197.901151 87.92,198.82 C88.989367,199.986846 90.218168,200.996819 91.57,201.82 C92.06585,202.269914 92.738272,202.472008 93.4,202.37 C93.587273,202.302791 93.760268,202.201029 93.91,202.07 C95.19,201 95.31,199.07 94.91,197.44 C94.51,195.81 93.83,194.26 93.75,192.6 C93.698912,192.134092 93.789524,191.663607 94.01,191.25 C94.276697,190.915446 94.578413,190.610377 94.91,190.34 C95.34309,189.841991 95.681942,189.26933 95.91,188.65 C96.675027,187.119961 97.197919,185.480443 97.46,183.79 C97.604791,182.397961 97.299896,180.996145 96.59,179.79 C97.989777,181.106163 100.003988,181.537505 101.82,180.91 Z" id="Shape" fill="#000000" opacity="0.1"></path>
            <path d="M101.82,180.39 C102.597436,179.963657 103.492597,179.802177 104.37,179.93 C104.749073,180.090012 105.089904,180.328593 105.37,180.63 C106.54,181.74 107.7,183.03 109.28,183.37 C110.255789,183.518346 111.251183,183.474182 112.21,183.24 C113.892353,183.045566 115.52547,182.5475 117.03,181.77 C120.38,179.77 121.45,175.44 121.66,171.55 C121.73,170.24 121.46,168.55 120.17,168.27 C118.53,167.92 117.33,170.41 115.67,170.14 C115.16538,170.017482 114.711181,169.741468 114.37,169.35 C113.24,168.22 112.47,166.77 111.37,165.63 C109.611348,163.986423 107.33304,163.010005 104.93,162.87 C102.546522,162.740693 100.157063,162.966495 97.84,163.54 C96.562316,163.75091 95.328738,164.173368 94.19,164.79 C93.048257,165.414486 92.242425,166.513347 91.99,167.79 C91.88,168.66 92.11,169.56 91.94,170.42 C91.600196,171.594216 90.789282,172.575278 89.7,173.13 C88.7,173.75 87.52,174.13 86.54,174.89 C84.982476,176.100045 83.9023,177.821244 83.49,179.75 C83.090061,181.668317 83.035877,183.642635 83.33,185.58 C83.7404,188.945902 84.67857,192.226122 86.11,195.3 C86.58313,196.372992 87.191386,197.381151 87.92,198.3 C88.989367,199.466846 90.218168,200.476819 91.57,201.3 C92.06585,201.749914 92.738272,201.952008 93.4,201.85 C93.587273,201.782791 93.760268,201.681029 93.91,201.55 C95.19,200.48 95.31,198.55 94.91,196.92 C94.51,195.29 93.83,193.74 93.75,192.08 C93.698912,191.614092 93.789524,191.143607 94.01,190.73 C94.276697,190.395446 94.578413,190.090377 94.91,189.82 C95.34309,189.321991 95.681942,188.74933 95.91,188.13 C96.675027,186.599961 97.197919,184.960443 97.46,183.27 C97.604791,181.877961 97.299896,180.476145 96.59,179.27 C97.989777,180.586163 100.003988,181.017505 101.82,180.39 Z" id="Shape" fill="#463E3B"></path>
            <rect id="Rectangle-path" fill="#DDE1EC" x="274.12" y="472.81" width="209.17" height="121.39"></rect>
            <path d="M669.62,159.57 C669.62,159.57 654.13,168.51 658.9,181.07 C658.9,181.07 674.99,185.84 681.54,197.76 C688.09,209.68 738.75,252.58 738.75,252.58 L775.69,234.07 C775.69,234.07 762.84,216.91 722.19,204.93 C722.19,204.93 698.19,179.24 689.88,174.48 C681.57,169.72 669.62,159.57 669.62,159.57 Z" id="Shape" fill="#FEBDD5"></path>
            <path d="M669.62,159.57 C669.62,159.57 654.13,168.51 658.9,181.07 C658.9,181.07 674.99,185.84 681.54,197.76 C688.09,209.68 738.75,252.58 738.75,252.58 L775.69,234.07 C775.69,234.07 762.84,216.91 722.19,204.93 C722.19,204.93 698.19,179.24 689.88,174.48 C681.57,169.72 669.62,159.57 669.62,159.57 Z" id="Shape" fill="#000000" opacity="0.05"></path>
            <path d="M393.62,445.44 L662.4,164.07 C675.627171,150.242155 697.554843,149.740951 711.4,162.95 C725.227845,176.177171 725.729049,198.104843 712.52,211.95 L443.78,493.36 L370.04,520.36 L393.62,445.44 Z" id="Shape" fill="url(#linearGradient-2)"></path>
            <path d="M696.75,157.96 C710.577845,171.187171 711.079049,193.114843 697.87,206.96 L429.1,488.33 L373.74,508.58 L370,520.34 L443.74,493.34 L712.55,212.07 C725.759049,198.224843 725.257845,176.297171 711.43,163.07 C705.893119,157.764517 698.747268,154.453712 691.12,153.66 C693.137974,154.898202 695.024402,156.33899 696.75,157.96 Z" id="Shape" fill="#FFFFFF" opacity="0.1"></path>
            <polygon id="Shape" fill="#EFC8C4" points="393.62 445.45 443.78 493.36 383.28 515.5 370.04 520.34 378.43 493.71"></polygon>
            <path d="M378.43,493.7 C380.265666,494.056671 382.016767,494.759148 383.59,495.77 C385.41,497.08 386.73,499.35 386.23,501.53 C385.737889,502.887619 385.03604,504.159721 384.15,505.3 C382.319179,508.389256 381.998809,512.145308 383.28,515.5 L370,520.34 L378.43,493.7 Z" id="Shape" fill="#727A9C"></path>
            <path d="M766.16,667.87 C766.16,667.87 767.95,694.09 770.93,697.07 C773.91,700.05 744.11,701.84 744.11,701.84 L748.28,667.84 L766.16,667.87 Z" id="Shape" fill="#FFB9B9"></path>
            <path d="M766.16,667.87 C766.16,667.87 767.95,694.09 770.93,697.07 C773.91,700.05 744.11,701.84 744.11,701.84 L748.28,667.84 L766.16,667.87 Z" id="Shape" fill="#000000" opacity="0.05"></path>
            <g id="Group" transform="translate(638.000000, 697.000000)" fill="#FFFFFF">
                <ellipse id="Oval" cx="109" cy="27" rx="109" ry="27"></ellipse>
            </g>
            <path d="M772.71,688.13 C772.71,688.13 768.54,688.13 753.64,695.88 C753.64,695.88 743.51,694.09 739.34,679.79 C739.34,679.79 726.83,701.24 718.48,702.43 C710.13,703.62 694.05,704.81 704.77,719.12 C715.49,733.43 778.66,726.87 778.66,726.87 C778.66,726.87 780.46,692.3 772.71,688.13 Z" id="Shape" fill="#00004C"></path>
            <path d="M772.71,688.13 C772.71,688.13 768.54,688.13 753.64,695.88 C753.64,695.88 743.51,694.09 739.34,679.79 C739.34,679.79 726.83,701.24 718.48,702.43 C710.13,703.62 694.05,704.81 704.77,719.12 C715.49,733.43 778.66,726.87 778.66,726.87 C778.66,726.87 780.46,692.3 772.71,688.13 Z" id="Shape" fill="#000000" opacity="0.05"></path>
            <path d="M763.77,708.39 L759.6,719.71 L732.19,711.96 L733.75,700.72 L734.13,698.01 L735.13,690.51 C735.13,690.51 758.37,684.51 758.37,687.51 C758.684669,689.967083 759.196317,692.394899 759.9,694.77 C760.9,698.43 762.05,702.61 762.9,705.36 C763.42,707.2 763.77,708.39 763.77,708.39 Z" id="Shape" fill="#FFB9B9"></path>
            <path d="M748.82,552.98 C746.94,556.16 744.82,562.12 748.77,569.56 C749.938808,571.713609 751.377036,573.709655 753.05,575.5 C766.16,589.8 769.74,621.98 769.74,621.98 L769.74,673.82 L760.8,674.51 L746.5,675.61 L725,587.43 C725,587.43 712.49,523.07 718.45,511.75 C724.41,500.43 729.77,429.52 729.77,429.52 L734.72,424.4 L746.46,412.24 L780.46,412.24 C783.17787,414.189614 785.434363,416.71238 787.07,419.63 C792.77,429.07 797.89,448.7 782.25,484.94 C757.82,541.55 750.67,550.49 750.67,550.49 C749.961251,551.247449 749.340624,552.082779 748.82,552.98 Z" id="Shape" fill="#4C4C78"></path>
            <path d="M748.82,552.98 C746.94,556.16 744.82,562.12 748.77,569.56 C749.938808,571.713609 751.377036,573.709655 753.05,575.5 C766.16,589.8 769.74,621.98 769.74,621.98 L769.74,673.82 L760.8,674.51 L746.5,675.61 L725,587.43 C725,587.43 712.49,523.07 718.45,511.75 C724.41,500.43 729.77,429.52 729.77,429.52 L734.72,424.4 L746.46,412.24 L780.46,412.24 C783.17787,414.189614 785.434363,416.71238 787.07,419.63 C792.77,429.07 797.89,448.7 782.25,484.94 C757.82,541.55 750.67,550.49 750.67,550.49 C749.961251,551.247449 749.340624,552.082779 748.82,552.98 Z" id="Shape" fill="url(#linearGradient-5)"></path>
            <path d="M759.94,694.79 L734.13,698.01 L735.13,690.51 C735.13,690.51 758.37,684.51 758.37,687.51 C758.696703,689.974939 759.22174,692.409504 759.94,694.79 Z" id="Shape" fill="#000000" opacity="0.1"></path>
            <path d="M747.09,476.59 C747.09,476.59 748.57,523.5 748.82,552.98 C748.87,559.65 748.82,565.43 748.77,569.56 C748.805259,571.74995 748.644619,573.938665 748.29,576.1 C746.5,581.46 750.08,593.38 750.08,593.38 C764.98,632.71 760.81,667.27 760.81,667.27 L760.81,693.49 L732.19,697.07 C732.19,697.07 736.96,693.49 723.85,658.93 C716.32,639.07 714.69,619.62 714.66,606.65 C714.590985,599.553935 713.172426,592.535802 710.48,585.97 C709.669508,583.749637 709.171414,581.42744 709,579.07 C707.81,567.15 702.45,552.25 702.45,552.25 C702.45,552.25 688.15,509.94 684.57,478.95 C682.917935,464.200104 683.196956,449.297716 685.4,434.62 C685.927342,430.889132 686.644944,427.187641 687.55,423.53 C687.55,423.53 745.8,386.87 767.8,412.21 C769.929073,414.685247 771.620022,417.50575 772.8,420.55 C774.007743,423.55468 774.948055,426.660051 775.61,429.83 C782.37,463.49 747.09,476.59 747.09,476.59 Z" id="Shape" fill="url(#linearGradient-5)"></path>
            <circle id="Oval" fill="#FFB9B9" cx="745.3" cy="185.2" r="30.39"></circle>
            <path d="M728.62,204.26 C728.62,204.26 741.13,239.42 728.62,257.89 C716.11,276.36 768.54,270.4 768.54,270.4 L788.8,245.97 C788.8,245.97 764.96,245.97 763.8,204.26 C762.64,162.55 728.62,204.26 728.62,204.26 Z" id="Shape" fill="#FFB9B9"></path>
            <path d="M788.8,426.53 C784.479202,428.026118 780.035509,429.140387 775.52,429.86 C768.1,431 759.35,431.05 754.23,426.53 C751.23,423.85 743.72,423.53 734.74,424.38 C715.83,426.19 690.23,433.25 685.33,434.64 C685.857342,430.909132 686.574944,427.207641 687.48,423.55 C687.48,423.55 745.73,386.89 767.73,412.23 L780.44,412.23 C783.15787,414.179614 785.414363,416.70238 787.05,419.62 C788.16,424.36 788.8,426.53 788.8,426.53 Z" id="Shape" fill="#000000" opacity="0.1"></path>
            <path d="M763.77,708.39 L759.6,719.71 L732.19,711.96 L733.75,700.72 C738.46,711.14 746.49,712.55 746.49,712.55 C755.15,708.05 760.19,706.16 762.89,705.37 C763.42,707.2 763.77,708.39 763.77,708.39 Z" id="Shape" fill="#000000" opacity="0.1"></path>
            <path d="M765.56,705.41 C765.56,705.41 761.39,705.41 746.49,713.16 C746.49,713.16 736.36,711.37 732.19,697.07 C732.19,697.07 719.68,718.52 711.33,719.71 C702.98,720.9 686.9,722.07 697.63,736.4 C708.36,750.73 771.52,744.15 771.52,744.15 C771.52,744.15 773.31,709.58 765.56,705.41 Z" id="Shape" fill="#00004C"></path>
            <path d="M624.19,191.02 C624.19,191.02 625.54,164.13 655.75,171.07 L648,185.6 L624.19,191.02 Z" id="Shape" fill="#FFB9B9"></path>
            <path d="M765,253.13 C765,253.13 735.8,248.36 728.05,242.4 C728.05,242.4 722.05,253.72 711.36,247.76 C700.67,241.8 675.61,242.4 675.61,242.4 C675.61,242.4 654.75,231.08 650.61,205.45 C650.61,205.45 646.44,189.96 647.61,185.79 C647.61,185.79 632.12,169.7 624.37,191.15 C627.37,206.05 629.73,204.86 629.14,216.77 L638.67,242.99 C638.67,242.99 639.27,251.93 656.55,263.85 C673.83,275.77 693.5,294.24 693.5,294.24 C693.5,294.24 683.07,299.9 686.95,325.82 C691.68,357.5 684.57,402.69 684.57,402.69 L684.57,431.89 C684.57,431.89 744.16,414.61 754.29,423.55 C764.42,432.49 788.85,423.55 788.85,423.55 C788.85,423.55 785.85,413.42 781.7,388.99 C777.55,364.56 782.3,340.72 782.3,340.72 C782.3,340.72 797.79,299.6 804.94,282.92 C812.09,266.24 799.58,243.59 787.06,235.25 C774.54,226.91 769.89,231.92 769.89,231.92 C769.89,231.92 791.78,247.77 765,253.13 Z" id="Shape" fill="url(#linearGradient-2)"></path>
            <path d="M712.43,177.76 C712.42087,179.000363 712.630757,180.232601 713.05,181.4 C713.744631,182.727661 714.692455,183.906496 715.84,184.87 C720.3,189.23 724.22,194.41 725.79,200.45 C726.85,204.54 726.79,208.82 726.73,213.05 C726.47,230.16 725.73,248.63 715.19,262.05 C711.31,267 706.31,270.93 701.62,275.12 C700.96139,275.612461 700.466529,276.292024 700.2,277.07 C700.06984,277.883872 700.225301,278.717711 700.64,279.43 C702.82,283.96 707.41,286.74 711.76,289.26 C713.76,290.41 715.84,291.6 718.14,291.67 C723.56,291.85 727.14,286.12 732.07,283.87 C739.25,280.59 747.3,285.15 754.43,288.55 C759.589902,291.006445 765.001744,292.894218 770.57,294.18 C778.2,295.94 786.82,296.37 793.24,291.9 C796.951371,289.285043 799.486828,285.316657 800.3,280.85 C800.82,277.94 800.74,274.56 802.94,272.59 C804.08,271.59 805.63,271.15 806.85,270.25 C808.76,268.85 809.66,266.5 810.47,264.25 L817.81,244.18 C818.755948,242.059092 819.243251,239.762296 819.24,237.44 C818.89,232.61 814.43,229.1 809.96,227.24 C805.49,225.38 800.54,224.47 796.6,221.64 C789.95,216.86 787.89,207.93 787.29,199.76 C786.879988,194.14914 786.920116,188.514451 787.41,182.91 C788.14,174.6 789.76,165.74 786.06,158.26 C782.11,150.26 773.25,146.19 765.06,142.71 C761.91,141.37 758.67,140.02 755.25,139.87 C751.63,139.71 748.11,140.87 744.69,142.1 C739.25,143.99 733.69,146.43 728.12,147.71 C724.97,148.43 721.51,147.89 718.47,149.03 C707.3,153.23 712.43,168.77 712.43,177.76 Z" id="Shape" fill="#000000" opacity="0.1"></path>
            <path d="M712.43,176.57 C712.42087,177.810363 712.630757,179.042601 713.05,180.21 C713.744631,181.537661 714.692455,182.716496 715.84,183.68 C720.3,188.04 724.22,193.22 725.79,199.26 C726.85,203.35 726.79,207.63 726.73,211.86 C726.47,228.97 725.73,247.44 715.19,260.86 C711.31,265.81 706.31,269.74 701.62,273.93 C700.964093,274.410388 700.466237,275.075356 700.19,275.84 C700.05984,276.653872 700.215301,277.487711 700.63,278.2 C702.81,282.73 707.4,285.51 711.75,288.03 C713.75,289.18 715.83,290.37 718.13,290.44 C723.55,290.62 727.13,284.89 732.06,282.64 C739.24,279.36 747.29,283.92 754.42,287.32 C759.579902,289.776445 764.991744,291.664218 770.56,292.95 C778.19,294.71 786.81,295.14 793.23,290.67 C796.941371,288.055043 799.476828,284.086657 800.29,279.62 C800.81,276.71 800.73,273.33 802.93,271.36 C804.07,270.36 805.62,269.92 806.84,269.02 C808.75,267.62 809.65,265.27 810.46,263.02 L817.8,242.95 C818.745948,240.829092 819.233251,238.532296 819.23,236.21 C818.88,231.38 814.42,227.87 809.95,226.01 C805.48,224.15 800.53,223.24 796.59,220.41 C789.94,215.63 787.88,206.7 787.28,198.53 C786.869988,192.91914 786.910116,187.284451 787.4,181.68 C788.13,173.37 789.75,164.51 786.05,157.03 C782.1,149.03 773.24,144.96 765.05,141.48 C761.9,140.14 758.66,138.79 755.24,138.64 C751.62,138.48 748.1,139.64 744.68,140.87 C739.24,142.76 733.68,145.2 728.11,146.48 C724.96,147.2 721.5,146.66 718.46,147.8 C707.3,152.07 712.43,167.58 712.43,176.57 Z" id="Shape" fill="#B96B6B"></path>
            <path d="M688.41,339.2 C688.41,339.2 693.16,338.07 717,334.47 C740.84,330.87 782.55,339.24 782.55,339.24" id="Shape" fill="#000000" opacity="0.05"></path>
        </g>
    </g>
</svg>