<?xml version="1.0" encoding="UTF-8"?>
<svg width="100%" height="100%" viewBox="0 0 1344 1167" version="1.1" xmlns="http://www.w3.org/2000/svg" xmlns:xlink="http://www.w3.org/1999/xlink" >
    <!-- Generator: Sketch 49.1 (51147) - http://www.bohemiancoding.com/sketch -->
    <title>front-end 2</title>
    <desc>Created with Sketch.</desc>
    <defs>
        <linearGradient x1="50%" y1="0%" x2="50%" y2="100%" id="linearGradient-1">
            <stop stop-color="#000083" offset="0%"></stop>
            <stop stop-color="#00004C" offset="100%"></stop>
        </linearGradient>
        <linearGradient x1="50%" y1="0%" x2="50%" y2="100%" id="linearGradient-2">
            <stop stop-color="#FFD500" offset="0%"></stop>
            <stop stop-color="#FFAB00" offset="100%"></stop>
        </linearGradient>
        <linearGradient x1="50.0024316%" y1="100.001132%" x2="50.0024316%" y2="0.00297279996%" id="linearGradient-3">
            <stop stop-color="#808080" stop-opacity="0.25" offset="0%"></stop>
            <stop stop-color="#808080" stop-opacity="0.12" offset="54%"></stop>
            <stop stop-color="#808080" stop-opacity="0.1" offset="100%"></stop>
        </linearGradient>
    </defs>
    <g id="Page-1" stroke="none" stroke-width="1" fill="none" fill-rule="evenodd">
        <path d="M760.90933,1158.75069 C1142.24651,1158.75069 1465.19082,909.800348 1299.47752,651.797265 C1201.02855,498.519641 985.415836,415.306942 871.384856,294.214043 C745.263431,160.281939 643.559968,0 443.292189,0 C61.955009,0 42.8184033,172.713997 42.8184033,547.690756 C42.8184033,730.335849 -81.4665645,1000.32775 93.45302,1099.90788 C268.372605,1199.48802 565.315301,1158.75069 760.90933,1158.75069 Z" id="Oval" fill="url(#linearGradient-1)" fill-rule="nonzero"></path>
        <g id="undraw_quitting_time_dm8t(1)" transform="translate(127.000000, 324.000000)" fill-rule="nonzero">
            <ellipse id="Oval" fill="#FFFFFF" cx="696.9" cy="711.72" rx="129" ry="21"></ellipse>
            <polygon id="Shape" fill="#5F5D7E" points="189.39 356.56 189.07 374.2 186.45 517.22 164.04 569.71 86.8 570.59 86.8 364.68 167.41 358.3"></polygon>
            <polygon id="Shape" fill="#FFFFFF" opacity="0.798233696" points="189.39 356.56 189.07 374.2 186.45 517.22 164.04 569.71 86.8 570.59 86.8 364.68 167.41 358.3"></polygon>
            <polygon id="Shape" fill="#FFFFFF" opacity="0.805819746" points="189.39 356.56 189.07 374.2 186.45 517.22 164.04 569.71 169.94 374.54 169.92 374.41 167.41 358.3"></polygon>
            <polygon id="Shape" fill="#000000" opacity="0.1" points="167.41 358.3 189.39 356.56 189.07 374.2 169.92 374.41 86.8 375.34 86.8 364.68"></polygon>
            <polygon id="Shape" fill="#FFFFFF" opacity="0.803725091" points="883.68 364.68 883.68 569.4 865.7 569.4 793.76 516.93 793.76 358.91 858.03 352.87 861.97 354.68 865.7 356.4"></polygon>
            <rect id="Rectangle-path" fill="#FFFFFF" x="865.7" y="354.68" width="17.98" height="214.72"></rect>
            <polygon id="Shape" fill="#000000" opacity="0.1" points="883.68 354.68 883.68 366.45 865.7 366.66 793.76 367.45 793.76 358.91 858.03 352.87 861.97 354.68 865.7 356.4 865.7 354.68"></polygon>
            <polygon id="Shape" fill="#FFFFFF" points="883.68 348 883.68 364.68 0.13 374.54 0.13 353.31 83.26 336.5 806.73 331.2"></polygon>
            <polygon id="Shape" fill="#000000" opacity="0.1" points="883.68 348 883.68 364.68 0.13 374.54 0.13 353.31"></polygon>
            <ellipse id="Oval" fill="#000000" opacity="0.1" cx="150.69" cy="341.88" rx="39.83" ry="2.55"></ellipse>
            <path d="M184.12,243.29 C183.276636,244.455496 182.603233,245.734962 182.12,247.09 C182,247.42 181.88,247.8 181.76,248.16 C181.5338,248.051852 181.295425,247.971275 181.05,247.92 C180.022083,247.65675 178.958234,247.562185 177.9,247.64 C177.9,247.233333 177.92,246.803333 177.96,246.35 C178.09,241.69 177.54,235.19 173.09,237.94 C168.83,240.59 171.87,245 174.62,247.85 C174.86,248.1 175.1,248.33 175.33,248.55 C172.82,250.35 172.33,254.5 171.92,258.84 C171.51,263.18 167.82,267.94 165.38,270.64 L164.68,271.39 C162.682535,269.787734 160.092808,269.12118 157.57,269.56 C157.456667,269.18 157.346667,268.78 157.24,268.36 C155.24,261.21 151.15,248.82 145.9,246.1 L146.59,245.23 C148.82,242.31 151.33,237.98 147.59,236.87 C143.85,235.76 143.59,240.63 143.76,244.27 C143.76,244.73 143.82,245.16 143.86,245.57 C142.372594,245.648492 140.981818,246.331236 140.01,247.46 C139.83,247.24 139.65,247.02 139.44,246.78 C136.44,243.23 130.92,237.61 129.25,241.87 C127.7,245.87 132.55,250.97 135.97,253.95 L136.18,254.14 C133.89,263.44 143.89,271.02 149.28,274.33 L149.97,274.76 C142.54,283.51 137.97,299.92 137.97,299.92 L158.77,303.64 C158.77,303.64 172.56,291.74 170.77,280.56 L170.91,280.56 C184.69,277.8 187.83,263.1 185.68,254.38 L185.93,254.28 C188.436566,253.245313 190.633975,251.581757 192.31,249.45 C196.17,244.08 188.08,238.03 184.12,243.29 Z" id="Shape" fill="#00004C"></path>
            <path d="M184.12,243.29 C183.276636,244.455496 182.603233,245.734962 182.12,247.09 C182,247.42 181.88,247.8 181.76,248.16 C181.5338,248.051852 181.295425,247.971275 181.05,247.92 C180.022083,247.65675 178.958234,247.562185 177.9,247.64 C177.9,247.233333 177.92,246.803333 177.96,246.35 C178.09,241.69 177.54,235.19 173.09,237.94 C168.83,240.59 171.87,245 174.62,247.85 C174.86,248.1 175.1,248.33 175.33,248.55 C172.82,250.35 172.33,254.5 171.92,258.84 C171.51,263.18 167.82,267.94 165.38,270.64 L164.68,271.39 C162.682535,269.787734 160.092808,269.12118 157.57,269.56 C157.456667,269.18 157.346667,268.78 157.24,268.36 C155.24,261.21 151.15,248.82 145.9,246.1 L146.59,245.23 C148.82,242.31 151.33,237.98 147.59,236.87 C143.85,235.76 143.59,240.63 143.76,244.27 C143.76,244.73 143.82,245.16 143.86,245.57 C142.372594,245.648492 140.981818,246.331236 140.01,247.46 C139.83,247.24 139.65,247.02 139.44,246.78 C136.44,243.23 130.92,237.61 129.25,241.87 C127.7,245.87 132.55,250.97 135.97,253.95 L136.18,254.14 C133.89,263.44 143.89,271.02 149.28,274.33 L149.97,274.76 C142.54,283.51 137.97,299.92 137.97,299.92 L158.77,303.64 C158.77,303.64 172.56,291.74 170.77,280.56 L170.91,280.56 C184.69,277.8 187.83,263.1 185.68,254.38 L185.93,254.28 C188.436566,253.245313 190.633975,251.581757 192.31,249.45 C196.17,244.08 188.08,238.03 184.12,243.29 Z" id="Shape" fill="#000000" opacity="0.1"></path>
            <path d="M142.71,249.29 L140.28,256.41 C140.28,256.41 138.93,255.46 137.22,253.95 C133.81,250.95 128.95,245.83 130.51,241.87 C132.18,237.61 137.69,243.23 140.7,246.78 C141.91,248.2 142.71,249.29 142.71,249.29 Z" id="Shape" fill="url(#linearGradient-2)"></path>
            <path d="M147.84,245.23 C147.09921,246.200706 146.308128,247.131979 145.47,248.02 C145.262959,246.77813 145.119439,245.526502 145.04,244.27 C144.84,240.63 145.22,235.79 148.87,236.87 C152.52,237.95 150.07,242.31 147.84,245.23 Z" id="Shape" fill="url(#linearGradient-2)"></path>
            <path d="M179.21,246.35 C179.14,248.69 178.91,250.56 178.91,250.56 C177.847326,249.728564 176.844822,248.822969 175.91,247.85 C173.16,245 170.11,240.59 174.38,237.94 C178.79,235.19 179.34,241.69 179.21,246.35 Z" id="Shape" fill="url(#linearGradient-2)"></path>
            <path d="M193.58,249.42 C191.903975,251.551757 189.706566,253.215313 187.2,254.25 C186.503321,254.550788 185.788608,254.807951 185.06,255.02 L182.19,251.02 C182.49774,249.691242 182.89532,248.384906 183.38,247.11 C183.863233,245.754962 184.536636,244.475496 185.38,243.31 C189.35,238.03 197.44,244.08 193.58,249.42 Z" id="Shape" fill="url(#linearGradient-2)"></path>
            <path d="M140.7,246.78 C141.91,248.2 142.7,249.29 142.7,249.29 L140.27,256.41 C140.27,256.41 138.92,255.46 137.21,253.95 C137.588568,251.670986 138.530408,249.522629 139.95,247.7 C140.2,247.37 140.45,247.06 140.7,246.78 Z" id="Shape" fill="#000000" opacity="0.1"></path>
            <path d="M147.84,245.23 C147.09921,246.200706 146.308128,247.131979 145.47,248.02 C145.262959,246.77813 145.119439,245.526502 145.04,244.27 C146.050214,244.292396 147.028566,244.627831 147.84,245.23 Z" id="Shape" fill="#000000" opacity="0.1"></path>
            <path d="M159.8,273.49 L153.75,276.15 C152.646065,275.599144 151.571302,274.991669 150.53,274.33 C144.17,270.42 131.39,260.58 139.96,248.97 C148.53,237.36 155.68,258.18 158.49,268.36 C159.34,271.4 159.8,273.49 159.8,273.49 Z" id="Shape" fill="url(#linearGradient-2)"></path>
            <path d="M175.88,247.86 C176.756431,246.951269 177.948658,246.41423 179.21,246.36 C179.14,248.7 178.91,250.57 178.91,250.57 C177.836999,249.73968 176.824442,248.834059 175.88,247.86 Z" id="Shape" fill="#000000" opacity="0.1"></path>
            <path d="M187.2,254.25 C186.503321,254.550788 185.788608,254.807951 185.06,255.02 L182.19,251.02 C182.49774,249.691242 182.89532,248.384906 183.38,247.11 C185.23,248.17 186.59,250.86 187.2,254.25 Z" id="Shape" fill="#000000" opacity="0.1"></path>
            <path d="M172.18,280.53 C171.846667,280.596667 171.513333,280.656667 171.18,280.71 C150.91,283.8 164.5,272.85 164.5,272.85 C164.5,272.85 165.41,272.01 166.65,270.64 C169.09,267.94 172.78,263.21 173.2,258.84 C173.83,252.27 174.57,246.11 182.33,247.92 C190.09,249.73 191.38,276.69 172.18,280.53 Z" id="Shape" fill="url(#linearGradient-2)"></path>
            <rect id="Rectangle-path" fill="#474157" x="133.06" y="331.02" width="38.75" height="10.19"></rect>
            <rect id="Rectangle-path" fill="#474157" x="126.9" y="297.91" width="50.63" height="35.56"></rect>
            <rect id="Rectangle-path" fill="#FFFFFF" x="132.68" y="331.02" width="38.75" height="10.19"></rect>
            <rect id="Rectangle-path" fill="#FFFFFF" x="126.74" y="297.91" width="50.63" height="35.56"></rect>
            <rect id="Rectangle-path" fill="#FFFFFF" x="135.61" y="331.02" width="38.75" height="10.19"></rect>
            <path d="M158.49,268.36 C159.34,271.36 159.8,273.49 159.8,273.49 L153.75,276.15 C152.646065,275.599144 151.571302,274.991669 150.53,274.33 C152.9,271.33 155.57,269.06 158.49,268.36 Z" id="Shape" fill="#000000" opacity="0.1"></path>
            <path d="M172.18,280.53 C171.846667,280.596667 171.513333,280.656667 171.18,280.71 C150.91,283.8 164.5,272.85 164.5,272.85 C164.5,272.85 165.41,272.01 166.65,270.64 C170.41,273.67 172.01,277.08 172.18,280.53 Z" id="Shape" fill="#000000" opacity="0.1"></path>
            <path d="M139.21,299.92 C139.21,299.92 150.57,259.27 166.49,271.8 C182.41,284.33 160.01,303.64 160.01,303.64 L139.21,299.92 Z" id="Shape" fill="url(#linearGradient-2)"></path>
            <circle id="Oval" fill="#000000" opacity="0.1" cx="144.95" cy="255.34" r="1.27"></circle>
            <circle id="Oval" fill="#000000" opacity="0.1" cx="144.84" cy="261.29" r="1.27"></circle>
            <circle id="Oval" fill="#000000" opacity="0.1" cx="181.78" cy="256.51" r="1.27"></circle>
            <circle id="Oval" fill="#000000" opacity="0.1" cx="152.06" cy="286.97" r="1.27"></circle>
            <circle id="Oval" fill="#000000" opacity="0.1" cx="179.12" cy="266.38" r="1.27"></circle>
            <circle id="Oval" fill="#000000" opacity="0.1" cx="165.96" cy="279.54" r="1.27"></circle>
            <circle id="Oval" fill="#000000" opacity="0.1" cx="149.3" cy="257.89" r="1.27"></circle>
            <circle id="Oval" fill="#000000" opacity="0.1" cx="178.27" cy="260.33" r="1.27"></circle>
            <circle id="Oval" fill="#000000" opacity="0.1" cx="173.92" cy="270.2" r="1.27"></circle>
            <circle id="Oval" fill="#000000" opacity="0.1" cx="160.55" cy="286.02" r="1.27"></circle>
            <circle id="Oval" fill="#000000" opacity="0.1" cx="157.79" cy="279.76" r="1.27"></circle>
            <circle id="Oval" fill="#000000" opacity="0.1" cx="151.21" cy="265.64" r="1.27"></circle>
            <rect id="Rectangle-path" fill="#000000" opacity="0.1" x="135.61" y="331.02" width="38.75" height="3.72"></rect>
            <rect id="Rectangle-path" fill="#FFFFFF" opacity="0.804574275" x="129.45" y="297.91" width="50.63" height="35.56"></rect>
            <circle id="Oval" fill="#000000" opacity="0.1" cx="162.25" cy="291.75" r="1.27"></circle>
            <circle id="Oval" fill="#000000" opacity="0.1" cx="154.6" cy="293.34" r="1.27"></circle>
            <ellipse id="Oval" fill="#00004C" opacity="0.1" cx="259.31" cy="538.24" rx="65.98" ry="10.13"></ellipse>
            <path d="M293.26,474.12 L292.94,476.7 L292.5,480.34 L292.32,481.85 L291.88,485.5 L291.68,487.01 L291.24,490.65 L286.19,532.04 C285.74,535.74 279.71,538.62 272.42,538.62 L246.18,538.62 C238.9,538.62 232.87,535.74 232.42,532.04 L227.36,490.65 L226.92,487.01 L226.74,485.5 L226.28,481.85 L226.1,480.34 L225.66,476.7 L225.34,474.12 C225.09,472.03 228.34,470.27 232.48,470.27 L286.13,470.27 C290.25,470.27 293.52,472.03 293.26,474.12 Z" id="Shape" fill="#FFFFFF" opacity="0.797044837"></path>
            <polygon id="Shape" fill="#FFFFFF" points="292.95 476.69 292.5 480.33 226.11 480.33 225.66 476.69"></polygon>
            <polygon id="Shape" fill="#FFFFFF" points="292.32 481.85 291.88 485.49 226.74 485.49 226.29 481.85"></polygon>
            <polygon id="Shape" fill="#FFFFFF" points="291.69 487.01 291.25 490.65 227.37 490.65 226.92 487.01"></polygon>
            <path d="M459.47,333.54 L459.47,335.6 L398.56,335.6 L398.56,333.93 C406.416891,331.023041 411.629505,323.527414 411.62,315.15 C411.62106,307.323637 407.057017,300.215767 399.94,296.96 L459.06,296.96 C451.855679,300.243078 447.266137,307.466867 447.354869,315.383492 C447.443601,323.300118 452.193903,330.419223 459.47,333.54 Z" id="Shape" fill="#C8CAD7"></path>
            <path d="M459.06,296.96 C453.558455,299.48341 449.49561,304.3625 448.01,310.23 L411.01,310.23 C409.512108,304.362518 405.443805,299.485699 399.94,296.96 L459.06,296.96 Z" id="Shape" fill="#000000" opacity="0.1"></path>
            <path d="M328.81,286.46 L328.81,298.03 C328.81,304.41 333.49,309.59 339.25,309.59 L518.46,309.59 C524.22,309.59 528.9,304.41 528.9,298.03 L528.9,286.46 L328.81,286.46 Z" id="Shape" fill="#C8CAD7"></path>
            <path d="M459.47,333.54 L459.47,335.6 L398.56,335.6 L398.56,333.93 C400.230289,333.30809 401.810732,332.467429 403.26,331.43 L455.74,331.43 C456.904671,332.264117 458.155096,332.971461 459.47,333.54 Z" id="Shape" fill="#000000" opacity="0.1"></path>
            <rect id="Rectangle-path" fill="#C8CAD7" x="378.44" y="332.07" width="101.17" height="6.1" rx="3.05"></rect>
            <path d="M528.9,159.77 C528.9,157.00114 527.800075,154.345685 525.842195,152.387805 C523.884315,150.429925 521.22886,149.33 518.46,149.33 L339.25,149.33 C333.484147,149.33 328.81,154.004147 328.81,159.77 L328.81,288.71 L528.9,288.71 L528.9,159.77 Z" id="Shape" fill="#5F5D7E"></path>
            <path d="M523.44,164.42 L523.44,275.22 C523.44,278.058744 521.138744,280.36 518.3,280.36 L339.41,280.36 C336.571256,280.36 334.27,278.058744 334.27,275.22 L334.27,164.42 C334.28495,163.516093 334.54037,162.632476 335.01,161.86 C335.929433,160.271608 337.624697,159.292546 339.46,159.29 L518.3,159.29 C521.134843,159.289995 523.434485,161.585162 523.44,164.42 Z" id="Shape" fill="#00004C"></path>
            <circle id="Oval" fill="#FFFFFF" cx="428.86" cy="154.3" r="2.41"></circle>
            <circle id="Oval" fill="#FFFFFF" cx="428.86" cy="298.51" r="5.94"></circle>
            <path d="M523.44,164.42 L334.27,164.42 C334.27,161.581256 336.571256,159.28 339.41,159.28 L518.3,159.28 C521.138744,159.28 523.44,161.581256 523.44,164.42 Z" id="Shape" fill="#FFFFFF"></path>
            <circle id="Oval" fill="#EDEDF4" cx="339.42" cy="161.85" r="1.28"></circle>
            <circle id="Oval" fill="#EDEDF4" cx="343.27" cy="161.85" r="1.28"></circle>
            <circle id="Oval" fill="#EDEDF4" cx="347.12" cy="161.85" r="1.28"></circle>
            <path d="M551.01,388.86 C551.01,388.86 563.01,393.74 577.74,399.59 C578.244607,401.274567 578.632197,402.991991 578.9,404.73 C579.16,408.13 585.9,412.92 585.9,412.92 C585.9,412.92 598.4,415.18 607.81,417.83 C615.12,419.83 616.13,415.83 615.19,414.27 L617.38,415.11 C617.87,435.35 618.43,450.11 618.43,450.11 C618.43,450.11 621.63,450.11 626.68,450.35 C626.74,450.99 626.8,451.65 626.87,452.35 C628.8,472.35 632.35,505.35 635.1,508.09 C639.1,511.96 637.33,540.48 635.79,545.52 C634.25,550.56 635.79,586.83 635.79,586.83 C635.79,586.83 641.98,608.99 641.46,633.17 C640.94,657.35 648.16,669.95 648.16,669.95 L650.75,670.14 C650.75,670.81 650.67,671.47 650.64,672.14 C650.52,674.33 650.43,676.52 650.4,678.51 C650.239247,681.548517 649.196774,684.474389 647.4,686.93 C643.254686,692.855126 640.396634,699.582959 639.01,706.68 C638.707088,708.266775 638.493419,709.869292 638.37,711.48 C638.37,711.88 638.32,712.1 638.32,712.1 C638.32,712.1 640.72,719.16 663.24,721.51 C685.76,723.86 682.5,707.57 682.5,707.57 C682.5,707.57 682.61,707.11 682.75,706.27 C683.735133,700.762916 683.765577,695.127406 682.84,689.61 C682.05,685.31 682.73,677.87 683.71,671.05 C683.81,670.34 683.92,669.64 684.02,668.95 C685.904259,668.556094 687.672989,667.73502 689.19,666.55 C696.24,660.12 689.19,609 689.19,609 C689.19,609 676.47,567.19 679.57,561.14 C682.67,555.09 686.27,540.49 686.27,540.49 L686.27,489.61 C691.27,481.54 693.52,470.5 694.45,460.45 C694.51,459.78 694.57,459.12 694.62,458.45 C698.79,458.53 702.79,458.38 706.42,458.13 L707.42,460.13 C713.32,471.56 719.32,482.88 720.79,484.55 C723.88,488.08 721.3,504.2 720.79,512.26 C720.28,520.32 726.46,536.44 726.46,536.44 C718.73,540.97 717.18,594.37 717.18,594.37 C717.18,594.37 722.85,607.47 710.99,622.08 C699.13,636.69 703.77,664.4 705.32,663.39 C705.73,663.12 708.24,663.53 711.81,664.12 C711.161695,666.51371 710.00167,668.738228 708.41,670.64 C704.58,675.4 703.27,682.86 702.89,688.82 C702.666888,691.925998 702.666888,695.044002 702.89,698.15 L711.48,704.15 C711.48,704.15 716.81,704.15 716.81,708.86 C716.81,713.57 729.87,718.26 729.87,718.26 C729.87,718.26 749.29,723.63 764.25,718.26 C769.1,716.52 770.58,713.53 770.01,709.9 C768.83,702.31 758.68,691.9 751.36,684.34 C746.42,679.21 744.17,672.41 743.17,666.52 C743.06,665.89 742.97,665.27 742.89,664.66 C743.492725,664.319961 744.030929,663.876535 744.48,663.35 C750.67,655.79 757.37,635.14 757.37,635.14 C757.37,635.14 754.31,614.04 761.01,594.86 C766.01,580.67 772.08,547.41 774.9,531.12 C775.930666,525.20968 776.119205,519.183188 775.46,513.22 C774.16,501.33 772.16,479.3 772.87,461.86 C773.11,456.17 772.94,447.12 772.55,436.51 L772.55,436.36 C776.22,429.43 784.18,418.12 797.46,417.19 C816.71,415.84 806.74,405.27 806.74,405.27 C806.74,405.27 795.45,325.94 788.01,311.86 C787.896677,311.614548 787.76636,311.377305 787.62,311.15 C786.52,309.4 785.32,305.9 784.05,301.23 C776.72,274.18 767.34,207.54 767.34,207.54 L766.19,191.33 C777.67,196.96 798.97,207.23 807.56,210.23 C819.56,214.43 836.26,211.74 840.39,197.97 C844.52,184.2 827.33,156.33 827.33,156.33 C824.8,146.45 807.33,125.88 798.24,115.67 C797.36,114.34 796.49,113.02 795.64,111.76 C793.3,108.27 791.19,105.19 789.85,103.38 L789.72,103.63 C789.39,103.17 789.08,102.74 788.81,102.38 L788.59,102.82 C785.34,96.82 781.69,90.65 778.86,87.34 C772.28,79.66 743.58,71.4 740.74,73.67 C738.67,75.32 747.26,82.52 753.27,86.94 L747.53,83.06 L734.7,71.96 L729.05,68.14 C728.814743,67.9807892 728.567311,67.840355 728.31,67.72 C731.287095,56.0255508 728.896906,43.6126984 721.79,33.86 C721.39,33.31 720.96,32.76 720.53,32.23 C726.44,27.31 728.31,19.18 728.31,12.03 L728.31,11.76 C727.872813,9.08025031 726.683302,6.57985017 724.88,4.55 C724.97,4.73 725.06,4.93 725.14,5.12 C723.047034,2.44203125 719.885703,0.815681829 716.49,0.67 C711.49,0.59 707.3,3.87 702.91,6.12 C693.770988,10.6975177 683.090301,11.0626694 673.66,7.12 C670.95,5.96 668.22,4.42 665.28,4.66 C662.34,4.9 660.01,6.79 658.01,8.76 C653.200926,13.3955975 649.41927,18.9897234 646.91,25.18 C646.17,26.99 645.51,28.92 644.08,30.28 C642.991051,31.1686423 641.811152,31.9395986 640.56,32.58 C636.203478,35.3555883 633.172039,39.7925461 632.17,44.86 C631.236638,49.8522893 631.760864,55.0077627 633.68,59.71 C634.839893,62.9649743 636.735821,65.9081118 639.22,68.31 C641.09,70.04 643.33,71.31 645.31,72.94 C646.208849,73.672329 647.048152,74.4748492 647.82,75.34 C638.826568,77.330505 630.604047,81.8881507 624.15,88.46 C619.300796,93.1457129 615.247668,98.5904143 612.15,104.58 C603.78,120.31 598.7,130.1 595.68,136.31 C594.17,136.77 593.24,136.99 593.24,136.99 C593.24,136.99 581.9,147.06 582.07,175.94 L573.3,233.7 L573.3,263.25 C573.3,263.25 562.01,295.32 563.86,321.86 C563.86,322.22 563.86,322.57 563.93,322.92 L563.01,327.43 C561.593745,329.359799 560.88727,331.719427 561.01,334.11 C560.952718,334.927757 561.013339,335.749501 561.19,336.55 L556.59,359.27 L557.46,360.19 L555.09,366.86 C546.16,381.13 551.01,388.86 551.01,388.86 Z M617.33,226.86 C617.9,227.25 618.22,227.45 618.22,227.45 C618.22,227.45 623.22,272.22 620.22,298.84 L609.69,298.12 L604.69,296.58 L606.48,282.35 C606.48,282.35 612.89,244.86 617.29,226.86 L617.33,226.86 Z M658.71,96.91 L659.71,95.37 C659.5,95.92 659.29,96.46 659.07,96.96 L658.71,96.91 Z M611.18,298.62 L616.63,299.18 L620.08,299.9 C620.02,300.38 619.96,300.85 619.9,301.31 L611.18,298.62 Z M728.31,105.06 C728.307224,104.561754 728.273828,104.064149 728.21,103.57 L732.49,106.11 L732.75,106.27 C731.27,105.84 729.75,105.46 728.31,105.11 L728.31,105.06 Z M761.53,124.86 C760.942524,123.938241 760.308365,123.047081 759.63,122.19 C762.63,122.91 764.49,123.33 764.49,123.33 C766.884504,122.913961 769.347263,123.163004 771.61,124.05 C772.342231,125.54021 773.167183,126.983041 774.08,128.37 L781.98,143.67 C781.98,143.67 780.26,143.84 776.82,142.16 C773.38,140.48 761.53,124.86 761.53,124.86 Z M611.44,412.86 L613.91,413.86 C613.36,414.03 612.48,413.63 611.44,412.86 Z" id="Shape" fill="url(#linearGradient-3)"></path>
            <path d="M697.01,84.15 C700.19,86.02 700.29,94.01 699.8,100.42 C699.45,105.11 698.8,108.95 698.8,108.95 L719.49,159.25 C719.49,159.25 727.16,123.41 727.28,107.41 C727.289203,106.147566 727.096781,104.891759 726.71,103.69 C723.1,92.16 702.82,85.76 697.01,84.15 Z" id="Shape" fill="#67647E"></path>
            <path d="M695.52,83.75 C695.52,83.75 696.08,83.88 697.05,84.15 C696.584954,83.8822261 696.056596,83.7440933 695.52,83.75 Z" id="Shape" fill="#67647E"></path>
            <path d="M702.69,696.08 L711.02,702.08 C711.02,702.08 716.19,702.08 716.19,706.75 C716.19,711.42 728.85,716.08 728.85,716.08 C728.85,716.08 747.69,721.41 762.19,716.08 C766.89,714.35 768.33,711.39 767.78,707.78 C766.63,700.25 756.78,689.96 749.69,682.41 C744.9,677.32 742.69,670.57 741.75,664.73 C741.056755,660.551044 740.868738,656.303867 741.19,652.08 L710.69,649.91 C712.436678,654.51321 712.436678,659.59679 710.69,664.2 C710.023497,665.846443 709.124347,667.388806 708.02,668.78 C704.3,673.5 703.02,680.91 702.66,686.78 C702.451073,689.876841 702.461098,692.984571 702.69,696.08 Z" id="Shape" fill="#FFFFFF"></path>
            <path d="M640.01,709.91 C640.01,709.91 642.34,716.91 664.18,719.25 C686.02,721.59 682.85,705.41 682.85,705.41 C682.85,705.41 682.96,704.95 683.1,704.12 C684.049211,698.649738 684.076251,693.059188 683.18,687.58 C682.42,683.32 683.08,675.93 684.03,669.16 C685.15,661.1 686.68,653.91 686.68,653.91 L652.84,656.41 C652.84,656.41 652.25,663.3 651.91,670.26 C651.8,672.43 651.71,674.6 651.68,676.58 C651.522659,679.584801 650.509513,682.481982 648.76,684.93 C644.753598,690.841467 642.003491,697.512517 640.68,704.53 C640.387979,706.104378 640.181012,707.693348 640.06,709.29 C640.01,709.69 640.01,709.91 640.01,709.91 Z" id="Shape" fill="#FFFFFF"></path>
            <path d="M702.69,696.08 L711.02,702.08 C711.02,702.08 716.19,702.08 716.19,706.75 C716.19,711.42 728.85,716.08 728.85,716.08 C728.85,716.08 747.69,721.41 762.19,716.08 C766.89,714.35 768.33,711.39 767.78,707.78 C767.33,707.78 766.9,707.84 766.54,707.85 C760.6,708.04 754.82,709.64 748.91,710.17 C745.542566,710.418239 742.163599,710.471662 738.79,710.33 C737.116195,710.318709 735.445312,710.18838 733.79,709.94 C729.79,709.23 726.08,707.16 722.51,705.13 C721.636979,704.720342 720.867822,704.11869 720.26,703.37 C719.779394,702.538755 719.441386,701.632894 719.26,700.69 C718,696.17 714.48,692.55 710.44,690.17 C707.981093,688.770958 705.375327,687.647494 702.67,686.82 C702.459626,689.90332 702.466309,692.997617 702.69,696.08 Z" id="Shape" fill="#67647E"></path>
            <path d="M640.01,709.91 C640.01,709.91 642.34,716.91 664.18,719.25 C686.02,721.59 682.85,705.41 682.85,705.41 C682.85,705.41 682.96,704.95 683.1,704.12 C682.1,704.64 681.25,705.12 680.86,705.34 C678.86,706.51 677.07,708.12 674.99,709.21 C669.99,711.84 663.99,711.06 658.35,710.21 C655.7,709.81 653.05,709.41 650.41,708.92 C648.397481,708.643849 646.438517,708.063915 644.6,707.2 C643.23413,706.403878 641.924398,705.515132 640.68,704.54 C640.387979,706.114378 640.181012,707.703348 640.06,709.3 C640.01,709.69 640.01,709.91 640.01,709.91 Z" id="Shape" fill="#67647E"></path>
            <path d="M702.69,696.08 L711.02,702.08 C711.02,702.08 716.19,702.08 716.19,706.75 C716.19,711.42 728.85,716.08 728.85,716.08 C728.85,716.08 747.69,721.41 762.19,716.08 C766.89,714.35 768.33,711.39 767.78,707.78 C767.33,707.78 766.9,707.84 766.54,707.85 C760.6,708.04 754.82,709.64 748.91,710.17 C745.542566,710.418239 742.163599,710.471662 738.79,710.33 C737.116195,710.318709 735.445312,710.18838 733.79,709.94 C729.79,709.23 726.08,707.16 722.51,705.13 C721.636979,704.720342 720.867822,704.11869 720.26,703.37 C719.779394,702.538755 719.441386,701.632894 719.26,700.69 C718,696.17 714.48,692.55 710.44,690.17 C707.981093,688.770958 705.375327,687.647494 702.67,686.82 C702.459626,689.90332 702.466309,692.997617 702.69,696.08 Z" id="Shape" fill="#00004C"></path>
            <path d="M640.01,709.91 C640.01,709.91 642.34,716.91 664.18,719.25 C686.02,721.59 682.85,705.41 682.85,705.41 C682.85,705.41 682.96,704.95 683.1,704.12 C682.1,704.64 681.25,705.12 680.86,705.34 C678.86,706.51 677.07,708.12 674.99,709.21 C669.99,711.84 663.99,711.06 658.35,710.21 C655.7,709.81 653.05,709.41 650.41,708.92 C648.397481,708.643849 646.438517,708.063915 644.6,707.2 C643.23413,706.403878 641.924398,705.515132 640.68,704.54 C640.387979,706.114378 640.181012,707.703348 640.06,709.3 C640.01,709.69 640.01,709.91 640.01,709.91 Z" id="Shape" fill="#00004C"></path>
            <path d="M710.69,649.91 C712.436678,654.51321 712.436678,659.59679 710.69,664.2 C719.44,665.69 735.75,668.7 741.75,664.73 C741.056755,660.551044 740.868738,656.303867 741.19,652.08 L710.69,649.91 Z" id="Shape" fill="#000000" opacity="0.1"></path>
            <path d="M651.92,670.26 C658.1,670.7 674.73,671.57 684.04,669.16 C685.16,661.1 686.69,653.91 686.69,653.91 L652.85,656.41 C652.85,656.41 652.26,663.3 651.92,670.26 Z" id="Shape" fill="#000000" opacity="0.1"></path>
            <path d="M627.52,437.08 C627.52,437.08 628.04,443.33 628.87,452.08 C630.74,471.94 634.19,504.73 636.87,507.4 C640.71,511.25 639.04,539.55 637.54,544.55 C636.04,549.55 637.54,585.55 637.54,585.55 C641.314634,600.588421 643.162773,616.045584 643.04,631.55 C642.54,655.55 649.54,668.05 649.54,668.05 C649.54,668.05 682.54,671.05 689.37,664.67 C696.2,658.29 689.37,607.55 689.37,607.55 C689.37,607.55 677.01,566.08 680.01,560.08 C683.01,554.08 686.51,539.58 686.51,539.58 L686.51,489.08 C691.36,481.08 693.51,470.08 694.44,460.14 C695.180113,451.63704 695.203529,443.086886 694.51,434.58 C694.51,434.58 700.72,447.28 707.05,459.84 C712.77,471.19 718.59,482.42 720.05,484.08 C723.05,487.58 720.55,503.58 720.05,511.58 C719.55,519.58 725.55,535.58 725.55,535.58 C718.05,540.08 716.55,593.08 716.55,593.08 C716.55,593.08 722.05,606.08 710.55,620.58 C699.05,635.08 703.55,662.58 705.05,661.58 C706.55,660.58 737.05,669.08 743.05,661.58 C749.05,654.08 755.55,633.58 755.55,633.58 C755.55,633.58 752.55,612.58 759.05,593.58 C763.87,579.5 769.78,546.49 772.52,530.32 C773.502438,524.451008 773.667338,518.474233 773.01,512.56 C771.75,500.75 769.81,478.89 770.5,461.56 C770.73,455.91 770.57,446.93 770.19,436.4 C768.9,400.3 765,346.06 765,346.06 L737.9,327.7 L720.01,315.58 L715.63,316.25 L634.01,328.86 L630.84,369.12 L627.52,437.08 Z" id="Shape" fill="url(#linearGradient-1)"></path>
            <path d="M737.92,327.72 L739.35,335.58 C739.35,335.58 751.35,393.08 753.85,422.58 C756.35,452.08 766.85,443.58 766.85,443.58 C767.765782,441.102726 768.889802,438.707493 770.21,436.42 C768.92,400.32 765.02,346.08 765.02,346.08 L737.92,327.72 Z" id="Shape" fill="#000000" opacity="0.1"></path>
            <path d="M652.19,109.58 C652.19,109.58 708.19,154.41 697.85,145.41 C692.19,140.47 696.04,119.41 700.68,101.41 C704.5,86.56 708.85,73.78 708.85,73.78 C708.85,73.78 659.97,28.05 663.52,65.44 C664.77,78.62 663.73,87.99 661.86,94.61 C658.43,106.74 652.19,109.58 652.19,109.58 Z" id="Shape" fill="#EFB7B9"></path>
            <path d="M656.85,97.66 L692.35,125.41 L702.68,113.91 C702.68,113.91 711.52,110.08 712.18,114.41 C712.84,118.74 715.35,145.41 710.18,147.91 C705.01,150.41 698.35,152.08 692.52,151.25 C686.69,150.42 680.18,143.91 675.85,141.41 C671.52,138.91 655.52,125.91 655.52,125.91 L647.52,114.75 L656.85,97.66 Z" id="Shape" fill="#000000" opacity="0.1"></path>
            <path d="M656.85,98.66 L692.35,126.41 L702.68,114.91 C702.68,114.91 711.52,111.08 712.18,115.41 C712.84,119.74 715.35,146.41 710.18,148.91 C705.01,151.41 698.35,153.08 692.52,152.25 C686.69,151.42 680.18,144.91 675.85,142.41 C671.52,139.91 655.52,126.91 655.52,126.91 L647.52,115.75 L656.85,98.66 Z" id="Shape" fill="url(#linearGradient-1)"></path>
            <path d="M627.52,437.08 C627.52,437.08 628.04,443.33 628.87,452.08 C639.87,452.5 661.21,453.8 676.19,457.72 C682.167772,459.198952 688.292963,460.000661 694.45,460.11 C695.190113,451.60704 695.213529,443.056886 694.52,434.55 C694.52,434.55 700.73,447.25 707.06,459.81 C712.474455,459.444932 717.861306,458.746946 723.19,457.72 L716.52,371.05 C716.52,371.05 716.74,341.96 715.64,316.22 L634.01,328.86 L630.84,369.12 L627.52,437.08 Z" id="Shape" fill="#000000" opacity="0.1"></path>
            <path d="M688.85,123.08 C688.85,123.08 664.6,96.57 658.85,100.78 C653.1,104.99 649.38,115.25 649.38,115.25 L669.13,136.91 L688.85,123.08 Z" id="Shape" fill="#000000" opacity="0.1"></path>
            <path d="M687.85,122.08 C687.85,122.08 663.6,95.57 657.85,99.78 C652.1,103.99 648.38,114.25 648.38,114.25 L668.13,135.91 L687.85,122.08 Z" id="Shape" fill="#FFFFFF"></path>
            <path d="M708.01,139.07 L694.01,121.52 C694.01,121.52 696.21,104.93 701.33,107.05 C706.45,109.17 708.01,117.66 708.01,117.66 L708.01,139.07 Z" id="Shape" fill="#000000" opacity="0.1"></path>
            <path d="M709.01,137.91 L695.08,120.36 C695.08,120.36 697.28,103.77 702.4,105.89 C707.52,108.01 709.01,116.5 709.01,116.5 L709.01,137.91 Z" id="Shape" fill="#FFFFFF"></path>
            <path d="M644.85,106.41 C644.85,106.41 673.56,137.41 690.7,139.49 C692.25,139.68 693.8,139.94 695.33,140.25 C699.81,141.13 709.57,140.25 708.02,114.62 L710.18,110.08 L723.52,118.25 L728.02,154.91 L736.02,248.91 L747.85,353.58 C747.85,353.58 711.52,350.08 701.35,359.25 C691.18,368.42 688.35,309.25 688.35,309.25 L660.52,189.25 L630.85,112.08 L644.85,106.41 Z" id="Shape" fill="#000000" opacity="0.1"></path>
            <path d="M630.85,116.08 L660.52,193.25 L688.35,313.25 C688.35,313.25 691.19,372.41 701.35,363.25 C704.67,360.25 710.79,358.61 717.52,357.76 C725.795714,356.866348 734.132496,356.679005 742.44,357.2 C745.76,357.38 747.85,357.58 747.85,357.58 L736.01,252.91 L728.01,158.91 L723.51,122.25 L710.18,114.08 L708.01,118.62 C708.01,119.29 708.08,119.95 708.11,120.62 C709.05,144.3 699.68,145.14 695.33,144.28 C693.79,143.97 692.25,143.71 690.69,143.52 C678.55,142.03 660.61,126.06 651.18,116.88 C647.29,113.08 644.84,110.44 644.84,110.44 L630.85,116.08 Z" id="Shape" fill="#000000" opacity="0.1"></path>
            <path d="M630.85,113.08 L660.52,190.25 L688.35,310.25 C688.35,310.25 691.19,369.41 701.35,360.25 C704.67,357.25 710.79,355.61 717.52,354.76 C725.795714,353.866348 734.132496,353.679005 742.44,354.2 C745.76,354.38 747.85,354.58 747.85,354.58 L736.01,249.91 L728.01,155.91 L723.51,119.25 L710.18,111.08 L708.01,115.62 C708.01,116.29 708.08,116.95 708.11,117.62 C709.05,141.3 699.68,142.14 695.33,141.28 C693.79,140.97 692.25,140.71 690.69,140.52 C678.55,139.03 660.61,123.06 651.18,113.88 C647.29,110.08 644.84,107.44 644.84,107.44 L630.85,113.08 Z" id="Shape" fill="#00004C"></path>
            <path d="M708.01,115.62 C708.01,116.29 708.08,116.95 708.11,117.62 L708.34,117.78 C711.86,120.1 717.51,159.28 717.51,159.28 L724.84,259.11 L738.34,333.61 C738.34,333.61 740.11,342.1 742.43,354.23 C745.75,354.41 747.84,354.61 747.84,354.61 L736.01,249.91 L728.01,155.91 L723.51,119.25 L710.18,111.08 L708.01,115.62 Z" id="Shape" fill="#000000" opacity="0.1"></path>
            <path d="M698.83,108.95 C698.83,108.95 706.83,115.43 710.35,117.75 C713.87,120.07 719.52,159.25 719.52,159.25 L726.85,259.08 L740.35,333.58 C740.35,333.58 752.35,391.08 754.85,420.58 C757.35,450.08 767.85,441.58 767.85,441.58 C767.85,441.58 775.69,418.58 794.35,417.25 C813.01,415.92 803.35,405.41 803.35,405.41 C803.35,405.41 792.42,326.64 785.23,312.61 C785.117807,312.369095 784.990901,312.135321 784.85,311.91 C783.79,310.17 782.62,306.7 781.39,302.06 C774.28,275.22 765.19,209.06 765.19,209.06 L759.52,127.06 C745.01,103.41 700.01,104.23 700.01,104.23 L698.83,108.95 Z" id="Shape" fill="url(#linearGradient-2)"></path>
            <path d="M630.85,113.08 L660.52,190.25 L688.35,310.25 C688.35,310.25 691.19,369.41 701.35,360.25 C704.67,357.25 710.79,355.61 717.52,354.76 C717.4,334.42 716.78,297.92 713.85,282.58 C711.314417,268.562681 710.255295,254.318168 710.69,240.08 L674.35,160.91 C674.35,160.91 647.02,127.22 646.85,122.4 C646.79,120.62 648.73,117.32 651.19,113.85 C647.3,110.05 644.85,107.41 644.85,107.41 L630.85,113.08 Z" id="Shape" fill="#000000" opacity="0.1"></path>
            <path d="M722.18,455.75 L715.52,369.08 C715.52,369.08 716.02,304.41 711.85,282.58 C709.308288,268.563389 708.245793,254.31858 708.68,240.08 L672.35,160.91 C672.35,160.91 645.02,127.22 644.85,122.4 C644.68,117.58 659.16,101.55 659.16,101.55 C659.16,101.55 627.52,105.25 623.35,119.41 C619.18,133.57 596.35,139.08 596.35,139.08 C596.35,139.08 585.35,149.08 585.52,177.75 C585.69,206.42 620.52,228.91 620.52,228.91 C620.52,228.91 626.35,282.91 621.35,307.25 C616.35,331.59 620.68,449.91 620.68,449.91 C620.68,449.91 654.18,450.25 675.18,455.75 C696.18,461.25 722.18,455.75 722.18,455.75 Z" id="Shape" fill="url(#linearGradient-2)"></path>
            <path d="M672.85,318.25 L647.18,415.41 C647.18,415.41 643.68,424.08 625.68,417.41 C607.68,410.74 555.35,389.08 555.35,389.08 C555.35,389.08 550.68,381.41 559.35,367.25 L585.52,290.58 L672.85,318.25 Z" id="Shape" fill="url(#linearGradient-1)"></path>
            <polygon id="Shape" fill="#FFFFFF" points="639.65 361.21 598.15 315.58 571.65 304.83 560.77 359.7 611.15 414.45"></polygon>
            <path d="M595.3,376.45 C595.3,376.45 607.64,383.7 610.89,383.95 C614.14,384.2 625.62,405.87 620.77,405.7 C615.92,405.53 604.64,399.7 605.77,402.7 C606.9,405.7 614.25,414.7 616.39,413.85 C618.53,413 619.52,420.45 610.39,417.85 C601.26,415.25 589.14,412.97 589.14,412.97 C589.14,412.97 582.64,408.22 582.39,404.85 C582.14,401.48 576.52,383.72 576.52,383.72 L595.3,376.45 Z" id="Shape" fill="#EFB7B9"></path>
            <path d="M793.41,120.45 C793.41,120.45 782.73,97.4 776.35,89.77 C769.97,82.14 742.14,73.95 739.35,76.2 C736.56,78.45 753.35,91.09 756.35,92.71 C759.35,94.33 736.96,109.38 736.51,109.71 C736.06,110.04 719.01,108.19 727.76,113.94 C736.51,119.69 762.38,125.55 762.38,125.55 C765.900134,124.938655 769.516716,125.803018 772.38,127.94 C777.39,131.58 793.41,120.45 793.41,120.45 Z" id="Shape" fill="#EFB7B9"></path>
            <path d="M571.24,377.61 C572.653805,382.245984 574.55089,386.720557 576.9,390.96 C579.4,388.7 603.27,380.83 603.27,380.83 L600.62,376.74 L596.3,370.08 C596.3,370.08 575.02,365.46 571.4,370.08 C570.18,371.63 570.4,374.49 571.24,377.61 Z" id="Shape" fill="#000000" opacity="0.1"></path>
            <path d="M570.24,376.61 C571.653805,381.245984 573.55089,385.720557 575.9,389.96 C578.4,387.7 602.27,379.83 602.27,379.83 L599.62,375.74 L595.3,369.08 C595.3,369.08 574.02,364.46 570.4,369.08 C569.18,370.63 569.4,373.49 570.24,376.61 Z" id="Shape" fill="#A36468"></path>
            <path d="M769.01,125.66 C769.776512,127.376188 770.679405,129.028149 771.71,130.6 C775.56,136.67 781.39,143.83 781.39,143.83 C781.39,143.83 804.13,133.37 804.13,132.91 C804.13,132.45 797.23,121.58 791.62,113.01 C789.35,109.55 787.3,106.49 786,104.7 C786,104.7 777.51,122.46 769.13,122.58 C766.94,122.61 768.11,123.49 769.01,125.66 Z" id="Shape" fill="#000000" opacity="0.1"></path>
            <path d="M770.01,126.66 C770.776512,128.376188 771.679405,130.028149 772.71,131.6 C776.56,137.67 782.39,144.83 782.39,144.83 C782.39,144.83 805.13,134.37 805.13,133.91 C805.13,133.45 798.23,122.58 792.62,114.01 C790.35,110.55 788.3,107.49 787,105.7 C787,105.7 778.51,123.46 770.13,123.58 C767.94,123.61 769.11,124.49 770.01,126.66 Z" id="Shape" fill="#00004C"></path>
            <polygon id="Shape" fill="#B07473" points="641.77 310.08 644.69 301.33 603.71 298.45 619.02 300.08 638.52 304.26 637.02 310.08"></polygon>
            <path d="M570.24,376.61 C574.76,374.48 586.82,370.05 599.62,375.74 L595.3,369.08 C595.3,369.08 574.02,364.46 570.4,369.08 C569.18,370.63 569.4,373.49 570.24,376.61 Z" id="Shape" fill="#000000" opacity="0.1"></path>
            <path d="M567.85,322.58 C567.95,324.03 568.04,325.48 568.13,326.92 C568.38,331.33 568.55,335.7 568.66,339.92 C569.16,359.46 568.35,375.58 568.35,375.58 C568.35,375.58 583.85,366.25 600.35,374.08 L602.01,342.46 L602.01,341.91 L603.7,328.08 L609.18,283.41 C609.18,283.41 619.51,221.41 622.68,219.08 C625.85,216.75 599.18,166.58 599.18,166.58 L585.51,177.75 L577.01,235.08 L577.01,264.41 C577.01,264.41 566.01,296.25 567.85,322.58 Z" id="Shape" fill="url(#linearGradient-2)"></path>
            <path d="M769.52,125.25 L772.72,131.6 C776.57,137.67 782.4,144.83 782.4,144.83 C782.4,144.83 805.14,134.37 805.14,133.91 C805.14,133.45 798.24,122.58 792.63,114.01 C790.9,112.01 789.85,110.91 789.85,110.91 C796.52,127.41 769.52,125.25 769.52,125.25 Z" id="Shape" fill="#000000" opacity="0.1"></path>
            <path d="M750.18,122.4 L759.52,127.08 C759.52,127.08 771.02,142.58 774.35,144.25 C777.68,145.92 779.35,145.75 779.35,145.75 L769.52,126.25 C769.52,126.25 796.52,128.41 789.85,111.91 C789.85,111.91 820.02,144.91 823.35,158.25 C823.35,158.25 840.02,185.91 836.02,199.58 C832.02,213.25 815.85,215.91 804.18,211.75 C792.51,207.59 756.68,189.25 756.68,189.25 L750.18,122.4 Z" id="Shape" fill="url(#linearGradient-2)"></path>
            <path d="M783.68,154.91 C783.68,154.91 808.85,183.08 806.85,186.91 C804.85,190.74 785.01,160.58 783.68,154.91 Z" id="Shape" fill="#000000" opacity="0.1"></path>
            <path d="M670.1,79.08 C670.1,79.08 634.68,68.41 614.68,106.91 C594.68,145.41 594.01,148.08 595.01,149.91 C596.01,151.74 634.84,141.58 637.01,146.08 C639.18,150.58 615.01,169.08 615.01,169.08 L708.67,240.08 L669.32,156.44 C666.673696,150.58101 663.146183,145.16159 658.86,140.37 C652.39,133.13 643.54,122.04 646.67,118.62 C649.43,115.62 653.85,107.79 659.81,98.78 C664.18,92.17 671.12,84.72 670.1,79.08 Z" id="Shape" fill="#000000" opacity="0.2"></path>
            <path d="M671.1,78.08 C671.1,78.08 635.68,67.41 615.68,105.91 C595.68,144.41 595.01,147.08 596.01,148.91 C597.01,150.74 635.84,140.58 638.01,145.08 C640.18,149.58 616.01,168.08 616.01,168.08 L708.67,240.08 L670.32,155.44 C667.673696,149.58101 664.146183,144.16159 659.86,139.37 C653.39,132.13 644.54,121.04 647.67,117.62 C650.43,114.62 654.85,106.79 660.81,97.78 C665.18,91.17 672.12,83.72 671.1,78.08 Z" id="Shape" fill="#67647E"></path>
            <path d="M671.1,78.08 C671.1,78.08 635.68,67.41 615.68,105.91 C595.68,144.41 595.01,147.08 596.01,148.91 C597.01,150.74 635.84,140.58 638.01,145.08 C640.18,149.58 616.01,168.08 616.01,168.08 L708.67,240.08 L668.48,151.37 C666.924373,147.921547 664.816704,144.74991 662.24,141.98 C655.91,135.16 644.13,121.49 647.67,117.62 C650.43,114.62 654.85,106.79 660.81,97.78 C665.18,91.17 672.12,83.72 671.1,78.08 Z" id="Shape" fill="url(#linearGradient-2)" opacity="0.896173007"></path>
            <circle id="Oval" fill="#444053" cx="663.85" cy="247.24" r="7.33"></circle>
            <circle id="Oval" fill="#444053" cx="663.85" cy="292.74" r="7.33"></circle>
            <path d="M568.66,339.92 C572.88,340.92 592.89,340.47 601.99,342.46 L601.99,341.91 L603.68,328.08 C593.42,326.8 571.12,324.37 568.1,326.92 C564.19,330.25 563.63,338.77 568.66,339.92 Z" id="Shape" fill="#67647E"></path>
            <path d="M568.66,340.92 C572.88,341.92 592.89,341.47 601.99,343.46 L601.99,342.91 L603.68,329.08 C593.42,327.8 571.12,325.37 568.1,327.92 C564.19,331.25 563.63,339.77 568.66,340.92 Z" id="Shape" fill="#000000" opacity="0.1"></path>
            <path d="M568.66,339.92 C572.88,340.92 592.89,340.47 601.99,342.46 L601.99,341.91 L603.68,328.08 C593.42,326.8 571.12,324.37 568.1,326.92 C564.19,330.25 563.63,338.77 568.66,339.92 Z" id="Shape" fill="#000000" opacity="0.1"></path>
            <circle id="Oval" fill="#444053" cx="573.02" cy="333.24" r="4.42"></circle>
            <path d="M656.52,350.91 L637.85,414.58 C637.85,414.58 632.85,416.91 632.85,412.75 C632.85,408.59 656.52,350.91 656.52,350.91 Z" id="Shape" fill="#FFFFFF" opacity="0.1"></path>
            <path d="M663.68,91.48 C664.859069,92.4260142 666.091064,93.3041029 667.37,94.11 C673.72,98.11 679.37,103.55 687.47,103.55 C691.962585,103.556552 696.4256,102.823414 700.68,101.38 C704.5,86.53 708.85,73.75 708.85,73.75 C708.85,73.75 659.97,28.02 663.52,65.41 C664.77,78.59 665.55,84.86 663.68,91.48 Z" id="Shape" fill="#000000" opacity="0.1"></path>
            <path d="M646.41,60.49 C646.41,83.1668118 664.793188,101.55 687.47,101.55 C710.146812,101.55 728.53,83.1668118 728.53,60.49 C728.53,37.8131882 710.146812,19.43 687.47,19.43 C676.564712,19.3791836 666.091389,23.6888153 658.380102,31.4001021 C650.668815,39.111389 646.359184,49.5847119 646.41,60.49 Z" id="Shape" fill="#EFB7B9"></path>
            <path d="M710.74,94.86 C711.117412,95.7993698 711.791685,96.5895342 712.66,97.11 L719.18,101.11 L731.37,108.52 L750.66,120.24 C751.113333,120.513333 751.573333,120.763333 752.04,120.99 C756.622685,123.318149 762.025385,123.392007 766.67,121.19 C770.181804,119.61035 772.722209,116.441352 773.5,112.67 C774.547032,107.391728 772.52711,101.974313 768.28,98.67 C768.175692,98.5805806 768.052682,98.5156583 767.92,98.48 C763.814461,97.327929 759.951939,95.4407145 756.52,92.91 L744.38,84.51 L733.54,74.6 L728.06,70.81 C726.419939,69.6731821 724.268164,69.5950778 722.55,70.61 C716.93,73.86 705.74,82.22 710.74,94.86 Z" id="Shape" fill="#E1E7EF"></path>
            <path d="M719.18,101.05 L731.37,108.46 C733.91,98.22 740.37,90.99 745.98,85.53 L733.54,74.53 C724.08,79.22 720.32,94.86 719.18,101.05 Z" id="Shape" fill="#00004C"></path>
            <path d="M752.01,120.93 C756.592685,123.258149 761.995385,123.332007 766.64,121.13 C770.151804,119.55035 772.692209,116.381352 773.47,112.61 C774.517032,107.331728 772.49711,101.914313 768.25,98.61 C765.222454,99.8915052 762.420163,101.650533 759.95,103.82 C756.503638,106.803922 754.007415,110.732517 752.77,115.12 C752.280316,117.018356 752.025081,118.969561 752.01,120.93 Z" id="Shape" fill="#000000" opacity="0.1"></path>
            <path d="M646.41,60.49 C646.401623,66.4699812 647.705625,72.3789508 650.23,77.8 C652.706964,80.2664432 654.594037,83.2611454 655.75,86.56 C658.53,89.94 659.62,91.85 663.33,94.19 C664.82,92.62 668.18,91.67 668.79,89.64 C670.34,84.41 669.46,78.82 669.38,73.37 C669.38,70.95 669.72,68.09 671.85,66.93 C673.62,65.93 675.85,66.65 677.59,67.63 C679.33,68.61 681.06,69.88 683.06,70.11 C686.06,70.45 688.8,68.34 690.48,65.86 C692.16,63.38 693.13,60.48 694.72,57.94 C696.82,54.59 699.92,52.02 702.97,49.52 C706.46,46.64 709.85,43.45 713.57,40.87 C715.79,39.32 718.45,38.6 720.64,37.04 L720.99,36.78 C710.661899,22.1808475 692.072565,15.9453341 675.029987,21.3634023 C657.987409,26.7814705 646.411553,42.6069094 646.41,60.49 Z" id="Shape" fill="#000000" opacity="0.1"></path>
            <path d="M727.31,15.1 C726.44,9.34 721.67,3.93 715.85,3.83 C711.04,3.75 706.94,7.01 702.68,9.24 C693.846884,13.7921218 683.441706,14.1588888 674.31,10.24 C671.7,9.09 669.04,7.56 666.19,7.8 C663.34,8.04 661.07,9.9 659.09,11.8 C654.415657,16.4315444 650.751943,21.9815949 648.33,28.1 C647.62,29.9 646.97,31.81 645.59,33.17 C644.529626,34.0402768 643.38377,34.8008306 642.17,35.44 C637.946589,38.2438012 635.030508,42.6305386 634.08,47.61 C633.178406,52.5672868 633.687761,57.6781595 635.55,62.36 C636.676586,65.5705847 638.512029,68.4861022 640.92,70.89 C642.74,72.6 644.92,73.89 646.83,75.48 C653.1564,80.8650277 656.193274,89.1746756 654.83,97.37 C660.15,98.59 665.25,93.83 666.83,88.6 C668.41,83.37 667.5,77.79 667.42,72.33 C667.42,69.91 667.76,67.06 669.89,65.9 C671.66,64.9 673.89,65.62 675.63,66.6 C677.37,67.58 679.09,68.84 681.1,69.08 C684.1,69.42 686.84,67.31 688.52,64.83 C690.2,62.35 691.16,59.45 692.76,56.91 C694.85,53.56 697.96,50.99 701.01,48.49 C704.5,45.61 707.89,42.42 711.6,39.84 C713.83,38.29 716.49,37.57 718.68,36.01 C725.26,31.3 727.31,22.66 727.31,15.1 Z" id="Shape" fill="#585268"></path>
            <path d="M695.52,83.75 C695.52,83.75 696.08,83.88 697.05,84.15 C696.584954,83.8822261 696.056596,83.7440933 695.52,83.75 Z" id="Shape" fill="#000000" opacity="0.1"></path>
            <g id="Group" opacity="0.1" transform="translate(637.000000, 7.000000)" fill="#000000">
                <path d="M27.79,78.37 C29.34,73.14 28.46,67.55 28.38,62.1 C28.38,59.68 28.72,56.82 30.85,55.66 C32.62,54.66 34.85,55.38 36.59,56.36 C38.33,57.34 40.05,58.61 42.06,58.84 C45.06,59.18 47.8,57.08 49.48,54.59 C51.16,52.1 52.12,49.21 53.72,46.67 C55.81,43.32 58.92,40.75 61.97,38.25 C65.46,35.38 68.85,32.18 72.56,29.6 C74.79,28.05 77.45,27.33 79.64,25.77 C86.26,21.03 88.31,12.39 88.31,4.84 C88.0870204,3.39229495 87.6382274,1.9885513 86.98,0.68 C88.7429445,2.71267167 89.8970933,5.20119661 90.31,7.86 C90.31,15.41 88.31,24.05 81.64,28.79 C79.45,30.35 76.79,31.07 74.56,32.62 C70.85,35.2 67.46,38.4 63.97,41.27 C60.92,43.77 57.81,46.34 55.72,49.69 C54.12,52.23 53.17,55.13 51.48,57.61 C49.79,60.09 47.04,62.2 44.06,61.86 C42.06,61.63 40.36,60.35 38.59,59.38 C36.82,58.41 34.59,57.72 32.85,58.68 C30.72,59.84 30.34,62.68 30.38,65.12 C30.46,70.57 31.38,76.12 29.79,81.39 C28.2,86.66 23.13,91.39 17.79,90.15 C17.9579891,89.2115121 18.0615644,88.2626293 18.1,87.31 C22.55,86.93 26.46,82.86 27.79,78.37 Z" id="Shape"></path>
                <path d="M1.92,60.65 C3.74,62.36 5.92,63.65 7.83,65.24 C9.93298754,67.011927 11.698076,69.1496829 13.04,71.55 C12.0870844,70.3388556 11.0113511,69.2296103 9.83,68.24 C7.91,66.65 5.74,65.36 3.92,63.65 C2.46725781,62.2540624 1.23938319,60.6416336 0.28,58.87 C0.787008471,59.4986835 1.33486005,60.0933029 1.92,60.65 Z" id="Shape"></path>
            </g>
            <path d="M694.16,424.61 C694.89,426.78 695.93,428.9 696.07,431.19 C696.31,435.08 693.93,438.71 693.76,442.61 C693.56,447.15 696.32,451.22 698.96,454.91 C695.83,454.91 692.41,453.83 690.82,451.14 C690.275401,450.104609 689.881425,448.996763 689.65,447.85 C686.82,436.56 684.07,424.21 688.99,413.67 C689.744314,411.846736 690.84843,410.188863 692.24,408.79 C693.07,414.11 692.37,419.34 694.16,424.61 Z" id="Shape" fill="#000000" opacity="0.1"></path>
            <path d="M772.38,344.93 L780.69,333.72 C782.69,331.01 784.76,328.19 785.48,324.9 C786.26,321.29 785.35,317.55 785.23,313.9 C785.23,313.49 785.23,313.07 785.23,312.65 C785.117807,312.409095 784.990901,312.175321 784.85,311.95 C783.79,310.21 782.62,306.74 781.39,302.1 C780.177952,303.304044 779.236974,304.753014 778.63,306.35 C774.76,315.79 778.34,326.87 775.14,336.55 C774.22,339.33 772.72,341.99 772.38,344.93 Z" id="Shape" fill="#000000" opacity="0.1"></path>
            <path d="M751.22,684.27 C742.912677,690.222631 732.439079,692.296935 722.49,689.96" id="Shape" fill="#000000" opacity="0.1"></path>
            <path d="M682.37,685.92 C678.12042,689.900947 672.412242,691.944749 666.601623,691.565837 C660.791004,691.186925 655.396592,688.419119 651.7,683.92" id="Shape" fill="#000000" opacity="0.1"></path>
            <path d="M726.25,535.17 C734.440644,537.058418 742.895567,533.31968 747.01,525.99" id="Shape" fill="#000000" opacity="0.1"></path>
            <path d="M678.85,560.44 C672.513913,560.904294 666.211039,559.174094 661,555.54" id="Shape" fill="#000000" opacity="0.1"></path>
            <path d="M711.2,620.86 C716.53,623.03 721.28,626.4 726.47,628.86 C731.66,631.32 737.67,632.94 743.17,631.22" id="Shape" fill="#000000" opacity="0.1"></path>
            <ellipse id="Oval" fill="#FFFFFF" opacity="0.80395154" cx="423.34" cy="611.14" rx="85.12" ry="24.55"></ellipse>
            <ellipse id="Oval" fill="#000000" opacity="0.1" cx="423.34" cy="603.23" rx="17.03" ry="4.91"></ellipse>
            <rect id="Rectangle-path" fill="#FFFFFF" opacity="0.798290308" x="413.87" y="473.73" width="17.5" height="129.5"></rect>
            <path d="M431.37,480.14 L431.37,495.14 C427.87,494.06 419.88,489.51 413.87,485.93 L413.87,473.73 L417.52,473.73 L431.37,480.14 Z" id="Shape" fill="#000000" opacity="0.1"></path>
            <path d="M390.14,417.35 C390.14,417.35 447.92,402.48 462.3,391.35 C476.68,380.22 533.15,432.6 525.69,452.35 C518.23,472.1 491.07,486.43 491.07,486.43 C491.07,486.43 415.95,498.65 403.17,473.16 C390.39,447.67 390.14,417.35 390.14,417.35 Z" id="Shape" fill="#474157"></path>
            <path d="M390.14,417.35 C390.14,417.35 447.92,402.48 462.3,391.35 C476.68,380.22 533.15,432.6 525.69,452.35 C518.23,472.1 491.07,486.43 491.07,486.43 C491.07,486.43 415.95,498.65 403.17,473.16 C390.39,447.67 390.14,417.35 390.14,417.35 Z" id="Shape" fill="#FFFFFF" opacity="0.802083333"></path>
            <path d="M385.14,411.35 C385.14,411.35 442.92,396.48 457.3,385.35 C471.68,374.22 528.15,426.6 520.69,446.35 C513.23,466.1 486.07,480.43 486.07,480.43 C486.07,480.43 410.95,492.65 398.17,467.16 C385.39,441.67 385.14,411.35 385.14,411.35 Z" id="Shape" fill="#FFFFFF" opacity="0.804461051"></path>
            <path d="M503.9,309.44 C503.68,309.44 503.47,309.39 503.26,309.35 C503.477488,309.326922 503.697312,309.357835 503.9,309.44 Z" id="Shape" fill="#000000" opacity="0.1"></path>
            <path d="M540.25,341.2 C539.064786,333.629029 532.461353,328.102661 524.8,328.27 C512.09,328.51 475.8,330.05 453.68,339.83 C448.82,341.98 443.95,344.07 438.95,345.83 C434.43,347.44 429.04,350.01 426.37,353.7 C423.7,357.39 360.87,405.7 451.37,452.2 C451.37,452.2 499.87,466.01 518.87,433.61 C518.87,433.61 532.37,398.8 531.37,386.75 C530.37,374.7 540.37,342.2 540.37,342.2 C540.37,342.2 540.35,341.86 540.25,341.2 Z" id="Shape" fill="#FFFFFF"></path>
            <path d="M540.25,349.96 C539.11,342.96 532.45,337.9 524.8,338.03 C510.56,338.27 466.73,340.03 446.37,352.3 C446.37,352.3 430.87,361.53 426.37,361.53 C421.87,361.53 360.87,409.53 451.37,452.46 C451.37,452.46 499.87,465.2 518.87,435.29 C518.87,435.29 532.37,403.16 531.37,392.04 C530.37,380.92 540.37,350.91 540.37,350.91 C540.37,350.91 540.35,350.56 540.25,349.96 Z" id="Shape" fill="#FFFFFF"></path>
            <path d="M475.87,452.23 L493.85,452.23 L493.85,476.3 C493.85,481.822847 489.372847,486.3 483.85,486.3 L475.87,486.3 L475.87,452.23 Z" id="Rectangle-path" fill="#FFFFFF"></path>
            <path d="M332.72,367.24 C326.95,365.83 311.04,364.53 303.47,389.92 C301.705881,395.820172 299.46172,401.566027 296.76,407.1 C289.49,422 280.12,452.66 321.37,459.41 L420.37,481.91 C420.37,481.91 473.37,488.41 476.87,485.91 C480.37,483.41 479.87,477.91 479.87,477.91 C479.87,477.91 421.37,477.91 409.87,459.91 C398.37,441.91 397.87,417.41 397.87,417.41 C397.87,417.41 399.31,379.58 338.87,368.59 C336.83,368.21 334.77,367.74 332.72,367.24 Z" id="Shape" fill="#FFFFFF"></path>
        </g>
    </g>
</svg>